  0
SECTION
  2
HEADER
  9
$ACADVER
  1
AC1014
  9
$HANDSEED
  5
FFFF
  9
$MEASUREMENT
 70
     1
  0
ENDSEC
  0
SECTION
  2
TABLES
  0
TABLE
  2
VPORT
  5
8
330
0
100
AcDbSymbolTable
 70
     4
  0
VPORT
  5
2E
330
8
100
AcDbSymbolTableRecord
100
AcDbViewportTableRecord
  2
*ACTIVE
 70
     0
 10
0.0
 20
0.0
 11
1.0
 21
1.0
 12
210.0
 22
148.5
 13
0.0
 23
0.0
 14
10.0
 24
10.0
 15
10.0
 25
10.0
 16
0.0
 26
0.0
 36
1.0
 17
0.0
 27
0.0
 37
0.0
 40
341.0
 41
1.24
 42
50.0
 43
0.0
 44
0.0
 50
0.0
 51
0.0
 71
     0
 72
   100
 73
     1
 74
     3
 75
     0
 76
     0
 77
     0
 78
     0
  0
ENDTAB
  0
TABLE
  2
LTYPE
  5
5
330
0
100
AcDbSymbolTable
 70
     1
  0
LTYPE
  5
14
330
5
100
AcDbSymbolTableRecord
100
AcDbLinetypeTableRecord
  2
BYBLOCK
 70
     0
  3

 72
    65
 73
     0
 40
0.0
  0
LTYPE
  5
15
330
5
100
AcDbSymbolTableRecord
100
AcDbLinetypeTableRecord
  2
BYLAYER
 70
     0
  3

 72
    65
 73
     0
 40
0.0
  0
LTYPE
  5
16
330
5
100
AcDbSymbolTableRecord
100
AcDbLinetypeTableRecord
  2
CONTINUOUS
 70
     0
  3
Solid line
 72
    65
 73
     0
 40
0.0
  0
ENDTAB
  0
TABLE
  2
LAYER
  5
2
100
AcDbSymbolTable
 70
5
  0
LAYER
  5
50
100
AcDbSymbolTableRecord
100
AcDbLayerTableRecord
  2
0
 70
0
  6
CONTINUOUS
  0
LAYER
  5
51
100
AcDbSymbolTableRecord
100
AcDbLayerTableRecord
  2
bolinhas
 70
0
  6
CONTINUOUS
  0
LAYER
  5
52
100
AcDbSymbolTableRecord
100
AcDbLayerTableRecord
  2
guardachuva
 70
0
  6
CONTINUOUS
  0
LAYER
  5
53
100
AcDbSymbolTableRecord
100
AcDbLayerTableRecord
  2
texto
 70
0
  6
CONTINUOUS
  0
LAYER
  5
54
100
AcDbSymbolTableRecord
100
AcDbLayerTableRecord
  2
base
 70
0
  6
CONTINUOUS
  0
ENDTAB
  0
TABLE
  2
STYLE
  5
3
330
0
100
AcDbSymbolTable
 70
     1
  0
STYLE
  5
11
330
3
100
AcDbSymbolTableRecord
100
AcDbTextStyleTableRecord
  2
STANDARD
 70
     0
 40
0.0
 41
1.0
 50
0.0
 71
     0
 42
2.5
  3
txt
  4

  0
ENDTAB
  0
TABLE
  2
VIEW
  5
6
330
0
100
AcDbSymbolTable
 70
     0
  0
ENDTAB
  0
TABLE
  2
UCS
  5
7
330
0
100
AcDbSymbolTable
 70
     0
  0
ENDTAB
  0
TABLE
  2
APPID
  5
9
330
0
100
AcDbSymbolTable
 70
     2
  0
APPID
  5
12
330
9
100
AcDbSymbolTableRecord
100
AcDbRegAppTableRecord
  2
ACAD
 70
     0
  0
ENDTAB
  0
TABLE
  2
DIMSTYLE
  5
A
330
0
100
AcDbSymbolTable
 70
     1
  0
DIMSTYLE
105
27
330
A
100
AcDbSymbolTableRecord
100
AcDbDimStyleTableRecord
  2
ISO-25
 70
     0
  3

  4

  5

  6

  7

 40
1.0
 41
2.5
 42
0.625
 43
3.75
 44
1.25
 45
0.0
 46
0.0
 47
0.0
 48
0.0
140
2.5
141
2.5
142
0.0
143
0.03937007874016
144
1.0
145
0.0
146
1.0
147
0.625
 71
     0
 72
     0
 73
     0
 74
     0
 75
     0
 76
     0
 77
     1
 78
     8
170
     0
171
     3
172
     1
173
     0
174
     0
175
     0
176
     0
177
     0
178
     0
270
     2
271
     2
272
     2
273
     2
274
     3
340
11
275
     0
280
     0
281
     0
282
     0
283
     0
284
     8
285
     0
286
     0
287
     3
288
     0
  0
ENDTAB
  0
TABLE
  2
BLOCK_RECORD
  5
1
330
0
100
AcDbSymbolTable
 70
     1
  0
BLOCK_RECORD
  5
1F
330
1
100
AcDbSymbolTableRecord
100
AcDbBlockTableRecord
  2
*MODEL_SPACE
  0
BLOCK_RECORD
  5
1B
330
1
100
AcDbSymbolTableRecord
100
AcDbBlockTableRecord
  2
*PAPER_SPACE
  0
ENDTAB
  0
ENDSEC
  0
SECTION
  2
BLOCKS
  0
BLOCK
  5
20
330
1F
100
AcDbEntity
  8
0
100
AcDbBlockBegin
  2
*MODEL_SPACE
 70
     0
 10
0.0
 20
0.0
 30
0.0
  3
*MODEL_SPACE
  1

  0
ENDBLK
  5
21
330
1F
100
AcDbEntity
  8
0
100
AcDbBlockEnd
  0
BLOCK
  5
1C
330
1B
100
AcDbEntity
 67
     1
  8
0
100
AcDbBlockBegin
  2
*PAPER_SPACE
  1

  0
ENDBLK
  5
1D
330
1B
100
AcDbEntity
 67
     1
  8
0
100
AcDbBlockEnd
  0
ENDSEC
  0
SECTION
  2
ENTITIES
  0
LWPOLYLINE
  5
100
100
AcDbEntity
  8
bolinhas
 62
7
100
AcDbPolyline
 90
17
 70
0
 10
40.179083
 20
32.634512
 30
0.0
 10
40.485838
 20
32.761526
 30
0.0
 10
40.612774
 20
33.067582
 30
0.0
 10
40.485838
 20
33.374626
 30
0.0
 10
40.179083
 20
33.501691
 30
0.0
 10
39.872739
 20
33.374547
 30
0.0
 10
39.745598
 20
33.067582
 30
0.0
 10
39.872739
 20
32.761526
 30
0.0
 10
40.179083
 20
32.634512
 30
0.0
 10
40.485838
 20
32.761526
 30
0.0
 10
40.612774
 20
33.067582
 30
0.0
 10
40.485838
 20
33.374626
 30
0.0
 10
40.179083
 20
33.501691
 30
0.0
 10
39.872739
 20
33.374547
 30
0.0
 10
39.745598
 20
33.067582
 30
0.0
 10
39.872739
 20
32.761526
 30
0.0
 10
40.179083
 20
32.634512
 30
0.0
  0
LWPOLYLINE
  5
101
100
AcDbEntity
  8
bolinhas
 62
7
100
AcDbPolyline
 90
17
 70
0
 10
1.863995
 20
32.634512
 30
0.0
 10
2.170209
 20
32.761526
 30
0.0
 10
2.297065
 20
33.067582
 30
0.0
 10
2.170131
 20
33.374626
 30
0.0
 10
1.863995
 20
33.501691
 30
0.0
 10
1.557289
 20
33.374547
 30
0.0
 10
1.430095
 20
33.067582
 30
0.0
 10
1.557211
 20
32.761526
 30
0.0
 10
1.863995
 20
32.634512
 30
0.0
 10
2.170209
 20
32.761526
 30
0.0
 10
2.297065
 20
33.067582
 30
0.0
 10
2.170131
 20
33.374626
 30
0.0
 10
1.863995
 20
33.501691
 30
0.0
 10
1.557289
 20
33.374547
 30
0.0
 10
1.430095
 20
33.067582
 30
0.0
 10
1.557211
 20
32.761526
 30
0.0
 10
1.863995
 20
32.634512
 30
0.0
  0
LWPOLYLINE
  5
102
100
AcDbEntity
  8
bolinhas
 62
7
100
AcDbPolyline
 90
17
 70
0
 10
38.902064
 20
35.189171
 30
0.0
 10
39.209288
 20
35.315973
 30
0.0
 10
39.336378
 20
35.622447
 30
0.0
 10
39.209288
 20
35.929411
 30
0.0
 10
38.902064
 20
36.056555
 30
0.0
 10
38.595539
 20
35.929411
 30
0.0
 10
38.468373
 20
35.622447
 30
0.0
 10
38.595539
 20
35.315897
 30
0.0
 10
38.902064
 20
35.189171
 30
0.0
 10
39.209288
 20
35.315973
 30
0.0
 10
39.336378
 20
35.622447
 30
0.0
 10
39.209288
 20
35.929411
 30
0.0
 10
38.902064
 20
36.056555
 30
0.0
 10
38.595539
 20
35.929411
 30
0.0
 10
38.468373
 20
35.622447
 30
0.0
 10
38.595539
 20
35.315897
 30
0.0
 10
38.902064
 20
35.189171
 30
0.0
  0
LWPOLYLINE
  5
103
100
AcDbEntity
  8
bolinhas
 62
7
100
AcDbPolyline
 90
17
 70
0
 10
3.141220
 20
35.189171
 30
0.0
 10
3.447433
 20
35.315973
 30
0.0
 10
3.574290
 20
35.622447
 30
0.0
 10
3.447356
 20
35.929411
 30
0.0
 10
3.141220
 20
36.056555
 30
0.0
 10
2.834514
 20
35.929411
 30
0.0
 10
2.707320
 20
35.622447
 30
0.0
 10
2.834514
 20
35.315897
 30
0.0
 10
3.141220
 20
35.189171
 30
0.0
 10
3.447433
 20
35.315973
 30
0.0
 10
3.574290
 20
35.622447
 30
0.0
 10
3.447356
 20
35.929411
 30
0.0
 10
3.141220
 20
36.056555
 30
0.0
 10
2.834514
 20
35.929411
 30
0.0
 10
2.707320
 20
35.622447
 30
0.0
 10
2.834514
 20
35.315897
 30
0.0
 10
3.141220
 20
35.189171
 30
0.0
  0
LWPOLYLINE
  5
104
100
AcDbEntity
  8
bolinhas
 62
7
100
AcDbPolyline
 90
17
 70
0
 10
6.972480
 20
37.743203
 30
0.0
 10
7.278953
 20
37.870192
 30
0.0
 10
7.405757
 20
38.176688
 30
0.0
 10
7.278953
 20
38.483760
 30
0.0
 10
6.972480
 20
38.611002
 30
0.0
 10
6.665877
 20
38.483760
 30
0.0
 10
6.538788
 20
38.176688
 30
0.0
 10
6.665799
 20
37.870113
 30
0.0
 10
6.972480
 20
37.743203
 30
0.0
 10
7.278953
 20
37.870192
 30
0.0
 10
7.405757
 20
38.176688
 30
0.0
 10
7.278953
 20
38.483760
 30
0.0
 10
6.972480
 20
38.611002
 30
0.0
 10
6.665877
 20
38.483760
 30
0.0
 10
6.538788
 20
38.176688
 30
0.0
 10
6.665799
 20
37.870113
 30
0.0
 10
6.972480
 20
37.743203
 30
0.0
  0
LWPOLYLINE
  5
105
100
AcDbEntity
  8
bolinhas
 62
7
100
AcDbPolyline
 90
17
 70
0
 10
4.418445
 20
37.743203
 30
0.0
 10
4.724944
 20
37.870192
 30
0.0
 10
4.851930
 20
38.176688
 30
0.0
 10
4.724866
 20
38.483760
 30
0.0
 10
4.418445
 20
38.611002
 30
0.0
 10
4.111739
 20
38.483760
 30
0.0
 10
3.984545
 20
38.176688
 30
0.0
 10
4.111739
 20
37.870113
 30
0.0
 10
4.418445
 20
37.743203
 30
0.0
 10
4.724944
 20
37.870192
 30
0.0
 10
4.851930
 20
38.176688
 30
0.0
 10
4.724866
 20
38.483760
 30
0.0
 10
4.418445
 20
38.611002
 30
0.0
 10
4.111739
 20
38.483760
 30
0.0
 10
3.984545
 20
38.176688
 30
0.0
 10
4.111739
 20
37.870113
 30
0.0
 10
4.418445
 20
37.743203
 30
0.0
  0
LWPOLYLINE
  5
106
100
AcDbEntity
  8
bolinhas
 62
7
100
AcDbPolyline
 90
17
 70
0
 10
40.179083
 20
37.743203
 30
0.0
 10
40.485838
 20
37.870192
 30
0.0
 10
40.612774
 20
38.176688
 30
0.0
 10
40.485838
 20
38.483760
 30
0.0
 10
40.179083
 20
38.611002
 30
0.0
 10
39.872739
 20
38.483760
 30
0.0
 10
39.745598
 20
38.176688
 30
0.0
 10
39.872739
 20
37.870113
 30
0.0
 10
40.179083
 20
37.743203
 30
0.0
 10
40.485838
 20
37.870192
 30
0.0
 10
40.612774
 20
38.176688
 30
0.0
 10
40.485838
 20
38.483760
 30
0.0
 10
40.179083
 20
38.611002
 30
0.0
 10
39.872739
 20
38.483760
 30
0.0
 10
39.745598
 20
38.176688
 30
0.0
 10
39.872739
 20
37.870113
 30
0.0
 10
40.179083
 20
37.743203
 30
0.0
  0
LWPOLYLINE
  5
107
100
AcDbEntity
  8
bolinhas
 62
7
100
AcDbPolyline
 90
17
 70
0
 10
37.624839
 20
37.743203
 30
0.0
 10
37.932063
 20
37.870192
 30
0.0
 10
38.059153
 20
38.176688
 30
0.0
 10
37.932063
 20
38.483760
 30
0.0
 10
37.624839
 20
38.611002
 30
0.0
 10
37.318315
 20
38.483760
 30
0.0
 10
37.191148
 20
38.176688
 30
0.0
 10
37.318238
 20
37.870113
 30
0.0
 10
37.624839
 20
37.743203
 30
0.0
 10
37.932063
 20
37.870192
 30
0.0
 10
38.059153
 20
38.176688
 30
0.0
 10
37.932063
 20
38.483760
 30
0.0
 10
37.624839
 20
38.611002
 30
0.0
 10
37.318315
 20
38.483760
 30
0.0
 10
37.191148
 20
38.176688
 30
0.0
 10
37.318238
 20
37.870113
 30
0.0
 10
37.624839
 20
37.743203
 30
0.0
  0
LWPOLYLINE
  5
108
100
AcDbEntity
  8
bolinhas
 62
7
100
AcDbPolyline
 90
17
 70
0
 10
35.070389
 20
37.743203
 30
0.0
 10
35.376993
 20
37.870192
 30
0.0
 10
35.504083
 20
38.176688
 30
0.0
 10
35.376993
 20
38.483760
 30
0.0
 10
35.070389
 20
38.611002
 30
0.0
 10
34.763890
 20
38.483760
 30
0.0
 10
34.636904
 20
38.176688
 30
0.0
 10
34.763890
 20
37.870113
 30
0.0
 10
35.070389
 20
37.743203
 30
0.0
 10
35.376993
 20
37.870192
 30
0.0
 10
35.504083
 20
38.176688
 30
0.0
 10
35.376993
 20
38.483760
 30
0.0
 10
35.070389
 20
38.611002
 30
0.0
 10
34.763890
 20
38.483760
 30
0.0
 10
34.636904
 20
38.176688
 30
0.0
 10
34.763890
 20
37.870113
 30
0.0
 10
35.070389
 20
37.743203
 30
0.0
  0
LWPOLYLINE
  5
109
100
AcDbEntity
  8
bolinhas
 62
7
100
AcDbPolyline
 90
17
 70
0
 10
1.863995
 20
37.743203
 30
0.0
 10
2.170209
 20
37.870192
 30
0.0
 10
2.297065
 20
38.176688
 30
0.0
 10
2.170131
 20
38.483760
 30
0.0
 10
1.863995
 20
38.611002
 30
0.0
 10
1.557289
 20
38.483760
 30
0.0
 10
1.430095
 20
38.176688
 30
0.0
 10
1.557211
 20
37.870113
 30
0.0
 10
1.863995
 20
37.743203
 30
0.0
 10
2.170209
 20
37.870192
 30
0.0
 10
2.297065
 20
38.176688
 30
0.0
 10
2.170131
 20
38.483760
 30
0.0
 10
1.863995
 20
38.611002
 30
0.0
 10
1.557289
 20
38.483760
 30
0.0
 10
1.430095
 20
38.176688
 30
0.0
 10
1.557211
 20
37.870113
 30
0.0
 10
1.863995
 20
37.743203
 30
0.0
  0
LWPOLYLINE
  5
10a
100
AcDbEntity
  8
bolinhas
 62
7
100
AcDbPolyline
 90
17
 70
0
 10
10.803947
 20
40.297861
 30
0.0
 10
11.110627
 20
40.424952
 30
0.0
 10
11.237639
 20
40.731552
 30
0.0
 10
11.110627
 20
41.038235
 30
0.0
 10
10.803947
 20
41.165246
 30
0.0
 10
10.497293
 20
41.038235
 30
0.0
 10
10.370462
 20
40.731552
 30
0.0
 10
10.497293
 20
40.424952
 30
0.0
 10
10.803947
 20
40.297861
 30
0.0
 10
11.110627
 20
40.424952
 30
0.0
 10
11.237639
 20
40.731552
 30
0.0
 10
11.110627
 20
41.038235
 30
0.0
 10
10.803947
 20
41.165246
 30
0.0
 10
10.497293
 20
41.038235
 30
0.0
 10
10.370462
 20
40.731552
 30
0.0
 10
10.497293
 20
40.424952
 30
0.0
 10
10.803947
 20
40.297861
 30
0.0
  0
LWPOLYLINE
  5
10b
100
AcDbEntity
  8
bolinhas
 62
7
100
AcDbPolyline
 90
17
 70
0
 10
8.249704
 20
40.297861
 30
0.0
 10
8.556281
 20
40.424952
 30
0.0
 10
8.683189
 20
40.731552
 30
0.0
 10
8.556281
 20
41.038235
 30
0.0
 10
8.249704
 20
41.165246
 30
0.0
 10
7.943102
 20
41.038235
 30
0.0
 10
7.816012
 20
40.731552
 30
0.0
 10
7.943024
 20
40.424952
 30
0.0
 10
8.249704
 20
40.297861
 30
0.0
 10
8.556281
 20
40.424952
 30
0.0
 10
8.683189
 20
40.731552
 30
0.0
 10
8.556281
 20
41.038235
 30
0.0
 10
8.249704
 20
41.165246
 30
0.0
 10
7.943102
 20
41.038235
 30
0.0
 10
7.816012
 20
40.731552
 30
0.0
 10
7.943024
 20
40.424952
 30
0.0
 10
8.249704
 20
40.297861
 30
0.0
  0
LWPOLYLINE
  5
10c
100
AcDbEntity
  8
bolinhas
 62
7
100
AcDbPolyline
 90
17
 70
0
 10
5.695462
 20
40.297861
 30
0.0
 10
6.002246
 20
40.424952
 30
0.0
 10
6.129362
 20
40.731552
 30
0.0
 10
6.002168
 20
41.038235
 30
0.0
 10
5.695462
 20
41.165246
 30
0.0
 10
5.388600
 20
41.038235
 30
0.0
 10
5.261563
 20
40.731552
 30
0.0
 10
5.388600
 20
40.424952
 30
0.0
 10
5.695462
 20
40.297861
 30
0.0
 10
6.002246
 20
40.424952
 30
0.0
 10
6.129362
 20
40.731552
 30
0.0
 10
6.002168
 20
41.038235
 30
0.0
 10
5.695462
 20
41.165246
 30
0.0
 10
5.388600
 20
41.038235
 30
0.0
 10
5.261563
 20
40.731552
 30
0.0
 10
5.388600
 20
40.424952
 30
0.0
 10
5.695462
 20
40.297861
 30
0.0
  0
LWPOLYLINE
  5
10d
100
AcDbEntity
  8
bolinhas
 62
7
100
AcDbPolyline
 90
17
 70
0
 10
38.902064
 20
40.297861
 30
0.0
 10
39.209288
 20
40.424952
 30
0.0
 10
39.336378
 20
40.731552
 30
0.0
 10
39.209288
 20
41.038235
 30
0.0
 10
38.902064
 20
41.165246
 30
0.0
 10
38.595539
 20
41.038235
 30
0.0
 10
38.468373
 20
40.731552
 30
0.0
 10
38.595539
 20
40.424952
 30
0.0
 10
38.902064
 20
40.297861
 30
0.0
 10
39.209288
 20
40.424952
 30
0.0
 10
39.336378
 20
40.731552
 30
0.0
 10
39.209288
 20
41.038235
 30
0.0
 10
38.902064
 20
41.165246
 30
0.0
 10
38.595539
 20
41.038235
 30
0.0
 10
38.468373
 20
40.731552
 30
0.0
 10
38.595539
 20
40.424952
 30
0.0
 10
38.902064
 20
40.297861
 30
0.0
  0
LWPOLYLINE
  5
10e
100
AcDbEntity
  8
bolinhas
 62
7
100
AcDbPolyline
 90
17
 70
0
 10
36.347614
 20
40.297861
 30
0.0
 10
36.654217
 20
40.424952
 30
0.0
 10
36.781308
 20
40.731552
 30
0.0
 10
36.654217
 20
41.038235
 30
0.0
 10
36.347614
 20
41.165246
 30
0.0
 10
36.040985
 20
41.038235
 30
0.0
 10
35.913714
 20
40.731552
 30
0.0
 10
36.041064
 20
40.424952
 30
0.0
 10
36.347614
 20
40.297861
 30
0.0
 10
36.654217
 20
40.424952
 30
0.0
 10
36.781308
 20
40.731552
 30
0.0
 10
36.654217
 20
41.038235
 30
0.0
 10
36.347614
 20
41.165246
 30
0.0
 10
36.040985
 20
41.038235
 30
0.0
 10
35.913714
 20
40.731552
 30
0.0
 10
36.041064
 20
40.424952
 30
0.0
 10
36.347614
 20
40.297861
 30
0.0
  0
LWPOLYLINE
  5
10f
100
AcDbEntity
  8
bolinhas
 62
7
100
AcDbPolyline
 90
17
 70
0
 10
33.793164
 20
40.297861
 30
0.0
 10
34.099974
 20
40.424952
 30
0.0
 10
34.227273
 20
40.731552
 30
0.0
 10
34.100053
 20
41.038235
 30
0.0
 10
33.793164
 20
41.165246
 30
0.0
 10
33.486586
 20
41.038235
 30
0.0
 10
33.359679
 20
40.731552
 30
0.0
 10
33.486665
 20
40.424952
 30
0.0
 10
33.793164
 20
40.297861
 30
0.0
 10
34.099974
 20
40.424952
 30
0.0
 10
34.227273
 20
40.731552
 30
0.0
 10
34.100053
 20
41.038235
 30
0.0
 10
33.793164
 20
41.165246
 30
0.0
 10
33.486586
 20
41.038235
 30
0.0
 10
33.359679
 20
40.731552
 30
0.0
 10
33.486665
 20
40.424952
 30
0.0
 10
33.793164
 20
40.297861
 30
0.0
  0
LWPOLYLINE
  5
110
100
AcDbEntity
  8
bolinhas
 62
7
100
AcDbPolyline
 90
17
 70
0
 10
31.238923
 20
40.297861
 30
0.0
 10
31.545837
 20
40.424952
 30
0.0
 10
31.673238
 20
40.731552
 30
0.0
 10
31.545913
 20
41.038235
 30
0.0
 10
31.238923
 20
41.165246
 30
0.0
 10
30.932241
 20
41.038235
 30
0.0
 10
30.805230
 20
40.731552
 30
0.0
 10
30.932241
 20
40.424952
 30
0.0
 10
31.238923
 20
40.297861
 30
0.0
 10
31.545837
 20
40.424952
 30
0.0
 10
31.673238
 20
40.731552
 30
0.0
 10
31.545913
 20
41.038235
 30
0.0
 10
31.238923
 20
41.165246
 30
0.0
 10
30.932241
 20
41.038235
 30
0.0
 10
30.805230
 20
40.731552
 30
0.0
 10
30.932241
 20
40.424952
 30
0.0
 10
31.238923
 20
40.297861
 30
0.0
  0
LWPOLYLINE
  5
111
100
AcDbEntity
  8
bolinhas
 62
7
100
AcDbPolyline
 90
17
 70
0
 10
3.141220
 20
40.297861
 30
0.0
 10
3.447433
 20
40.424952
 30
0.0
 10
3.574290
 20
40.731552
 30
0.0
 10
3.447356
 20
41.038235
 30
0.0
 10
3.141220
 20
41.165246
 30
0.0
 10
2.834514
 20
41.038235
 30
0.0
 10
2.707320
 20
40.731552
 30
0.0
 10
2.834514
 20
40.424952
 30
0.0
 10
3.141220
 20
40.297861
 30
0.0
 10
3.447433
 20
40.424952
 30
0.0
 10
3.574290
 20
40.731552
 30
0.0
 10
3.447356
 20
41.038235
 30
0.0
 10
3.141220
 20
41.165246
 30
0.0
 10
2.834514
 20
41.038235
 30
0.0
 10
2.707320
 20
40.731552
 30
0.0
 10
2.834514
 20
40.424952
 30
0.0
 10
3.141220
 20
40.297861
 30
0.0
  0
LWPOLYLINE
  5
112
100
AcDbEntity
  8
bolinhas
 62
7
100
AcDbPolyline
 90
17
 70
0
 10
17.189864
 20
42.852311
 30
0.0
 10
17.496544
 20
42.979323
 30
0.0
 10
17.623556
 20
43.286002
 30
0.0
 10
17.496466
 20
43.593514
 30
0.0
 10
17.189864
 20
43.720732
 30
0.0
 10
16.883547
 20
43.593435
 30
0.0
 10
16.756586
 20
43.286002
 30
0.0
 10
16.883469
 20
42.979246
 30
0.0
 10
17.189864
 20
42.852311
 30
0.0
 10
17.496544
 20
42.979323
 30
0.0
 10
17.623556
 20
43.286002
 30
0.0
 10
17.496466
 20
43.593514
 30
0.0
 10
17.189864
 20
43.720732
 30
0.0
 10
16.883547
 20
43.593435
 30
0.0
 10
16.756586
 20
43.286002
 30
0.0
 10
16.883469
 20
42.979246
 30
0.0
 10
17.189864
 20
42.852311
 30
0.0
  0
LWPOLYLINE
  5
113
100
AcDbEntity
  8
bolinhas
 62
7
100
AcDbPolyline
 90
17
 70
0
 10
14.635621
 20
42.852311
 30
0.0
 10
14.942120
 20
42.979323
 30
0.0
 10
15.069106
 20
43.286002
 30
0.0
 10
14.942120
 20
43.593514
 30
0.0
 10
14.635621
 20
43.720732
 30
0.0
 10
14.328941
 20
43.593435
 30
0.0
 10
14.201929
 20
43.286002
 30
0.0
 10
14.328863
 20
42.979246
 30
0.0
 10
14.635621
 20
42.852311
 30
0.0
 10
14.942120
 20
42.979323
 30
0.0
 10
15.069106
 20
43.286002
 30
0.0
 10
14.942120
 20
43.593514
 30
0.0
 10
14.635621
 20
43.720732
 30
0.0
 10
14.328941
 20
43.593435
 30
0.0
 10
14.201929
 20
43.286002
 30
0.0
 10
14.328863
 20
42.979246
 30
0.0
 10
14.635621
 20
42.852311
 30
0.0
  0
LWPOLYLINE
  5
114
100
AcDbEntity
  8
bolinhas
 62
7
100
AcDbPolyline
 90
17
 70
0
 10
12.080964
 20
42.852311
 30
0.0
 10
12.387826
 20
42.979323
 30
0.0
 10
12.514864
 20
43.286002
 30
0.0
 10
12.387826
 20
43.593514
 30
0.0
 10
12.080964
 20
43.720732
 30
0.0
 10
11.774388
 20
43.593435
 30
0.0
 10
11.647479
 20
43.286002
 30
0.0
 10
11.774466
 20
42.979246
 30
0.0
 10
12.080964
 20
42.852311
 30
0.0
 10
12.387826
 20
42.979323
 30
0.0
 10
12.514864
 20
43.286002
 30
0.0
 10
12.387826
 20
43.593514
 30
0.0
 10
12.080964
 20
43.720732
 30
0.0
 10
11.774388
 20
43.593435
 30
0.0
 10
11.647479
 20
43.286002
 30
0.0
 10
11.774466
 20
42.979246
 30
0.0
 10
12.080964
 20
42.852311
 30
0.0
  0
LWPOLYLINE
  5
115
100
AcDbEntity
  8
bolinhas
 62
7
100
AcDbPolyline
 90
17
 70
0
 10
9.526929
 20
42.852311
 30
0.0
 10
9.833506
 20
42.979323
 30
0.0
 10
9.960414
 20
43.286002
 30
0.0
 10
9.833506
 20
43.593514
 30
0.0
 10
9.526929
 20
43.720732
 30
0.0
 10
9.220327
 20
43.593435
 30
0.0
 10
9.093237
 20
43.286002
 30
0.0
 10
9.220327
 20
42.979246
 30
0.0
 10
9.526929
 20
42.852311
 30
0.0
 10
9.833506
 20
42.979323
 30
0.0
 10
9.960414
 20
43.286002
 30
0.0
 10
9.833506
 20
43.593514
 30
0.0
 10
9.526929
 20
43.720732
 30
0.0
 10
9.220327
 20
43.593435
 30
0.0
 10
9.093237
 20
43.286002
 30
0.0
 10
9.220327
 20
42.979246
 30
0.0
 10
9.526929
 20
42.852311
 30
0.0
  0
LWPOLYLINE
  5
116
100
AcDbEntity
  8
bolinhas
 62
7
100
AcDbPolyline
 90
17
 70
0
 10
6.972480
 20
42.852311
 30
0.0
 10
7.278953
 20
42.979323
 30
0.0
 10
7.405757
 20
43.286002
 30
0.0
 10
7.278953
 20
43.593514
 30
0.0
 10
6.972480
 20
43.720732
 30
0.0
 10
6.665877
 20
43.593435
 30
0.0
 10
6.538788
 20
43.286002
 30
0.0
 10
6.665799
 20
42.979246
 30
0.0
 10
6.972480
 20
42.852311
 30
0.0
 10
7.278953
 20
42.979323
 30
0.0
 10
7.405757
 20
43.286002
 30
0.0
 10
7.278953
 20
43.593514
 30
0.0
 10
6.972480
 20
43.720732
 30
0.0
 10
6.665877
 20
43.593435
 30
0.0
 10
6.538788
 20
43.286002
 30
0.0
 10
6.665799
 20
42.979246
 30
0.0
 10
6.972480
 20
42.852311
 30
0.0
  0
LWPOLYLINE
  5
117
100
AcDbEntity
  8
bolinhas
 62
7
100
AcDbPolyline
 90
17
 70
0
 10
4.418445
 20
42.852311
 30
0.0
 10
4.724944
 20
42.979323
 30
0.0
 10
4.851930
 20
43.286002
 30
0.0
 10
4.724866
 20
43.593514
 30
0.0
 10
4.418445
 20
43.720732
 30
0.0
 10
4.111739
 20
43.593435
 30
0.0
 10
3.984545
 20
43.286002
 30
0.0
 10
4.111739
 20
42.979246
 30
0.0
 10
4.418445
 20
42.852311
 30
0.0
 10
4.724944
 20
42.979323
 30
0.0
 10
4.851930
 20
43.286002
 30
0.0
 10
4.724866
 20
43.593514
 30
0.0
 10
4.418445
 20
43.720732
 30
0.0
 10
4.111739
 20
43.593435
 30
0.0
 10
3.984545
 20
43.286002
 30
0.0
 10
4.111739
 20
42.979246
 30
0.0
 10
4.418445
 20
42.852311
 30
0.0
  0
LWPOLYLINE
  5
118
100
AcDbEntity
  8
bolinhas
 62
7
100
AcDbPolyline
 90
17
 70
0
 10
40.179083
 20
42.852311
 30
0.0
 10
40.485838
 20
42.979323
 30
0.0
 10
40.612774
 20
43.286002
 30
0.0
 10
40.485838
 20
43.593514
 30
0.0
 10
40.179083
 20
43.720732
 30
0.0
 10
39.872739
 20
43.593435
 30
0.0
 10
39.745598
 20
43.286002
 30
0.0
 10
39.872739
 20
42.979246
 30
0.0
 10
40.179083
 20
42.852311
 30
0.0
 10
40.485838
 20
42.979323
 30
0.0
 10
40.612774
 20
43.286002
 30
0.0
 10
40.485838
 20
43.593514
 30
0.0
 10
40.179083
 20
43.720732
 30
0.0
 10
39.872739
 20
43.593435
 30
0.0
 10
39.745598
 20
43.286002
 30
0.0
 10
39.872739
 20
42.979246
 30
0.0
 10
40.179083
 20
42.852311
 30
0.0
  0
LWPOLYLINE
  5
119
100
AcDbEntity
  8
bolinhas
 62
7
100
AcDbPolyline
 90
17
 70
0
 10
37.624839
 20
42.852311
 30
0.0
 10
37.932063
 20
42.979323
 30
0.0
 10
38.059153
 20
43.286002
 30
0.0
 10
37.932063
 20
43.593514
 30
0.0
 10
37.624839
 20
43.720732
 30
0.0
 10
37.318315
 20
43.593435
 30
0.0
 10
37.191148
 20
43.286002
 30
0.0
 10
37.318238
 20
42.979246
 30
0.0
 10
37.624839
 20
42.852311
 30
0.0
 10
37.932063
 20
42.979323
 30
0.0
 10
38.059153
 20
43.286002
 30
0.0
 10
37.932063
 20
43.593514
 30
0.0
 10
37.624839
 20
43.720732
 30
0.0
 10
37.318315
 20
43.593435
 30
0.0
 10
37.191148
 20
43.286002
 30
0.0
 10
37.318238
 20
42.979246
 30
0.0
 10
37.624839
 20
42.852311
 30
0.0
  0
LWPOLYLINE
  5
11a
100
AcDbEntity
  8
bolinhas
 62
7
100
AcDbPolyline
 90
17
 70
0
 10
35.070389
 20
42.852311
 30
0.0
 10
35.376993
 20
42.979323
 30
0.0
 10
35.504083
 20
43.286002
 30
0.0
 10
35.376993
 20
43.593514
 30
0.0
 10
35.070389
 20
43.720732
 30
0.0
 10
34.763890
 20
43.593435
 30
0.0
 10
34.636904
 20
43.286002
 30
0.0
 10
34.763890
 20
42.979246
 30
0.0
 10
35.070389
 20
42.852311
 30
0.0
 10
35.376993
 20
42.979323
 30
0.0
 10
35.504083
 20
43.286002
 30
0.0
 10
35.376993
 20
43.593514
 30
0.0
 10
35.070389
 20
43.720732
 30
0.0
 10
34.763890
 20
43.593435
 30
0.0
 10
34.636904
 20
43.286002
 30
0.0
 10
34.763890
 20
42.979246
 30
0.0
 10
35.070389
 20
42.852311
 30
0.0
  0
LWPOLYLINE
  5
11b
100
AcDbEntity
  8
bolinhas
 62
7
100
AcDbPolyline
 90
17
 70
0
 10
32.516148
 20
42.852311
 30
0.0
 10
32.822983
 20
42.979323
 30
0.0
 10
32.950463
 20
43.286002
 30
0.0
 10
32.823062
 20
43.593514
 30
0.0
 10
32.516148
 20
43.720732
 30
0.0
 10
32.209545
 20
43.593435
 30
0.0
 10
32.082454
 20
43.286002
 30
0.0
 10
32.209466
 20
42.979246
 30
0.0
 10
32.516148
 20
42.852311
 30
0.0
 10
32.822983
 20
42.979323
 30
0.0
 10
32.950463
 20
43.286002
 30
0.0
 10
32.823062
 20
43.593514
 30
0.0
 10
32.516148
 20
43.720732
 30
0.0
 10
32.209545
 20
43.593435
 30
0.0
 10
32.082454
 20
43.286002
 30
0.0
 10
32.209466
 20
42.979246
 30
0.0
 10
32.516148
 20
42.852311
 30
0.0
  0
LWPOLYLINE
  5
11c
100
AcDbEntity
  8
bolinhas
 62
7
100
AcDbPolyline
 90
17
 70
0
 10
29.961698
 20
42.852311
 30
0.0
 10
30.268508
 20
42.979323
 30
0.0
 10
30.395804
 20
43.286002
 30
0.0
 10
30.268584
 20
43.593514
 30
0.0
 10
29.961698
 20
43.720732
 30
0.0
 10
29.654912
 20
43.593435
 30
0.0
 10
29.527799
 20
43.286002
 30
0.0
 10
29.655070
 20
42.979246
 30
0.0
 10
29.961698
 20
42.852311
 30
0.0
 10
30.268508
 20
42.979323
 30
0.0
 10
30.395804
 20
43.286002
 30
0.0
 10
30.268584
 20
43.593514
 30
0.0
 10
29.961698
 20
43.720732
 30
0.0
 10
29.654912
 20
43.593435
 30
0.0
 10
29.527799
 20
43.286002
 30
0.0
 10
29.655070
 20
42.979246
 30
0.0
 10
29.961698
 20
42.852311
 30
0.0
  0
LWPOLYLINE
  5
11d
100
AcDbEntity
  8
bolinhas
 62
7
100
AcDbPolyline
 90
17
 70
0
 10
27.407248
 20
42.852311
 30
0.0
 10
27.713850
 20
42.979323
 30
0.0
 10
27.840940
 20
43.286002
 30
0.0
 10
27.713850
 20
43.593514
 30
0.0
 10
27.407248
 20
43.720732
 30
0.0
 10
27.100542
 20
43.593435
 30
0.0
 10
26.973348
 20
43.286002
 30
0.0
 10
27.100542
 20
42.979246
 30
0.0
 10
27.407248
 20
42.852311
 30
0.0
 10
27.713850
 20
42.979323
 30
0.0
 10
27.840940
 20
43.286002
 30
0.0
 10
27.713850
 20
43.593514
 30
0.0
 10
27.407248
 20
43.720732
 30
0.0
 10
27.100542
 20
43.593435
 30
0.0
 10
26.973348
 20
43.286002
 30
0.0
 10
27.100542
 20
42.979246
 30
0.0
 10
27.407248
 20
42.852311
 30
0.0
  0
LWPOLYLINE
  5
11e
100
AcDbEntity
  8
bolinhas
 62
7
100
AcDbPolyline
 90
17
 70
0
 10
24.853628
 20
42.852311
 30
0.0
 10
25.160127
 20
42.979323
 30
0.0
 10
25.287113
 20
43.286002
 30
0.0
 10
25.160127
 20
43.593514
 30
0.0
 10
24.853628
 20
43.720732
 30
0.0
 10
24.546611
 20
43.593435
 30
0.0
 10
24.419728
 20
43.286002
 30
0.0
 10
24.546611
 20
42.979246
 30
0.0
 10
24.853628
 20
42.852311
 30
0.0
 10
25.160127
 20
42.979323
 30
0.0
 10
25.287113
 20
43.286002
 30
0.0
 10
25.160127
 20
43.593514
 30
0.0
 10
24.853628
 20
43.720732
 30
0.0
 10
24.546611
 20
43.593435
 30
0.0
 10
24.419728
 20
43.286002
 30
0.0
 10
24.546611
 20
42.979246
 30
0.0
 10
24.853628
 20
42.852311
 30
0.0
  0
LWPOLYLINE
  5
11f
100
AcDbEntity
  8
bolinhas
 62
7
100
AcDbPolyline
 90
17
 70
0
 10
1.863995
 20
42.852311
 30
0.0
 10
2.170209
 20
42.979323
 30
0.0
 10
2.297065
 20
43.286002
 30
0.0
 10
2.170131
 20
43.593514
 30
0.0
 10
1.863995
 20
43.720732
 30
0.0
 10
1.557289
 20
43.593435
 30
0.0
 10
1.430095
 20
43.286002
 30
0.0
 10
1.557211
 20
42.979246
 30
0.0
 10
1.863995
 20
42.852311
 30
0.0
 10
2.170209
 20
42.979323
 30
0.0
 10
2.297065
 20
43.286002
 30
0.0
 10
2.170131
 20
43.593514
 30
0.0
 10
1.863995
 20
43.720732
 30
0.0
 10
1.557289
 20
43.593435
 30
0.0
 10
1.430095
 20
43.286002
 30
0.0
 10
1.557211
 20
42.979246
 30
0.0
 10
1.863995
 20
42.852311
 30
0.0
  0
LWPOLYLINE
  5
120
100
AcDbEntity
  8
bolinhas
 62
7
100
AcDbPolyline
 90
17
 70
0
 10
18.466881
 20
45.408006
 30
0.0
 10
18.773665
 20
45.535071
 30
0.0
 10
18.900781
 20
45.841490
 30
0.0
 10
18.773587
 20
46.148274
 30
0.0
 10
18.466881
 20
46.275390
 30
0.0
 10
18.160486
 20
46.148274
 30
0.0
 10
18.033604
 20
45.841490
 30
0.0
 10
18.160486
 20
45.534991
 30
0.0
 10
18.466881
 20
45.408006
 30
0.0
 10
18.773665
 20
45.535071
 30
0.0
 10
18.900781
 20
45.841490
 30
0.0
 10
18.773587
 20
46.148274
 30
0.0
 10
18.466881
 20
46.275390
 30
0.0
 10
18.160486
 20
46.148274
 30
0.0
 10
18.033604
 20
45.841490
 30
0.0
 10
18.160486
 20
45.534991
 30
0.0
 10
18.466881
 20
45.408006
 30
0.0
  0
LWPOLYLINE
  5
121
100
AcDbEntity
  8
bolinhas
 62
7
100
AcDbPolyline
 90
17
 70
0
 10
15.912846
 20
45.408006
 30
0.0
 10
16.219423
 20
45.535071
 30
0.0
 10
16.346331
 20
45.841490
 30
0.0
 10
16.219345
 20
46.148274
 30
0.0
 10
15.912846
 20
46.275390
 30
0.0
 10
15.606244
 20
46.148274
 30
0.0
 10
15.479154
 20
45.841490
 30
0.0
 10
15.606166
 20
45.534991
 30
0.0
 10
15.912846
 20
45.408006
 30
0.0
 10
16.219423
 20
45.535071
 30
0.0
 10
16.346331
 20
45.841490
 30
0.0
 10
16.219345
 20
46.148274
 30
0.0
 10
15.912846
 20
46.275390
 30
0.0
 10
15.606244
 20
46.148274
 30
0.0
 10
15.479154
 20
45.841490
 30
0.0
 10
15.606166
 20
45.534991
 30
0.0
 10
15.912846
 20
45.408006
 30
0.0
  0
LWPOLYLINE
  5
122
100
AcDbEntity
  8
bolinhas
 62
7
100
AcDbPolyline
 90
17
 70
0
 10
13.358397
 20
45.408006
 30
0.0
 10
13.665077
 20
45.535071
 30
0.0
 10
13.792089
 20
45.841490
 30
0.0
 10
13.665077
 20
46.148274
 30
0.0
 10
13.358397
 20
46.275390
 30
0.0
 10
13.051716
 20
46.148274
 30
0.0
 10
12.924704
 20
45.841490
 30
0.0
 10
13.051639
 20
45.534991
 30
0.0
 10
13.358397
 20
45.408006
 30
0.0
 10
13.665077
 20
45.535071
 30
0.0
 10
13.792089
 20
45.841490
 30
0.0
 10
13.665077
 20
46.148274
 30
0.0
 10
13.358397
 20
46.275390
 30
0.0
 10
13.051716
 20
46.148274
 30
0.0
 10
12.924704
 20
45.841490
 30
0.0
 10
13.051639
 20
45.534991
 30
0.0
 10
13.358397
 20
45.408006
 30
0.0
  0
LWPOLYLINE
  5
123
100
AcDbEntity
  8
bolinhas
 62
7
100
AcDbPolyline
 90
17
 70
0
 10
10.803947
 20
45.408006
 30
0.0
 10
11.110627
 20
45.535071
 30
0.0
 10
11.237639
 20
45.841490
 30
0.0
 10
11.110627
 20
46.148274
 30
0.0
 10
10.803947
 20
46.275390
 30
0.0
 10
10.497293
 20
46.148274
 30
0.0
 10
10.370462
 20
45.841490
 30
0.0
 10
10.497293
 20
45.534991
 30
0.0
 10
10.803947
 20
45.408006
 30
0.0
 10
11.110627
 20
45.535071
 30
0.0
 10
11.237639
 20
45.841490
 30
0.0
 10
11.110627
 20
46.148274
 30
0.0
 10
10.803947
 20
46.275390
 30
0.0
 10
10.497293
 20
46.148274
 30
0.0
 10
10.370462
 20
45.841490
 30
0.0
 10
10.497293
 20
45.534991
 30
0.0
 10
10.803947
 20
45.408006
 30
0.0
  0
LWPOLYLINE
  5
124
100
AcDbEntity
  8
bolinhas
 62
7
100
AcDbPolyline
 90
17
 70
0
 10
8.249704
 20
45.408006
 30
0.0
 10
8.556281
 20
45.535071
 30
0.0
 10
8.683189
 20
45.841490
 30
0.0
 10
8.556281
 20
46.148274
 30
0.0
 10
8.249704
 20
46.275390
 30
0.0
 10
7.943102
 20
46.148274
 30
0.0
 10
7.816012
 20
45.841490
 30
0.0
 10
7.943024
 20
45.534991
 30
0.0
 10
8.249704
 20
45.408006
 30
0.0
 10
8.556281
 20
45.535071
 30
0.0
 10
8.683189
 20
45.841490
 30
0.0
 10
8.556281
 20
46.148274
 30
0.0
 10
8.249704
 20
46.275390
 30
0.0
 10
7.943102
 20
46.148274
 30
0.0
 10
7.816012
 20
45.841490
 30
0.0
 10
7.943024
 20
45.534991
 30
0.0
 10
8.249704
 20
45.408006
 30
0.0
  0
LWPOLYLINE
  5
125
100
AcDbEntity
  8
bolinhas
 62
7
100
AcDbPolyline
 90
17
 70
0
 10
5.695462
 20
45.408006
 30
0.0
 10
6.002246
 20
45.535071
 30
0.0
 10
6.129362
 20
45.841490
 30
0.0
 10
6.002168
 20
46.148274
 30
0.0
 10
5.695462
 20
46.275390
 30
0.0
 10
5.388600
 20
46.148274
 30
0.0
 10
5.261563
 20
45.841490
 30
0.0
 10
5.388600
 20
45.534991
 30
0.0
 10
5.695462
 20
45.408006
 30
0.0
 10
6.002246
 20
45.535071
 30
0.0
 10
6.129362
 20
45.841490
 30
0.0
 10
6.002168
 20
46.148274
 30
0.0
 10
5.695462
 20
46.275390
 30
0.0
 10
5.388600
 20
46.148274
 30
0.0
 10
5.261563
 20
45.841490
 30
0.0
 10
5.388600
 20
45.534991
 30
0.0
 10
5.695462
 20
45.408006
 30
0.0
  0
LWPOLYLINE
  5
126
100
AcDbEntity
  8
bolinhas
 62
7
100
AcDbPolyline
 90
17
 70
0
 10
38.902064
 20
45.408006
 30
0.0
 10
39.209288
 20
45.535071
 30
0.0
 10
39.336378
 20
45.841490
 30
0.0
 10
39.209288
 20
46.148274
 30
0.0
 10
38.902064
 20
46.275390
 30
0.0
 10
38.595539
 20
46.148274
 30
0.0
 10
38.468373
 20
45.841490
 30
0.0
 10
38.595539
 20
45.534991
 30
0.0
 10
38.902064
 20
45.408006
 30
0.0
 10
39.209288
 20
45.535071
 30
0.0
 10
39.336378
 20
45.841490
 30
0.0
 10
39.209288
 20
46.148274
 30
0.0
 10
38.902064
 20
46.275390
 30
0.0
 10
38.595539
 20
46.148274
 30
0.0
 10
38.468373
 20
45.841490
 30
0.0
 10
38.595539
 20
45.534991
 30
0.0
 10
38.902064
 20
45.408006
 30
0.0
  0
LWPOLYLINE
  5
127
100
AcDbEntity
  8
bolinhas
 62
7
100
AcDbPolyline
 90
17
 70
0
 10
36.347614
 20
45.408006
 30
0.0
 10
36.654217
 20
45.535071
 30
0.0
 10
36.781308
 20
45.841490
 30
0.0
 10
36.654217
 20
46.148274
 30
0.0
 10
36.347614
 20
46.275390
 30
0.0
 10
36.040985
 20
46.148274
 30
0.0
 10
35.913714
 20
45.841490
 30
0.0
 10
36.041064
 20
45.534991
 30
0.0
 10
36.347614
 20
45.408006
 30
0.0
 10
36.654217
 20
45.535071
 30
0.0
 10
36.781308
 20
45.841490
 30
0.0
 10
36.654217
 20
46.148274
 30
0.0
 10
36.347614
 20
46.275390
 30
0.0
 10
36.040985
 20
46.148274
 30
0.0
 10
35.913714
 20
45.841490
 30
0.0
 10
36.041064
 20
45.534991
 30
0.0
 10
36.347614
 20
45.408006
 30
0.0
  0
LWPOLYLINE
  5
128
100
AcDbEntity
  8
bolinhas
 62
7
100
AcDbPolyline
 90
17
 70
0
 10
33.793164
 20
45.408006
 30
0.0
 10
34.099974
 20
45.535071
 30
0.0
 10
34.227273
 20
45.841490
 30
0.0
 10
34.100053
 20
46.148274
 30
0.0
 10
33.793164
 20
46.275390
 30
0.0
 10
33.486586
 20
46.148274
 30
0.0
 10
33.359679
 20
45.841490
 30
0.0
 10
33.486665
 20
45.534991
 30
0.0
 10
33.793164
 20
45.408006
 30
0.0
 10
34.099974
 20
45.535071
 30
0.0
 10
34.227273
 20
45.841490
 30
0.0
 10
34.100053
 20
46.148274
 30
0.0
 10
33.793164
 20
46.275390
 30
0.0
 10
33.486586
 20
46.148274
 30
0.0
 10
33.359679
 20
45.841490
 30
0.0
 10
33.486665
 20
45.534991
 30
0.0
 10
33.793164
 20
45.408006
 30
0.0
  0
LWPOLYLINE
  5
129
100
AcDbEntity
  8
bolinhas
 62
7
100
AcDbPolyline
 90
17
 70
0
 10
31.238923
 20
45.408006
 30
0.0
 10
31.545837
 20
45.535071
 30
0.0
 10
31.673238
 20
45.841490
 30
0.0
 10
31.545913
 20
46.148274
 30
0.0
 10
31.238923
 20
46.275390
 30
0.0
 10
30.932241
 20
46.148274
 30
0.0
 10
30.805230
 20
45.841490
 30
0.0
 10
30.932241
 20
45.534991
 30
0.0
 10
31.238923
 20
45.408006
 30
0.0
 10
31.545837
 20
45.535071
 30
0.0
 10
31.673238
 20
45.841490
 30
0.0
 10
31.545913
 20
46.148274
 30
0.0
 10
31.238923
 20
46.275390
 30
0.0
 10
30.932241
 20
46.148274
 30
0.0
 10
30.805230
 20
45.841490
 30
0.0
 10
30.932241
 20
45.534991
 30
0.0
 10
31.238923
 20
45.408006
 30
0.0
  0
LWPOLYLINE
  5
12a
100
AcDbEntity
  8
bolinhas
 62
7
100
AcDbPolyline
 90
17
 70
0
 10
28.684474
 20
45.408006
 30
0.0
 10
28.991074
 20
45.535071
 30
0.0
 10
29.118164
 20
45.841490
 30
0.0
 10
28.991074
 20
46.148274
 30
0.0
 10
28.684474
 20
46.275390
 30
0.0
 10
28.377975
 20
46.148274
 30
0.0
 10
28.250989
 20
45.841490
 30
0.0
 10
28.377975
 20
45.534991
 30
0.0
 10
28.684474
 20
45.408006
 30
0.0
 10
28.991074
 20
45.535071
 30
0.0
 10
29.118164
 20
45.841490
 30
0.0
 10
28.991074
 20
46.148274
 30
0.0
 10
28.684474
 20
46.275390
 30
0.0
 10
28.377975
 20
46.148274
 30
0.0
 10
28.250989
 20
45.841490
 30
0.0
 10
28.377975
 20
45.534991
 30
0.0
 10
28.684474
 20
45.408006
 30
0.0
  0
LWPOLYLINE
  5
12b
100
AcDbEntity
  8
bolinhas
 62
7
100
AcDbPolyline
 90
17
 70
0
 10
26.130645
 20
45.408006
 30
0.0
 10
26.437169
 20
45.535071
 30
0.0
 10
26.564338
 20
45.841490
 30
0.0
 10
26.437169
 20
46.148274
 30
0.0
 10
26.130645
 20
46.275390
 30
0.0
 10
25.823732
 20
46.148274
 30
0.0
 10
25.696953
 20
45.841490
 30
0.0
 10
25.823732
 20
45.534991
 30
0.0
 10
26.130645
 20
45.408006
 30
0.0
 10
26.437169
 20
45.535071
 30
0.0
 10
26.564338
 20
45.841490
 30
0.0
 10
26.437169
 20
46.148274
 30
0.0
 10
26.130645
 20
46.275390
 30
0.0
 10
25.823732
 20
46.148274
 30
0.0
 10
25.696953
 20
45.841490
 30
0.0
 10
25.823732
 20
45.534991
 30
0.0
 10
26.130645
 20
45.408006
 30
0.0
  0
LWPOLYLINE
  5
12c
100
AcDbEntity
  8
bolinhas
 62
7
100
AcDbPolyline
 90
17
 70
0
 10
23.576403
 20
45.408006
 30
0.0
 10
23.883006
 20
45.535071
 30
0.0
 10
24.010095
 20
45.841490
 30
0.0
 10
23.883006
 20
46.148274
 30
0.0
 10
23.576403
 20
46.275390
 30
0.0
 10
23.269490
 20
46.148274
 30
0.0
 10
23.142089
 20
45.841490
 30
0.0
 10
23.269334
 20
45.534991
 30
0.0
 10
23.576403
 20
45.408006
 30
0.0
 10
23.883006
 20
45.535071
 30
0.0
 10
24.010095
 20
45.841490
 30
0.0
 10
23.883006
 20
46.148274
 30
0.0
 10
23.576403
 20
46.275390
 30
0.0
 10
23.269490
 20
46.148274
 30
0.0
 10
23.142089
 20
45.841490
 30
0.0
 10
23.269334
 20
45.534991
 30
0.0
 10
23.576403
 20
45.408006
 30
0.0
  0
LWPOLYLINE
  5
12d
100
AcDbEntity
  8
bolinhas
 62
7
100
AcDbPolyline
 90
17
 70
0
 10
3.141220
 20
45.408006
 30
0.0
 10
3.447433
 20
45.535071
 30
0.0
 10
3.574290
 20
45.841490
 30
0.0
 10
3.447356
 20
46.148274
 30
0.0
 10
3.141220
 20
46.275390
 30
0.0
 10
2.834514
 20
46.148274
 30
0.0
 10
2.707320
 20
45.841490
 30
0.0
 10
2.834514
 20
45.534991
 30
0.0
 10
3.141220
 20
45.408006
 30
0.0
 10
3.447433
 20
45.535071
 30
0.0
 10
3.574290
 20
45.841490
 30
0.0
 10
3.447356
 20
46.148274
 30
0.0
 10
3.141220
 20
46.275390
 30
0.0
 10
2.834514
 20
46.148274
 30
0.0
 10
2.707320
 20
45.841490
 30
0.0
 10
2.834514
 20
45.534991
 30
0.0
 10
3.141220
 20
45.408006
 30
0.0
  0
LWPOLYLINE
  5
12e
100
AcDbEntity
  8
bolinhas
 62
7
100
AcDbPolyline
 90
17
 70
0
 10
19.744106
 20
47.962247
 30
0.0
 10
20.050423
 20
48.089286
 30
0.0
 10
20.177383
 20
48.395525
 30
0.0
 10
20.050423
 20
48.702490
 30
0.0
 10
19.744106
 20
48.829631
 30
0.0
 10
19.437711
 20
48.702414
 30
0.0
 10
19.310828
 20
48.395525
 30
0.0
 10
19.437711
 20
48.089286
 30
0.0
 10
19.744106
 20
47.962247
 30
0.0
 10
20.050423
 20
48.089286
 30
0.0
 10
20.177383
 20
48.395525
 30
0.0
 10
20.050423
 20
48.702490
 30
0.0
 10
19.744106
 20
48.829631
 30
0.0
 10
19.437711
 20
48.702414
 30
0.0
 10
19.310828
 20
48.395525
 30
0.0
 10
19.437711
 20
48.089286
 30
0.0
 10
19.744106
 20
47.962247
 30
0.0
  0
LWPOLYLINE
  5
12f
100
AcDbEntity
  8
bolinhas
 62
7
100
AcDbPolyline
 90
17
 70
0
 10
17.189864
 20
47.962247
 30
0.0
 10
17.496544
 20
48.089286
 30
0.0
 10
17.623556
 20
48.395525
 30
0.0
 10
17.496466
 20
48.702490
 30
0.0
 10
17.189864
 20
48.829631
 30
0.0
 10
16.883547
 20
48.702414
 30
0.0
 10
16.756586
 20
48.395525
 30
0.0
 10
16.883469
 20
48.089286
 30
0.0
 10
17.189864
 20
47.962247
 30
0.0
 10
17.496544
 20
48.089286
 30
0.0
 10
17.623556
 20
48.395525
 30
0.0
 10
17.496466
 20
48.702490
 30
0.0
 10
17.189864
 20
48.829631
 30
0.0
 10
16.883547
 20
48.702414
 30
0.0
 10
16.756586
 20
48.395525
 30
0.0
 10
16.883469
 20
48.089286
 30
0.0
 10
17.189864
 20
47.962247
 30
0.0
  0
LWPOLYLINE
  5
130
100
AcDbEntity
  8
bolinhas
 62
7
100
AcDbPolyline
 90
17
 70
0
 10
14.635621
 20
47.962247
 30
0.0
 10
14.942120
 20
48.089286
 30
0.0
 10
15.069106
 20
48.395525
 30
0.0
 10
14.942120
 20
48.702490
 30
0.0
 10
14.635621
 20
48.829631
 30
0.0
 10
14.328941
 20
48.702414
 30
0.0
 10
14.201929
 20
48.395525
 30
0.0
 10
14.328863
 20
48.089286
 30
0.0
 10
14.635621
 20
47.962247
 30
0.0
 10
14.942120
 20
48.089286
 30
0.0
 10
15.069106
 20
48.395525
 30
0.0
 10
14.942120
 20
48.702490
 30
0.0
 10
14.635621
 20
48.829631
 30
0.0
 10
14.328941
 20
48.702414
 30
0.0
 10
14.201929
 20
48.395525
 30
0.0
 10
14.328863
 20
48.089286
 30
0.0
 10
14.635621
 20
47.962247
 30
0.0
  0
LWPOLYLINE
  5
131
100
AcDbEntity
  8
bolinhas
 62
7
100
AcDbPolyline
 90
17
 70
0
 10
12.080964
 20
47.962247
 30
0.0
 10
12.387826
 20
48.089286
 30
0.0
 10
12.514864
 20
48.395525
 30
0.0
 10
12.387826
 20
48.702490
 30
0.0
 10
12.080964
 20
48.829631
 30
0.0
 10
11.774388
 20
48.702414
 30
0.0
 10
11.647479
 20
48.395525
 30
0.0
 10
11.774466
 20
48.089286
 30
0.0
 10
12.080964
 20
47.962247
 30
0.0
 10
12.387826
 20
48.089286
 30
0.0
 10
12.514864
 20
48.395525
 30
0.0
 10
12.387826
 20
48.702490
 30
0.0
 10
12.080964
 20
48.829631
 30
0.0
 10
11.774388
 20
48.702414
 30
0.0
 10
11.647479
 20
48.395525
 30
0.0
 10
11.774466
 20
48.089286
 30
0.0
 10
12.080964
 20
47.962247
 30
0.0
  0
LWPOLYLINE
  5
132
100
AcDbEntity
  8
bolinhas
 62
7
100
AcDbPolyline
 90
17
 70
0
 10
9.526929
 20
47.962247
 30
0.0
 10
9.833506
 20
48.089286
 30
0.0
 10
9.960414
 20
48.395525
 30
0.0
 10
9.833506
 20
48.702490
 30
0.0
 10
9.526929
 20
48.829631
 30
0.0
 10
9.220327
 20
48.702414
 30
0.0
 10
9.093237
 20
48.395525
 30
0.0
 10
9.220327
 20
48.089286
 30
0.0
 10
9.526929
 20
47.962247
 30
0.0
 10
9.833506
 20
48.089286
 30
0.0
 10
9.960414
 20
48.395525
 30
0.0
 10
9.833506
 20
48.702490
 30
0.0
 10
9.526929
 20
48.829631
 30
0.0
 10
9.220327
 20
48.702414
 30
0.0
 10
9.093237
 20
48.395525
 30
0.0
 10
9.220327
 20
48.089286
 30
0.0
 10
9.526929
 20
47.962247
 30
0.0
  0
LWPOLYLINE
  5
133
100
AcDbEntity
  8
bolinhas
 62
7
100
AcDbPolyline
 90
17
 70
0
 10
6.972480
 20
47.962247
 30
0.0
 10
7.278953
 20
48.089286
 30
0.0
 10
7.405757
 20
48.395525
 30
0.0
 10
7.278953
 20
48.702490
 30
0.0
 10
6.972480
 20
48.829631
 30
0.0
 10
6.665877
 20
48.702414
 30
0.0
 10
6.538788
 20
48.395525
 30
0.0
 10
6.665799
 20
48.089286
 30
0.0
 10
6.972480
 20
47.962247
 30
0.0
 10
7.278953
 20
48.089286
 30
0.0
 10
7.405757
 20
48.395525
 30
0.0
 10
7.278953
 20
48.702490
 30
0.0
 10
6.972480
 20
48.829631
 30
0.0
 10
6.665877
 20
48.702414
 30
0.0
 10
6.538788
 20
48.395525
 30
0.0
 10
6.665799
 20
48.089286
 30
0.0
 10
6.972480
 20
47.962247
 30
0.0
  0
LWPOLYLINE
  5
134
100
AcDbEntity
  8
bolinhas
 62
7
100
AcDbPolyline
 90
17
 70
0
 10
4.418445
 20
47.962247
 30
0.0
 10
4.724944
 20
48.089286
 30
0.0
 10
4.851930
 20
48.395525
 30
0.0
 10
4.724866
 20
48.702490
 30
0.0
 10
4.418445
 20
48.829631
 30
0.0
 10
4.111739
 20
48.702414
 30
0.0
 10
3.984545
 20
48.395525
 30
0.0
 10
4.111739
 20
48.089286
 30
0.0
 10
4.418445
 20
47.962247
 30
0.0
 10
4.724944
 20
48.089286
 30
0.0
 10
4.851930
 20
48.395525
 30
0.0
 10
4.724866
 20
48.702490
 30
0.0
 10
4.418445
 20
48.829631
 30
0.0
 10
4.111739
 20
48.702414
 30
0.0
 10
3.984545
 20
48.395525
 30
0.0
 10
4.111739
 20
48.089286
 30
0.0
 10
4.418445
 20
47.962247
 30
0.0
  0
LWPOLYLINE
  5
135
100
AcDbEntity
  8
bolinhas
 62
7
100
AcDbPolyline
 90
17
 70
0
 10
40.179083
 20
47.962247
 30
0.0
 10
40.485838
 20
48.089286
 30
0.0
 10
40.612774
 20
48.395525
 30
0.0
 10
40.485838
 20
48.702490
 30
0.0
 10
40.179083
 20
48.829631
 30
0.0
 10
39.872739
 20
48.702414
 30
0.0
 10
39.745598
 20
48.395525
 30
0.0
 10
39.872739
 20
48.089286
 30
0.0
 10
40.179083
 20
47.962247
 30
0.0
 10
40.485838
 20
48.089286
 30
0.0
 10
40.612774
 20
48.395525
 30
0.0
 10
40.485838
 20
48.702490
 30
0.0
 10
40.179083
 20
48.829631
 30
0.0
 10
39.872739
 20
48.702414
 30
0.0
 10
39.745598
 20
48.395525
 30
0.0
 10
39.872739
 20
48.089286
 30
0.0
 10
40.179083
 20
47.962247
 30
0.0
  0
LWPOLYLINE
  5
136
100
AcDbEntity
  8
bolinhas
 62
7
100
AcDbPolyline
 90
17
 70
0
 10
37.624839
 20
47.962247
 30
0.0
 10
37.932063
 20
48.089286
 30
0.0
 10
38.059153
 20
48.395525
 30
0.0
 10
37.932063
 20
48.702490
 30
0.0
 10
37.624839
 20
48.829631
 30
0.0
 10
37.318315
 20
48.702414
 30
0.0
 10
37.191148
 20
48.395525
 30
0.0
 10
37.318238
 20
48.089286
 30
0.0
 10
37.624839
 20
47.962247
 30
0.0
 10
37.932063
 20
48.089286
 30
0.0
 10
38.059153
 20
48.395525
 30
0.0
 10
37.932063
 20
48.702490
 30
0.0
 10
37.624839
 20
48.829631
 30
0.0
 10
37.318315
 20
48.702414
 30
0.0
 10
37.191148
 20
48.395525
 30
0.0
 10
37.318238
 20
48.089286
 30
0.0
 10
37.624839
 20
47.962247
 30
0.0
  0
LWPOLYLINE
  5
137
100
AcDbEntity
  8
bolinhas
 62
7
100
AcDbPolyline
 90
17
 70
0
 10
35.070389
 20
47.962247
 30
0.0
 10
35.376993
 20
48.089286
 30
0.0
 10
35.504083
 20
48.395525
 30
0.0
 10
35.376993
 20
48.702490
 30
0.0
 10
35.070389
 20
48.829631
 30
0.0
 10
34.763890
 20
48.702414
 30
0.0
 10
34.636904
 20
48.395525
 30
0.0
 10
34.763890
 20
48.089286
 30
0.0
 10
35.070389
 20
47.962247
 30
0.0
 10
35.376993
 20
48.089286
 30
0.0
 10
35.504083
 20
48.395525
 30
0.0
 10
35.376993
 20
48.702490
 30
0.0
 10
35.070389
 20
48.829631
 30
0.0
 10
34.763890
 20
48.702414
 30
0.0
 10
34.636904
 20
48.395525
 30
0.0
 10
34.763890
 20
48.089286
 30
0.0
 10
35.070389
 20
47.962247
 30
0.0
  0
LWPOLYLINE
  5
138
100
AcDbEntity
  8
bolinhas
 62
7
100
AcDbPolyline
 90
17
 70
0
 10
32.516148
 20
47.962247
 30
0.0
 10
32.822983
 20
48.089286
 30
0.0
 10
32.950463
 20
48.395525
 30
0.0
 10
32.823062
 20
48.702490
 30
0.0
 10
32.516148
 20
48.829631
 30
0.0
 10
32.209545
 20
48.702414
 30
0.0
 10
32.082454
 20
48.395525
 30
0.0
 10
32.209466
 20
48.089286
 30
0.0
 10
32.516148
 20
47.962247
 30
0.0
 10
32.822983
 20
48.089286
 30
0.0
 10
32.950463
 20
48.395525
 30
0.0
 10
32.823062
 20
48.702490
 30
0.0
 10
32.516148
 20
48.829631
 30
0.0
 10
32.209545
 20
48.702414
 30
0.0
 10
32.082454
 20
48.395525
 30
0.0
 10
32.209466
 20
48.089286
 30
0.0
 10
32.516148
 20
47.962247
 30
0.0
  0
LWPOLYLINE
  5
139
100
AcDbEntity
  8
bolinhas
 62
7
100
AcDbPolyline
 90
17
 70
0
 10
29.961698
 20
47.962247
 30
0.0
 10
30.268508
 20
48.089286
 30
0.0
 10
30.395804
 20
48.395525
 30
0.0
 10
30.268584
 20
48.702490
 30
0.0
 10
29.961698
 20
48.829631
 30
0.0
 10
29.654912
 20
48.702414
 30
0.0
 10
29.527799
 20
48.395525
 30
0.0
 10
29.655070
 20
48.089286
 30
0.0
 10
29.961698
 20
47.962247
 30
0.0
 10
30.268508
 20
48.089286
 30
0.0
 10
30.395804
 20
48.395525
 30
0.0
 10
30.268584
 20
48.702490
 30
0.0
 10
29.961698
 20
48.829631
 30
0.0
 10
29.654912
 20
48.702414
 30
0.0
 10
29.527799
 20
48.395525
 30
0.0
 10
29.655070
 20
48.089286
 30
0.0
 10
29.961698
 20
47.962247
 30
0.0
  0
LWPOLYLINE
  5
13a
100
AcDbEntity
  8
bolinhas
 62
7
100
AcDbPolyline
 90
17
 70
0
 10
27.407248
 20
47.962247
 30
0.0
 10
27.713850
 20
48.089286
 30
0.0
 10
27.840940
 20
48.395525
 30
0.0
 10
27.713850
 20
48.702490
 30
0.0
 10
27.407248
 20
48.829631
 30
0.0
 10
27.100542
 20
48.702414
 30
0.0
 10
26.973348
 20
48.395525
 30
0.0
 10
27.100542
 20
48.089286
 30
0.0
 10
27.407248
 20
47.962247
 30
0.0
 10
27.713850
 20
48.089286
 30
0.0
 10
27.840940
 20
48.395525
 30
0.0
 10
27.713850
 20
48.702490
 30
0.0
 10
27.407248
 20
48.829631
 30
0.0
 10
27.100542
 20
48.702414
 30
0.0
 10
26.973348
 20
48.395525
 30
0.0
 10
27.100542
 20
48.089286
 30
0.0
 10
27.407248
 20
47.962247
 30
0.0
  0
LWPOLYLINE
  5
13b
100
AcDbEntity
  8
bolinhas
 62
7
100
AcDbPolyline
 90
17
 70
0
 10
24.853628
 20
47.962247
 30
0.0
 10
25.160127
 20
48.089286
 30
0.0
 10
25.287113
 20
48.395525
 30
0.0
 10
25.160127
 20
48.702490
 30
0.0
 10
24.853628
 20
48.829631
 30
0.0
 10
24.546611
 20
48.702414
 30
0.0
 10
24.419728
 20
48.395525
 30
0.0
 10
24.546611
 20
48.089286
 30
0.0
 10
24.853628
 20
47.962247
 30
0.0
 10
25.160127
 20
48.089286
 30
0.0
 10
25.287113
 20
48.395525
 30
0.0
 10
25.160127
 20
48.702490
 30
0.0
 10
24.853628
 20
48.829631
 30
0.0
 10
24.546611
 20
48.702414
 30
0.0
 10
24.419728
 20
48.395525
 30
0.0
 10
24.546611
 20
48.089286
 30
0.0
 10
24.853628
 20
47.962247
 30
0.0
  0
LWPOLYLINE
  5
13c
100
AcDbEntity
  8
bolinhas
 62
7
100
AcDbPolyline
 90
17
 70
0
 10
22.299178
 20
47.962247
 30
0.0
 10
22.605677
 20
48.089286
 30
0.0
 10
22.732663
 20
48.395525
 30
0.0
 10
22.605677
 20
48.702490
 30
0.0
 10
22.299178
 20
48.829631
 30
0.0
 10
21.992369
 20
48.702414
 30
0.0
 10
21.865071
 20
48.395525
 30
0.0
 10
21.992213
 20
48.089286
 30
0.0
 10
22.299178
 20
47.962247
 30
0.0
 10
22.605677
 20
48.089286
 30
0.0
 10
22.732663
 20
48.395525
 30
0.0
 10
22.605677
 20
48.702490
 30
0.0
 10
22.299178
 20
48.829631
 30
0.0
 10
21.992369
 20
48.702414
 30
0.0
 10
21.865071
 20
48.395525
 30
0.0
 10
21.992213
 20
48.089286
 30
0.0
 10
22.299178
 20
47.962247
 30
0.0
  0
LWPOLYLINE
  5
13d
100
AcDbEntity
  8
bolinhas
 62
7
100
AcDbPolyline
 90
17
 70
0
 10
1.863995
 20
47.962247
 30
0.0
 10
2.170209
 20
48.089286
 30
0.0
 10
2.297065
 20
48.395525
 30
0.0
 10
2.170131
 20
48.702490
 30
0.0
 10
1.863995
 20
48.829631
 30
0.0
 10
1.557289
 20
48.702414
 30
0.0
 10
1.430095
 20
48.395525
 30
0.0
 10
1.557211
 20
48.089286
 30
0.0
 10
1.863995
 20
47.962247
 30
0.0
 10
2.170209
 20
48.089286
 30
0.0
 10
2.297065
 20
48.395525
 30
0.0
 10
2.170131
 20
48.702490
 30
0.0
 10
1.863995
 20
48.829631
 30
0.0
 10
1.557289
 20
48.702414
 30
0.0
 10
1.430095
 20
48.395525
 30
0.0
 10
1.557211
 20
48.089286
 30
0.0
 10
1.863995
 20
47.962247
 30
0.0
  0
LWPOLYLINE
  5
13e
100
AcDbEntity
  8
bolinhas
 62
7
100
AcDbPolyline
 90
17
 70
0
 10
21.021331
 20
50.516905
 30
0.0
 10
21.327726
 20
50.643891
 30
0.0
 10
21.454609
 20
50.950390
 30
0.0
 10
21.327726
 20
51.257070
 30
0.0
 10
21.021331
 20
51.384081
 30
0.0
 10
20.714728
 20
51.256991
 30
0.0
 10
20.587638
 20
50.950390
 30
0.0
 10
20.714728
 20
50.643812
 30
0.0
 10
21.021331
 20
50.516905
 30
0.0
 10
21.327726
 20
50.643891
 30
0.0
 10
21.454609
 20
50.950390
 30
0.0
 10
21.327726
 20
51.257070
 30
0.0
 10
21.021331
 20
51.384081
 30
0.0
 10
20.714728
 20
51.256991
 30
0.0
 10
20.587638
 20
50.950390
 30
0.0
 10
20.714728
 20
50.643812
 30
0.0
 10
21.021331
 20
50.516905
 30
0.0
  0
LWPOLYLINE
  5
13f
100
AcDbEntity
  8
bolinhas
 62
7
100
AcDbPolyline
 90
17
 70
0
 10
18.466881
 20
50.516905
 30
0.0
 10
18.773665
 20
50.643891
 30
0.0
 10
18.900781
 20
50.950390
 30
0.0
 10
18.773587
 20
51.257070
 30
0.0
 10
18.466881
 20
51.384081
 30
0.0
 10
18.160486
 20
51.256991
 30
0.0
 10
18.033604
 20
50.950390
 30
0.0
 10
18.160486
 20
50.643812
 30
0.0
 10
18.466881
 20
50.516905
 30
0.0
 10
18.773665
 20
50.643891
 30
0.0
 10
18.900781
 20
50.950390
 30
0.0
 10
18.773587
 20
51.257070
 30
0.0
 10
18.466881
 20
51.384081
 30
0.0
 10
18.160486
 20
51.256991
 30
0.0
 10
18.033604
 20
50.950390
 30
0.0
 10
18.160486
 20
50.643812
 30
0.0
 10
18.466881
 20
50.516905
 30
0.0
  0
LWPOLYLINE
  5
140
100
AcDbEntity
  8
bolinhas
 62
7
100
AcDbPolyline
 90
17
 70
0
 10
15.912846
 20
50.516905
 30
0.0
 10
16.219423
 20
50.643891
 30
0.0
 10
16.346331
 20
50.950390
 30
0.0
 10
16.219345
 20
51.257070
 30
0.0
 10
15.912846
 20
51.384081
 30
0.0
 10
15.606244
 20
51.256991
 30
0.0
 10
15.479154
 20
50.950390
 30
0.0
 10
15.606166
 20
50.643812
 30
0.0
 10
15.912846
 20
50.516905
 30
0.0
 10
16.219423
 20
50.643891
 30
0.0
 10
16.346331
 20
50.950390
 30
0.0
 10
16.219345
 20
51.257070
 30
0.0
 10
15.912846
 20
51.384081
 30
0.0
 10
15.606244
 20
51.256991
 30
0.0
 10
15.479154
 20
50.950390
 30
0.0
 10
15.606166
 20
50.643812
 30
0.0
 10
15.912846
 20
50.516905
 30
0.0
  0
LWPOLYLINE
  5
141
100
AcDbEntity
  8
bolinhas
 62
7
100
AcDbPolyline
 90
17
 70
0
 10
13.358397
 20
50.516905
 30
0.0
 10
13.665077
 20
50.643891
 30
0.0
 10
13.792089
 20
50.950390
 30
0.0
 10
13.665077
 20
51.257070
 30
0.0
 10
13.358397
 20
51.384081
 30
0.0
 10
13.051716
 20
51.256991
 30
0.0
 10
12.924704
 20
50.950390
 30
0.0
 10
13.051639
 20
50.643812
 30
0.0
 10
13.358397
 20
50.516905
 30
0.0
 10
13.665077
 20
50.643891
 30
0.0
 10
13.792089
 20
50.950390
 30
0.0
 10
13.665077
 20
51.257070
 30
0.0
 10
13.358397
 20
51.384081
 30
0.0
 10
13.051716
 20
51.256991
 30
0.0
 10
12.924704
 20
50.950390
 30
0.0
 10
13.051639
 20
50.643812
 30
0.0
 10
13.358397
 20
50.516905
 30
0.0
  0
LWPOLYLINE
  5
142
100
AcDbEntity
  8
bolinhas
 62
7
100
AcDbPolyline
 90
17
 70
0
 10
10.803947
 20
50.516905
 30
0.0
 10
11.110627
 20
50.643891
 30
0.0
 10
11.237639
 20
50.950390
 30
0.0
 10
11.110627
 20
51.257070
 30
0.0
 10
10.803947
 20
51.384081
 30
0.0
 10
10.497293
 20
51.256991
 30
0.0
 10
10.370462
 20
50.950390
 30
0.0
 10
10.497293
 20
50.643812
 30
0.0
 10
10.803947
 20
50.516905
 30
0.0
 10
11.110627
 20
50.643891
 30
0.0
 10
11.237639
 20
50.950390
 30
0.0
 10
11.110627
 20
51.257070
 30
0.0
 10
10.803947
 20
51.384081
 30
0.0
 10
10.497293
 20
51.256991
 30
0.0
 10
10.370462
 20
50.950390
 30
0.0
 10
10.497293
 20
50.643812
 30
0.0
 10
10.803947
 20
50.516905
 30
0.0
  0
LWPOLYLINE
  5
143
100
AcDbEntity
  8
bolinhas
 62
7
100
AcDbPolyline
 90
17
 70
0
 10
8.249704
 20
50.516905
 30
0.0
 10
8.556281
 20
50.643891
 30
0.0
 10
8.683189
 20
50.950390
 30
0.0
 10
8.556281
 20
51.257070
 30
0.0
 10
8.249704
 20
51.384081
 30
0.0
 10
7.943102
 20
51.256991
 30
0.0
 10
7.816012
 20
50.950390
 30
0.0
 10
7.943024
 20
50.643812
 30
0.0
 10
8.249704
 20
50.516905
 30
0.0
 10
8.556281
 20
50.643891
 30
0.0
 10
8.683189
 20
50.950390
 30
0.0
 10
8.556281
 20
51.257070
 30
0.0
 10
8.249704
 20
51.384081
 30
0.0
 10
7.943102
 20
51.256991
 30
0.0
 10
7.816012
 20
50.950390
 30
0.0
 10
7.943024
 20
50.643812
 30
0.0
 10
8.249704
 20
50.516905
 30
0.0
  0
LWPOLYLINE
  5
144
100
AcDbEntity
  8
bolinhas
 62
7
100
AcDbPolyline
 90
17
 70
0
 10
5.695462
 20
50.516905
 30
0.0
 10
6.002246
 20
50.643891
 30
0.0
 10
6.129362
 20
50.950390
 30
0.0
 10
6.002168
 20
51.257070
 30
0.0
 10
5.695462
 20
51.384081
 30
0.0
 10
5.388600
 20
51.256991
 30
0.0
 10
5.261563
 20
50.950390
 30
0.0
 10
5.388600
 20
50.643812
 30
0.0
 10
5.695462
 20
50.516905
 30
0.0
 10
6.002246
 20
50.643891
 30
0.0
 10
6.129362
 20
50.950390
 30
0.0
 10
6.002168
 20
51.257070
 30
0.0
 10
5.695462
 20
51.384081
 30
0.0
 10
5.388600
 20
51.256991
 30
0.0
 10
5.261563
 20
50.950390
 30
0.0
 10
5.388600
 20
50.643812
 30
0.0
 10
5.695462
 20
50.516905
 30
0.0
  0
LWPOLYLINE
  5
145
100
AcDbEntity
  8
bolinhas
 62
7
100
AcDbPolyline
 90
17
 70
0
 10
38.902064
 20
50.516905
 30
0.0
 10
39.209288
 20
50.643891
 30
0.0
 10
39.336378
 20
50.950390
 30
0.0
 10
39.209288
 20
51.257070
 30
0.0
 10
38.902064
 20
51.384081
 30
0.0
 10
38.595539
 20
51.256991
 30
0.0
 10
38.468373
 20
50.950390
 30
0.0
 10
38.595539
 20
50.643812
 30
0.0
 10
38.902064
 20
50.516905
 30
0.0
 10
39.209288
 20
50.643891
 30
0.0
 10
39.336378
 20
50.950390
 30
0.0
 10
39.209288
 20
51.257070
 30
0.0
 10
38.902064
 20
51.384081
 30
0.0
 10
38.595539
 20
51.256991
 30
0.0
 10
38.468373
 20
50.950390
 30
0.0
 10
38.595539
 20
50.643812
 30
0.0
 10
38.902064
 20
50.516905
 30
0.0
  0
LWPOLYLINE
  5
146
100
AcDbEntity
  8
bolinhas
 62
7
100
AcDbPolyline
 90
17
 70
0
 10
36.347614
 20
50.516905
 30
0.0
 10
36.654217
 20
50.643891
 30
0.0
 10
36.781308
 20
50.950390
 30
0.0
 10
36.654217
 20
51.257070
 30
0.0
 10
36.347614
 20
51.384081
 30
0.0
 10
36.040985
 20
51.256991
 30
0.0
 10
35.913714
 20
50.950390
 30
0.0
 10
36.041064
 20
50.643812
 30
0.0
 10
36.347614
 20
50.516905
 30
0.0
 10
36.654217
 20
50.643891
 30
0.0
 10
36.781308
 20
50.950390
 30
0.0
 10
36.654217
 20
51.257070
 30
0.0
 10
36.347614
 20
51.384081
 30
0.0
 10
36.040985
 20
51.256991
 30
0.0
 10
35.913714
 20
50.950390
 30
0.0
 10
36.041064
 20
50.643812
 30
0.0
 10
36.347614
 20
50.516905
 30
0.0
  0
LWPOLYLINE
  5
147
100
AcDbEntity
  8
bolinhas
 62
7
100
AcDbPolyline
 90
17
 70
0
 10
33.793164
 20
50.516905
 30
0.0
 10
34.099974
 20
50.643891
 30
0.0
 10
34.227273
 20
50.950390
 30
0.0
 10
34.100053
 20
51.257070
 30
0.0
 10
33.793164
 20
51.384081
 30
0.0
 10
33.486586
 20
51.256991
 30
0.0
 10
33.359679
 20
50.950390
 30
0.0
 10
33.486665
 20
50.643812
 30
0.0
 10
33.793164
 20
50.516905
 30
0.0
 10
34.099974
 20
50.643891
 30
0.0
 10
34.227273
 20
50.950390
 30
0.0
 10
34.100053
 20
51.257070
 30
0.0
 10
33.793164
 20
51.384081
 30
0.0
 10
33.486586
 20
51.256991
 30
0.0
 10
33.359679
 20
50.950390
 30
0.0
 10
33.486665
 20
50.643812
 30
0.0
 10
33.793164
 20
50.516905
 30
0.0
  0
LWPOLYLINE
  5
148
100
AcDbEntity
  8
bolinhas
 62
7
100
AcDbPolyline
 90
17
 70
0
 10
31.238923
 20
50.516905
 30
0.0
 10
31.545837
 20
50.643891
 30
0.0
 10
31.673238
 20
50.950390
 30
0.0
 10
31.545913
 20
51.257070
 30
0.0
 10
31.238923
 20
51.384081
 30
0.0
 10
30.932241
 20
51.256991
 30
0.0
 10
30.805230
 20
50.950390
 30
0.0
 10
30.932241
 20
50.643812
 30
0.0
 10
31.238923
 20
50.516905
 30
0.0
 10
31.545837
 20
50.643891
 30
0.0
 10
31.673238
 20
50.950390
 30
0.0
 10
31.545913
 20
51.257070
 30
0.0
 10
31.238923
 20
51.384081
 30
0.0
 10
30.932241
 20
51.256991
 30
0.0
 10
30.805230
 20
50.950390
 30
0.0
 10
30.932241
 20
50.643812
 30
0.0
 10
31.238923
 20
50.516905
 30
0.0
  0
LWPOLYLINE
  5
149
100
AcDbEntity
  8
bolinhas
 62
7
100
AcDbPolyline
 90
17
 70
0
 10
28.684474
 20
50.516905
 30
0.0
 10
28.991074
 20
50.643891
 30
0.0
 10
29.118164
 20
50.950390
 30
0.0
 10
28.991074
 20
51.257070
 30
0.0
 10
28.684474
 20
51.384081
 30
0.0
 10
28.377975
 20
51.256991
 30
0.0
 10
28.250989
 20
50.950390
 30
0.0
 10
28.377975
 20
50.643812
 30
0.0
 10
28.684474
 20
50.516905
 30
0.0
 10
28.991074
 20
50.643891
 30
0.0
 10
29.118164
 20
50.950390
 30
0.0
 10
28.991074
 20
51.257070
 30
0.0
 10
28.684474
 20
51.384081
 30
0.0
 10
28.377975
 20
51.256991
 30
0.0
 10
28.250989
 20
50.950390
 30
0.0
 10
28.377975
 20
50.643812
 30
0.0
 10
28.684474
 20
50.516905
 30
0.0
  0
LWPOLYLINE
  5
14a
100
AcDbEntity
  8
bolinhas
 62
7
100
AcDbPolyline
 90
17
 70
0
 10
26.130645
 20
50.516905
 30
0.0
 10
26.437169
 20
50.643891
 30
0.0
 10
26.564338
 20
50.950390
 30
0.0
 10
26.437169
 20
51.257070
 30
0.0
 10
26.130645
 20
51.384081
 30
0.0
 10
25.823732
 20
51.256991
 30
0.0
 10
25.696953
 20
50.950390
 30
0.0
 10
25.823732
 20
50.643812
 30
0.0
 10
26.130645
 20
50.516905
 30
0.0
 10
26.437169
 20
50.643891
 30
0.0
 10
26.564338
 20
50.950390
 30
0.0
 10
26.437169
 20
51.257070
 30
0.0
 10
26.130645
 20
51.384081
 30
0.0
 10
25.823732
 20
51.256991
 30
0.0
 10
25.696953
 20
50.950390
 30
0.0
 10
25.823732
 20
50.643812
 30
0.0
 10
26.130645
 20
50.516905
 30
0.0
  0
LWPOLYLINE
  5
14b
100
AcDbEntity
  8
bolinhas
 62
7
100
AcDbPolyline
 90
17
 70
0
 10
23.576403
 20
50.516905
 30
0.0
 10
23.883006
 20
50.643891
 30
0.0
 10
24.010095
 20
50.950390
 30
0.0
 10
23.883006
 20
51.257070
 30
0.0
 10
23.576403
 20
51.384081
 30
0.0
 10
23.269490
 20
51.256991
 30
0.0
 10
23.142089
 20
50.950390
 30
0.0
 10
23.269334
 20
50.643812
 30
0.0
 10
23.576403
 20
50.516905
 30
0.0
 10
23.883006
 20
50.643891
 30
0.0
 10
24.010095
 20
50.950390
 30
0.0
 10
23.883006
 20
51.257070
 30
0.0
 10
23.576403
 20
51.384081
 30
0.0
 10
23.269490
 20
51.256991
 30
0.0
 10
23.142089
 20
50.950390
 30
0.0
 10
23.269334
 20
50.643812
 30
0.0
 10
23.576403
 20
50.516905
 30
0.0
  0
LWPOLYLINE
  5
14c
100
AcDbEntity
  8
bolinhas
 62
7
100
AcDbPolyline
 90
17
 70
0
 10
3.141220
 20
50.516905
 30
0.0
 10
3.447433
 20
50.643891
 30
0.0
 10
3.574290
 20
50.950390
 30
0.0
 10
3.447356
 20
51.257070
 30
0.0
 10
3.141220
 20
51.384081
 30
0.0
 10
2.834514
 20
51.256991
 30
0.0
 10
2.707320
 20
50.950390
 30
0.0
 10
2.834514
 20
50.643812
 30
0.0
 10
3.141220
 20
50.516905
 30
0.0
 10
3.447433
 20
50.643891
 30
0.0
 10
3.574290
 20
50.950390
 30
0.0
 10
3.447356
 20
51.257070
 30
0.0
 10
3.141220
 20
51.384081
 30
0.0
 10
2.834514
 20
51.256991
 30
0.0
 10
2.707320
 20
50.950390
 30
0.0
 10
2.834514
 20
50.643812
 30
0.0
 10
3.141220
 20
50.516905
 30
0.0
  0
LWPOLYLINE
  5
14d
100
AcDbEntity
  8
bolinhas
 62
7
100
AcDbPolyline
 90
17
 70
0
 10
19.744106
 20
53.071561
 30
0.0
 10
20.050423
 20
53.198366
 30
0.0
 10
20.177383
 20
53.504839
 30
0.0
 10
20.050423
 20
53.811519
 30
0.0
 10
19.744106
 20
53.938532
 30
0.0
 10
19.437711
 20
53.811519
 30
0.0
 10
19.310828
 20
53.504839
 30
0.0
 10
19.437711
 20
53.198366
 30
0.0
 10
19.744106
 20
53.071561
 30
0.0
 10
20.050423
 20
53.198366
 30
0.0
 10
20.177383
 20
53.504839
 30
0.0
 10
20.050423
 20
53.811519
 30
0.0
 10
19.744106
 20
53.938532
 30
0.0
 10
19.437711
 20
53.811519
 30
0.0
 10
19.310828
 20
53.504839
 30
0.0
 10
19.437711
 20
53.198366
 30
0.0
 10
19.744106
 20
53.071561
 30
0.0
  0
LWPOLYLINE
  5
14e
100
AcDbEntity
  8
bolinhas
 62
7
100
AcDbPolyline
 90
17
 70
0
 10
17.189864
 20
53.071561
 30
0.0
 10
17.496544
 20
53.198366
 30
0.0
 10
17.623556
 20
53.504839
 30
0.0
 10
17.496466
 20
53.811519
 30
0.0
 10
17.189864
 20
53.938532
 30
0.0
 10
16.883547
 20
53.811519
 30
0.0
 10
16.756586
 20
53.504839
 30
0.0
 10
16.883469
 20
53.198366
 30
0.0
 10
17.189864
 20
53.071561
 30
0.0
 10
17.496544
 20
53.198366
 30
0.0
 10
17.623556
 20
53.504839
 30
0.0
 10
17.496466
 20
53.811519
 30
0.0
 10
17.189864
 20
53.938532
 30
0.0
 10
16.883547
 20
53.811519
 30
0.0
 10
16.756586
 20
53.504839
 30
0.0
 10
16.883469
 20
53.198366
 30
0.0
 10
17.189864
 20
53.071561
 30
0.0
  0
LWPOLYLINE
  5
14f
100
AcDbEntity
  8
bolinhas
 62
7
100
AcDbPolyline
 90
17
 70
0
 10
14.635621
 20
53.071561
 30
0.0
 10
14.942120
 20
53.198366
 30
0.0
 10
15.069106
 20
53.504839
 30
0.0
 10
14.942120
 20
53.811519
 30
0.0
 10
14.635621
 20
53.938532
 30
0.0
 10
14.328941
 20
53.811519
 30
0.0
 10
14.201929
 20
53.504839
 30
0.0
 10
14.328941
 20
53.198366
 30
0.0
 10
14.635621
 20
53.071561
 30
0.0
 10
14.942120
 20
53.198366
 30
0.0
 10
15.069106
 20
53.504839
 30
0.0
 10
14.942120
 20
53.811519
 30
0.0
 10
14.635621
 20
53.938532
 30
0.0
 10
14.328941
 20
53.811519
 30
0.0
 10
14.201929
 20
53.504839
 30
0.0
 10
14.328941
 20
53.198366
 30
0.0
 10
14.635621
 20
53.071561
 30
0.0
  0
LWPOLYLINE
  5
150
100
AcDbEntity
  8
bolinhas
 62
7
100
AcDbPolyline
 90
17
 70
0
 10
12.080964
 20
53.071561
 30
0.0
 10
12.387826
 20
53.198366
 30
0.0
 10
12.514864
 20
53.504839
 30
0.0
 10
12.387826
 20
53.811519
 30
0.0
 10
12.080964
 20
53.938532
 30
0.0
 10
11.774388
 20
53.811519
 30
0.0
 10
11.647479
 20
53.504839
 30
0.0
 10
11.774466
 20
53.198366
 30
0.0
 10
12.080964
 20
53.071561
 30
0.0
 10
12.387826
 20
53.198366
 30
0.0
 10
12.514864
 20
53.504839
 30
0.0
 10
12.387826
 20
53.811519
 30
0.0
 10
12.080964
 20
53.938532
 30
0.0
 10
11.774388
 20
53.811519
 30
0.0
 10
11.647479
 20
53.504839
 30
0.0
 10
11.774466
 20
53.198366
 30
0.0
 10
12.080964
 20
53.071561
 30
0.0
  0
LWPOLYLINE
  5
151
100
AcDbEntity
  8
bolinhas
 62
7
100
AcDbPolyline
 90
17
 70
0
 10
9.526929
 20
53.071561
 30
0.0
 10
9.833506
 20
53.198366
 30
0.0
 10
9.960414
 20
53.504839
 30
0.0
 10
9.833506
 20
53.811519
 30
0.0
 10
9.526929
 20
53.938532
 30
0.0
 10
9.220327
 20
53.811519
 30
0.0
 10
9.093237
 20
53.504839
 30
0.0
 10
9.220327
 20
53.198366
 30
0.0
 10
9.526929
 20
53.071561
 30
0.0
 10
9.833506
 20
53.198366
 30
0.0
 10
9.960414
 20
53.504839
 30
0.0
 10
9.833506
 20
53.811519
 30
0.0
 10
9.526929
 20
53.938532
 30
0.0
 10
9.220327
 20
53.811519
 30
0.0
 10
9.093237
 20
53.504839
 30
0.0
 10
9.220327
 20
53.198366
 30
0.0
 10
9.526929
 20
53.071561
 30
0.0
  0
LWPOLYLINE
  5
152
100
AcDbEntity
  8
bolinhas
 62
7
100
AcDbPolyline
 90
17
 70
0
 10
6.972480
 20
53.071561
 30
0.0
 10
7.278953
 20
53.198366
 30
0.0
 10
7.405757
 20
53.504839
 30
0.0
 10
7.278953
 20
53.811519
 30
0.0
 10
6.972480
 20
53.938532
 30
0.0
 10
6.665877
 20
53.811519
 30
0.0
 10
6.538788
 20
53.504839
 30
0.0
 10
6.665799
 20
53.198366
 30
0.0
 10
6.972480
 20
53.071561
 30
0.0
 10
7.278953
 20
53.198366
 30
0.0
 10
7.405757
 20
53.504839
 30
0.0
 10
7.278953
 20
53.811519
 30
0.0
 10
6.972480
 20
53.938532
 30
0.0
 10
6.665877
 20
53.811519
 30
0.0
 10
6.538788
 20
53.504839
 30
0.0
 10
6.665799
 20
53.198366
 30
0.0
 10
6.972480
 20
53.071561
 30
0.0
  0
LWPOLYLINE
  5
153
100
AcDbEntity
  8
bolinhas
 62
7
100
AcDbPolyline
 90
17
 70
0
 10
4.418445
 20
53.071561
 30
0.0
 10
4.724944
 20
53.198366
 30
0.0
 10
4.851930
 20
53.504839
 30
0.0
 10
4.724866
 20
53.811519
 30
0.0
 10
4.418445
 20
53.938532
 30
0.0
 10
4.111739
 20
53.811519
 30
0.0
 10
3.984545
 20
53.504839
 30
0.0
 10
4.111739
 20
53.198366
 30
0.0
 10
4.418445
 20
53.071561
 30
0.0
 10
4.724944
 20
53.198366
 30
0.0
 10
4.851930
 20
53.504839
 30
0.0
 10
4.724866
 20
53.811519
 30
0.0
 10
4.418445
 20
53.938532
 30
0.0
 10
4.111739
 20
53.811519
 30
0.0
 10
3.984545
 20
53.504839
 30
0.0
 10
4.111739
 20
53.198366
 30
0.0
 10
4.418445
 20
53.071561
 30
0.0
  0
LWPOLYLINE
  5
154
100
AcDbEntity
  8
bolinhas
 62
7
100
AcDbPolyline
 90
17
 70
0
 10
40.179083
 20
53.071561
 30
0.0
 10
40.485838
 20
53.198366
 30
0.0
 10
40.612774
 20
53.504839
 30
0.0
 10
40.485838
 20
53.811519
 30
0.0
 10
40.179083
 20
53.938532
 30
0.0
 10
39.872739
 20
53.811519
 30
0.0
 10
39.745598
 20
53.504839
 30
0.0
 10
39.872739
 20
53.198366
 30
0.0
 10
40.179083
 20
53.071561
 30
0.0
 10
40.485838
 20
53.198366
 30
0.0
 10
40.612774
 20
53.504839
 30
0.0
 10
40.485838
 20
53.811519
 30
0.0
 10
40.179083
 20
53.938532
 30
0.0
 10
39.872739
 20
53.811519
 30
0.0
 10
39.745598
 20
53.504839
 30
0.0
 10
39.872739
 20
53.198366
 30
0.0
 10
40.179083
 20
53.071561
 30
0.0
  0
LWPOLYLINE
  5
155
100
AcDbEntity
  8
bolinhas
 62
7
100
AcDbPolyline
 90
17
 70
0
 10
37.624839
 20
53.071561
 30
0.0
 10
37.932063
 20
53.198366
 30
0.0
 10
38.059153
 20
53.504839
 30
0.0
 10
37.932063
 20
53.811519
 30
0.0
 10
37.624839
 20
53.938532
 30
0.0
 10
37.318315
 20
53.811519
 30
0.0
 10
37.191148
 20
53.504839
 30
0.0
 10
37.318238
 20
53.198366
 30
0.0
 10
37.624839
 20
53.071561
 30
0.0
 10
37.932063
 20
53.198366
 30
0.0
 10
38.059153
 20
53.504839
 30
0.0
 10
37.932063
 20
53.811519
 30
0.0
 10
37.624839
 20
53.938532
 30
0.0
 10
37.318315
 20
53.811519
 30
0.0
 10
37.191148
 20
53.504839
 30
0.0
 10
37.318238
 20
53.198366
 30
0.0
 10
37.624839
 20
53.071561
 30
0.0
  0
LWPOLYLINE
  5
156
100
AcDbEntity
  8
bolinhas
 62
7
100
AcDbPolyline
 90
17
 70
0
 10
35.070389
 20
53.071561
 30
0.0
 10
35.376993
 20
53.198366
 30
0.0
 10
35.504083
 20
53.504839
 30
0.0
 10
35.376993
 20
53.811519
 30
0.0
 10
35.070389
 20
53.938532
 30
0.0
 10
34.763890
 20
53.811519
 30
0.0
 10
34.636904
 20
53.504839
 30
0.0
 10
34.763890
 20
53.198366
 30
0.0
 10
35.070389
 20
53.071561
 30
0.0
 10
35.376993
 20
53.198366
 30
0.0
 10
35.504083
 20
53.504839
 30
0.0
 10
35.376993
 20
53.811519
 30
0.0
 10
35.070389
 20
53.938532
 30
0.0
 10
34.763890
 20
53.811519
 30
0.0
 10
34.636904
 20
53.504839
 30
0.0
 10
34.763890
 20
53.198366
 30
0.0
 10
35.070389
 20
53.071561
 30
0.0
  0
LWPOLYLINE
  5
157
100
AcDbEntity
  8
bolinhas
 62
7
100
AcDbPolyline
 90
17
 70
0
 10
32.516148
 20
53.071561
 30
0.0
 10
32.822983
 20
53.198366
 30
0.0
 10
32.950463
 20
53.504839
 30
0.0
 10
32.823062
 20
53.811519
 30
0.0
 10
32.516148
 20
53.938532
 30
0.0
 10
32.209545
 20
53.811519
 30
0.0
 10
32.082454
 20
53.504839
 30
0.0
 10
32.209466
 20
53.198366
 30
0.0
 10
32.516148
 20
53.071561
 30
0.0
 10
32.822983
 20
53.198366
 30
0.0
 10
32.950463
 20
53.504839
 30
0.0
 10
32.823062
 20
53.811519
 30
0.0
 10
32.516148
 20
53.938532
 30
0.0
 10
32.209545
 20
53.811519
 30
0.0
 10
32.082454
 20
53.504839
 30
0.0
 10
32.209466
 20
53.198366
 30
0.0
 10
32.516148
 20
53.071561
 30
0.0
  0
LWPOLYLINE
  5
158
100
AcDbEntity
  8
bolinhas
 62
7
100
AcDbPolyline
 90
17
 70
0
 10
29.961698
 20
53.071561
 30
0.0
 10
30.268508
 20
53.198366
 30
0.0
 10
30.395804
 20
53.504839
 30
0.0
 10
30.268584
 20
53.811519
 30
0.0
 10
29.961698
 20
53.938532
 30
0.0
 10
29.654912
 20
53.811519
 30
0.0
 10
29.527799
 20
53.504839
 30
0.0
 10
29.654991
 20
53.198366
 30
0.0
 10
29.961698
 20
53.071561
 30
0.0
 10
30.268508
 20
53.198366
 30
0.0
 10
30.395804
 20
53.504839
 30
0.0
 10
30.268584
 20
53.811519
 30
0.0
 10
29.961698
 20
53.938532
 30
0.0
 10
29.654912
 20
53.811519
 30
0.0
 10
29.527799
 20
53.504839
 30
0.0
 10
29.654991
 20
53.198366
 30
0.0
 10
29.961698
 20
53.071561
 30
0.0
  0
LWPOLYLINE
  5
159
100
AcDbEntity
  8
bolinhas
 62
7
100
AcDbPolyline
 90
17
 70
0
 10
27.407248
 20
53.071561
 30
0.0
 10
27.713850
 20
53.198366
 30
0.0
 10
27.840940
 20
53.504839
 30
0.0
 10
27.713850
 20
53.811519
 30
0.0
 10
27.407248
 20
53.938532
 30
0.0
 10
27.100542
 20
53.811519
 30
0.0
 10
26.973348
 20
53.504839
 30
0.0
 10
27.100542
 20
53.198366
 30
0.0
 10
27.407248
 20
53.071561
 30
0.0
 10
27.713850
 20
53.198366
 30
0.0
 10
27.840940
 20
53.504839
 30
0.0
 10
27.713850
 20
53.811519
 30
0.0
 10
27.407248
 20
53.938532
 30
0.0
 10
27.100542
 20
53.811519
 30
0.0
 10
26.973348
 20
53.504839
 30
0.0
 10
27.100542
 20
53.198366
 30
0.0
 10
27.407248
 20
53.071561
 30
0.0
  0
LWPOLYLINE
  5
15a
100
AcDbEntity
  8
bolinhas
 62
7
100
AcDbPolyline
 90
17
 70
0
 10
24.853628
 20
53.071561
 30
0.0
 10
25.160127
 20
53.198366
 30
0.0
 10
25.287113
 20
53.504839
 30
0.0
 10
25.160127
 20
53.811519
 30
0.0
 10
24.853628
 20
53.938532
 30
0.0
 10
24.546611
 20
53.811519
 30
0.0
 10
24.419728
 20
53.504839
 30
0.0
 10
24.546611
 20
53.198366
 30
0.0
 10
24.853628
 20
53.071561
 30
0.0
 10
25.160127
 20
53.198366
 30
0.0
 10
25.287113
 20
53.504839
 30
0.0
 10
25.160127
 20
53.811519
 30
0.0
 10
24.853628
 20
53.938532
 30
0.0
 10
24.546611
 20
53.811519
 30
0.0
 10
24.419728
 20
53.504839
 30
0.0
 10
24.546611
 20
53.198366
 30
0.0
 10
24.853628
 20
53.071561
 30
0.0
  0
LWPOLYLINE
  5
15b
100
AcDbEntity
  8
bolinhas
 62
7
100
AcDbPolyline
 90
17
 70
0
 10
22.299178
 20
53.071561
 30
0.0
 10
22.605677
 20
53.198366
 30
0.0
 10
22.732663
 20
53.504839
 30
0.0
 10
22.605677
 20
53.811519
 30
0.0
 10
22.299178
 20
53.938532
 30
0.0
 10
21.992369
 20
53.811519
 30
0.0
 10
21.865071
 20
53.504839
 30
0.0
 10
21.992290
 20
53.198366
 30
0.0
 10
22.299178
 20
53.071561
 30
0.0
 10
22.605677
 20
53.198366
 30
0.0
 10
22.732663
 20
53.504839
 30
0.0
 10
22.605677
 20
53.811519
 30
0.0
 10
22.299178
 20
53.938532
 30
0.0
 10
21.992369
 20
53.811519
 30
0.0
 10
21.865071
 20
53.504839
 30
0.0
 10
21.992290
 20
53.198366
 30
0.0
 10
22.299178
 20
53.071561
 30
0.0
  0
LWPOLYLINE
  5
15c
100
AcDbEntity
  8
bolinhas
 62
7
100
AcDbPolyline
 90
17
 70
0
 10
1.863995
 20
53.071561
 30
0.0
 10
2.170209
 20
53.198366
 30
0.0
 10
2.297065
 20
53.504839
 30
0.0
 10
2.170131
 20
53.811519
 30
0.0
 10
1.863995
 20
53.938532
 30
0.0
 10
1.557289
 20
53.811519
 30
0.0
 10
1.430095
 20
53.504839
 30
0.0
 10
1.557211
 20
53.198366
 30
0.0
 10
1.863995
 20
53.071561
 30
0.0
 10
2.170209
 20
53.198366
 30
0.0
 10
2.297065
 20
53.504839
 30
0.0
 10
2.170131
 20
53.811519
 30
0.0
 10
1.863995
 20
53.938532
 30
0.0
 10
1.557289
 20
53.811519
 30
0.0
 10
1.430095
 20
53.504839
 30
0.0
 10
1.557211
 20
53.198366
 30
0.0
 10
1.863995
 20
53.071561
 30
0.0
  0
LWPOLYLINE
  5
15d
100
AcDbEntity
  8
bolinhas
 62
7
100
AcDbPolyline
 90
17
 70
0
 10
21.021331
 20
55.625596
 30
0.0
 10
21.327726
 20
55.752583
 30
0.0
 10
21.454609
 20
56.059081
 30
0.0
 10
21.327726
 20
56.365658
 30
0.0
 10
21.021331
 20
56.492566
 30
0.0
 10
20.714728
 20
56.365658
 30
0.0
 10
20.587638
 20
56.059081
 30
0.0
 10
20.714728
 20
55.752583
 30
0.0
 10
21.021331
 20
55.625596
 30
0.0
 10
21.327726
 20
55.752583
 30
0.0
 10
21.454609
 20
56.059081
 30
0.0
 10
21.327726
 20
56.365658
 30
0.0
 10
21.021331
 20
56.492566
 30
0.0
 10
20.714728
 20
56.365658
 30
0.0
 10
20.587638
 20
56.059081
 30
0.0
 10
20.714728
 20
55.752583
 30
0.0
 10
21.021331
 20
55.625596
 30
0.0
  0
LWPOLYLINE
  5
15e
100
AcDbEntity
  8
bolinhas
 62
7
100
AcDbPolyline
 90
17
 70
0
 10
18.466881
 20
55.625596
 30
0.0
 10
18.773665
 20
55.752583
 30
0.0
 10
18.900781
 20
56.059081
 30
0.0
 10
18.773587
 20
56.365658
 30
0.0
 10
18.466881
 20
56.492566
 30
0.0
 10
18.160486
 20
56.365658
 30
0.0
 10
18.033604
 20
56.059081
 30
0.0
 10
18.160486
 20
55.752583
 30
0.0
 10
18.466881
 20
55.625596
 30
0.0
 10
18.773665
 20
55.752583
 30
0.0
 10
18.900781
 20
56.059081
 30
0.0
 10
18.773587
 20
56.365658
 30
0.0
 10
18.466881
 20
56.492566
 30
0.0
 10
18.160486
 20
56.365658
 30
0.0
 10
18.033604
 20
56.059081
 30
0.0
 10
18.160486
 20
55.752583
 30
0.0
 10
18.466881
 20
55.625596
 30
0.0
  0
LWPOLYLINE
  5
15f
100
AcDbEntity
  8
bolinhas
 62
7
100
AcDbPolyline
 90
17
 70
0
 10
15.912846
 20
55.625596
 30
0.0
 10
16.219423
 20
55.752583
 30
0.0
 10
16.346331
 20
56.059081
 30
0.0
 10
16.219345
 20
56.365658
 30
0.0
 10
15.912846
 20
56.492566
 30
0.0
 10
15.606244
 20
56.365658
 30
0.0
 10
15.479154
 20
56.059081
 30
0.0
 10
15.606166
 20
55.752583
 30
0.0
 10
15.912846
 20
55.625596
 30
0.0
 10
16.219423
 20
55.752583
 30
0.0
 10
16.346331
 20
56.059081
 30
0.0
 10
16.219345
 20
56.365658
 30
0.0
 10
15.912846
 20
56.492566
 30
0.0
 10
15.606244
 20
56.365658
 30
0.0
 10
15.479154
 20
56.059081
 30
0.0
 10
15.606166
 20
55.752583
 30
0.0
 10
15.912846
 20
55.625596
 30
0.0
  0
LWPOLYLINE
  5
160
100
AcDbEntity
  8
bolinhas
 62
7
100
AcDbPolyline
 90
17
 70
0
 10
13.358397
 20
55.625596
 30
0.0
 10
13.665077
 20
55.752583
 30
0.0
 10
13.792089
 20
56.059081
 30
0.0
 10
13.665077
 20
56.365658
 30
0.0
 10
13.358397
 20
56.492566
 30
0.0
 10
13.051716
 20
56.365658
 30
0.0
 10
12.924704
 20
56.059081
 30
0.0
 10
13.051639
 20
55.752583
 30
0.0
 10
13.358397
 20
55.625596
 30
0.0
 10
13.665077
 20
55.752583
 30
0.0
 10
13.792089
 20
56.059081
 30
0.0
 10
13.665077
 20
56.365658
 30
0.0
 10
13.358397
 20
56.492566
 30
0.0
 10
13.051716
 20
56.365658
 30
0.0
 10
12.924704
 20
56.059081
 30
0.0
 10
13.051639
 20
55.752583
 30
0.0
 10
13.358397
 20
55.625596
 30
0.0
  0
LWPOLYLINE
  5
161
100
AcDbEntity
  8
bolinhas
 62
7
100
AcDbPolyline
 90
17
 70
0
 10
10.803947
 20
55.625596
 30
0.0
 10
11.110627
 20
55.752583
 30
0.0
 10
11.237639
 20
56.059081
 30
0.0
 10
11.110627
 20
56.365658
 30
0.0
 10
10.803947
 20
56.492566
 30
0.0
 10
10.497293
 20
56.365658
 30
0.0
 10
10.370462
 20
56.059081
 30
0.0
 10
10.497293
 20
55.752583
 30
0.0
 10
10.803947
 20
55.625596
 30
0.0
 10
11.110627
 20
55.752583
 30
0.0
 10
11.237639
 20
56.059081
 30
0.0
 10
11.110627
 20
56.365658
 30
0.0
 10
10.803947
 20
56.492566
 30
0.0
 10
10.497293
 20
56.365658
 30
0.0
 10
10.370462
 20
56.059081
 30
0.0
 10
10.497293
 20
55.752583
 30
0.0
 10
10.803947
 20
55.625596
 30
0.0
  0
LWPOLYLINE
  5
162
100
AcDbEntity
  8
bolinhas
 62
7
100
AcDbPolyline
 90
17
 70
0
 10
8.249704
 20
55.625596
 30
0.0
 10
8.556281
 20
55.752583
 30
0.0
 10
8.683189
 20
56.059081
 30
0.0
 10
8.556281
 20
56.365658
 30
0.0
 10
8.249704
 20
56.492566
 30
0.0
 10
7.943102
 20
56.365658
 30
0.0
 10
7.816012
 20
56.059081
 30
0.0
 10
7.943024
 20
55.752583
 30
0.0
 10
8.249704
 20
55.625596
 30
0.0
 10
8.556281
 20
55.752583
 30
0.0
 10
8.683189
 20
56.059081
 30
0.0
 10
8.556281
 20
56.365658
 30
0.0
 10
8.249704
 20
56.492566
 30
0.0
 10
7.943102
 20
56.365658
 30
0.0
 10
7.816012
 20
56.059081
 30
0.0
 10
7.943024
 20
55.752583
 30
0.0
 10
8.249704
 20
55.625596
 30
0.0
  0
LWPOLYLINE
  5
163
100
AcDbEntity
  8
bolinhas
 62
7
100
AcDbPolyline
 90
17
 70
0
 10
5.695462
 20
55.625596
 30
0.0
 10
6.002246
 20
55.752583
 30
0.0
 10
6.129362
 20
56.059081
 30
0.0
 10
6.002168
 20
56.365658
 30
0.0
 10
5.695462
 20
56.492566
 30
0.0
 10
5.388600
 20
56.365658
 30
0.0
 10
5.261563
 20
56.059081
 30
0.0
 10
5.388600
 20
55.752583
 30
0.0
 10
5.695462
 20
55.625596
 30
0.0
 10
6.002246
 20
55.752583
 30
0.0
 10
6.129362
 20
56.059081
 30
0.0
 10
6.002168
 20
56.365658
 30
0.0
 10
5.695462
 20
56.492566
 30
0.0
 10
5.388600
 20
56.365658
 30
0.0
 10
5.261563
 20
56.059081
 30
0.0
 10
5.388600
 20
55.752583
 30
0.0
 10
5.695462
 20
55.625596
 30
0.0
  0
LWPOLYLINE
  5
164
100
AcDbEntity
  8
bolinhas
 62
7
100
AcDbPolyline
 90
17
 70
0
 10
38.902064
 20
55.625596
 30
0.0
 10
39.209288
 20
55.752583
 30
0.0
 10
39.336378
 20
56.059081
 30
0.0
 10
39.209288
 20
56.365658
 30
0.0
 10
38.902064
 20
56.492566
 30
0.0
 10
38.595539
 20
56.365658
 30
0.0
 10
38.468373
 20
56.059081
 30
0.0
 10
38.595539
 20
55.752583
 30
0.0
 10
38.902064
 20
55.625596
 30
0.0
 10
39.209288
 20
55.752583
 30
0.0
 10
39.336378
 20
56.059081
 30
0.0
 10
39.209288
 20
56.365658
 30
0.0
 10
38.902064
 20
56.492566
 30
0.0
 10
38.595539
 20
56.365658
 30
0.0
 10
38.468373
 20
56.059081
 30
0.0
 10
38.595539
 20
55.752583
 30
0.0
 10
38.902064
 20
55.625596
 30
0.0
  0
LWPOLYLINE
  5
165
100
AcDbEntity
  8
bolinhas
 62
7
100
AcDbPolyline
 90
17
 70
0
 10
36.347614
 20
55.625596
 30
0.0
 10
36.654217
 20
55.752583
 30
0.0
 10
36.781308
 20
56.059081
 30
0.0
 10
36.654217
 20
56.365658
 30
0.0
 10
36.347614
 20
56.492566
 30
0.0
 10
36.040985
 20
56.365658
 30
0.0
 10
35.913714
 20
56.059081
 30
0.0
 10
36.041064
 20
55.752583
 30
0.0
 10
36.347614
 20
55.625596
 30
0.0
 10
36.654217
 20
55.752583
 30
0.0
 10
36.781308
 20
56.059081
 30
0.0
 10
36.654217
 20
56.365658
 30
0.0
 10
36.347614
 20
56.492566
 30
0.0
 10
36.040985
 20
56.365658
 30
0.0
 10
35.913714
 20
56.059081
 30
0.0
 10
36.041064
 20
55.752583
 30
0.0
 10
36.347614
 20
55.625596
 30
0.0
  0
LWPOLYLINE
  5
166
100
AcDbEntity
  8
bolinhas
 62
7
100
AcDbPolyline
 90
17
 70
0
 10
33.793164
 20
55.625596
 30
0.0
 10
34.099974
 20
55.752583
 30
0.0
 10
34.227273
 20
56.059081
 30
0.0
 10
34.100053
 20
56.365658
 30
0.0
 10
33.793164
 20
56.492566
 30
0.0
 10
33.486586
 20
56.365658
 30
0.0
 10
33.359679
 20
56.059081
 30
0.0
 10
33.486665
 20
55.752583
 30
0.0
 10
33.793164
 20
55.625596
 30
0.0
 10
34.099974
 20
55.752583
 30
0.0
 10
34.227273
 20
56.059081
 30
0.0
 10
34.100053
 20
56.365658
 30
0.0
 10
33.793164
 20
56.492566
 30
0.0
 10
33.486586
 20
56.365658
 30
0.0
 10
33.359679
 20
56.059081
 30
0.0
 10
33.486665
 20
55.752583
 30
0.0
 10
33.793164
 20
55.625596
 30
0.0
  0
LWPOLYLINE
  5
167
100
AcDbEntity
  8
bolinhas
 62
7
100
AcDbPolyline
 90
17
 70
0
 10
31.238923
 20
55.625596
 30
0.0
 10
31.545837
 20
55.752583
 30
0.0
 10
31.673238
 20
56.059081
 30
0.0
 10
31.545913
 20
56.365658
 30
0.0
 10
31.238923
 20
56.492566
 30
0.0
 10
30.932241
 20
56.365658
 30
0.0
 10
30.805230
 20
56.059081
 30
0.0
 10
30.932241
 20
55.752583
 30
0.0
 10
31.238923
 20
55.625596
 30
0.0
 10
31.545837
 20
55.752583
 30
0.0
 10
31.673238
 20
56.059081
 30
0.0
 10
31.545913
 20
56.365658
 30
0.0
 10
31.238923
 20
56.492566
 30
0.0
 10
30.932241
 20
56.365658
 30
0.0
 10
30.805230
 20
56.059081
 30
0.0
 10
30.932241
 20
55.752583
 30
0.0
 10
31.238923
 20
55.625596
 30
0.0
  0
LWPOLYLINE
  5
168
100
AcDbEntity
  8
bolinhas
 62
7
100
AcDbPolyline
 90
17
 70
0
 10
28.684474
 20
55.625596
 30
0.0
 10
28.991074
 20
55.752583
 30
0.0
 10
29.118164
 20
56.059081
 30
0.0
 10
28.991074
 20
56.365658
 30
0.0
 10
28.684474
 20
56.492566
 30
0.0
 10
28.377975
 20
56.365658
 30
0.0
 10
28.250989
 20
56.059081
 30
0.0
 10
28.377975
 20
55.752583
 30
0.0
 10
28.684474
 20
55.625596
 30
0.0
 10
28.991074
 20
55.752583
 30
0.0
 10
29.118164
 20
56.059081
 30
0.0
 10
28.991074
 20
56.365658
 30
0.0
 10
28.684474
 20
56.492566
 30
0.0
 10
28.377975
 20
56.365658
 30
0.0
 10
28.250989
 20
56.059081
 30
0.0
 10
28.377975
 20
55.752583
 30
0.0
 10
28.684474
 20
55.625596
 30
0.0
  0
LWPOLYLINE
  5
169
100
AcDbEntity
  8
bolinhas
 62
7
100
AcDbPolyline
 90
17
 70
0
 10
26.130645
 20
55.625596
 30
0.0
 10
26.437169
 20
55.752583
 30
0.0
 10
26.564338
 20
56.059081
 30
0.0
 10
26.437169
 20
56.365658
 30
0.0
 10
26.130645
 20
56.492566
 30
0.0
 10
25.823732
 20
56.365658
 30
0.0
 10
25.696953
 20
56.059081
 30
0.0
 10
25.823732
 20
55.752583
 30
0.0
 10
26.130645
 20
55.625596
 30
0.0
 10
26.437169
 20
55.752583
 30
0.0
 10
26.564338
 20
56.059081
 30
0.0
 10
26.437169
 20
56.365658
 30
0.0
 10
26.130645
 20
56.492566
 30
0.0
 10
25.823732
 20
56.365658
 30
0.0
 10
25.696953
 20
56.059081
 30
0.0
 10
25.823732
 20
55.752583
 30
0.0
 10
26.130645
 20
55.625596
 30
0.0
  0
LWPOLYLINE
  5
16a
100
AcDbEntity
  8
bolinhas
 62
7
100
AcDbPolyline
 90
17
 70
0
 10
23.576403
 20
55.625596
 30
0.0
 10
23.883006
 20
55.752583
 30
0.0
 10
24.010095
 20
56.059081
 30
0.0
 10
23.883006
 20
56.365658
 30
0.0
 10
23.576403
 20
56.492566
 30
0.0
 10
23.269490
 20
56.365658
 30
0.0
 10
23.142089
 20
56.059081
 30
0.0
 10
23.269334
 20
55.752583
 30
0.0
 10
23.576403
 20
55.625596
 30
0.0
 10
23.883006
 20
55.752583
 30
0.0
 10
24.010095
 20
56.059081
 30
0.0
 10
23.883006
 20
56.365658
 30
0.0
 10
23.576403
 20
56.492566
 30
0.0
 10
23.269490
 20
56.365658
 30
0.0
 10
23.142089
 20
56.059081
 30
0.0
 10
23.269334
 20
55.752583
 30
0.0
 10
23.576403
 20
55.625596
 30
0.0
  0
LWPOLYLINE
  5
16b
100
AcDbEntity
  8
bolinhas
 62
7
100
AcDbPolyline
 90
17
 70
0
 10
3.141220
 20
55.625596
 30
0.0
 10
3.447433
 20
55.752583
 30
0.0
 10
3.574290
 20
56.059081
 30
0.0
 10
3.447356
 20
56.365658
 30
0.0
 10
3.141220
 20
56.492566
 30
0.0
 10
2.834514
 20
56.365658
 30
0.0
 10
2.707320
 20
56.059081
 30
0.0
 10
2.834514
 20
55.752583
 30
0.0
 10
3.141220
 20
55.625596
 30
0.0
 10
3.447433
 20
55.752583
 30
0.0
 10
3.574290
 20
56.059081
 30
0.0
 10
3.447356
 20
56.365658
 30
0.0
 10
3.141220
 20
56.492566
 30
0.0
 10
2.834514
 20
56.365658
 30
0.0
 10
2.707320
 20
56.059081
 30
0.0
 10
2.834514
 20
55.752583
 30
0.0
 10
3.141220
 20
55.625596
 30
0.0
  0
LWPOLYLINE
  5
16c
100
AcDbEntity
  8
bolinhas
 62
7
100
AcDbPolyline
 90
17
 70
0
 10
19.744106
 20
58.180254
 30
0.0
 10
20.050423
 20
58.307136
 30
0.0
 10
20.177383
 20
58.613531
 30
0.0
 10
20.050423
 20
58.920548
 30
0.0
 10
19.744106
 20
59.047431
 30
0.0
 10
19.437711
 20
58.920471
 30
0.0
 10
19.310828
 20
58.613531
 30
0.0
 10
19.437711
 20
58.307058
 30
0.0
 10
19.744106
 20
58.180254
 30
0.0
 10
20.050423
 20
58.307136
 30
0.0
 10
20.177383
 20
58.613531
 30
0.0
 10
20.050423
 20
58.920548
 30
0.0
 10
19.744106
 20
59.047431
 30
0.0
 10
19.437711
 20
58.920471
 30
0.0
 10
19.310828
 20
58.613531
 30
0.0
 10
19.437711
 20
58.307058
 30
0.0
 10
19.744106
 20
58.180254
 30
0.0
  0
LWPOLYLINE
  5
16d
100
AcDbEntity
  8
bolinhas
 62
7
100
AcDbPolyline
 90
17
 70
0
 10
17.189864
 20
58.180254
 30
0.0
 10
17.496544
 20
58.307136
 30
0.0
 10
17.623556
 20
58.613531
 30
0.0
 10
17.496466
 20
58.920548
 30
0.0
 10
17.189864
 20
59.047431
 30
0.0
 10
16.883547
 20
58.920471
 30
0.0
 10
16.756586
 20
58.613531
 30
0.0
 10
16.883469
 20
58.307058
 30
0.0
 10
17.189864
 20
58.180254
 30
0.0
 10
17.496544
 20
58.307136
 30
0.0
 10
17.623556
 20
58.613531
 30
0.0
 10
17.496466
 20
58.920548
 30
0.0
 10
17.189864
 20
59.047431
 30
0.0
 10
16.883547
 20
58.920471
 30
0.0
 10
16.756586
 20
58.613531
 30
0.0
 10
16.883469
 20
58.307058
 30
0.0
 10
17.189864
 20
58.180254
 30
0.0
  0
LWPOLYLINE
  5
16e
100
AcDbEntity
  8
bolinhas
 62
7
100
AcDbPolyline
 90
17
 70
0
 10
14.635621
 20
58.180254
 30
0.0
 10
14.942120
 20
58.307136
 30
0.0
 10
15.069106
 20
58.613531
 30
0.0
 10
14.942120
 20
58.920548
 30
0.0
 10
14.635621
 20
59.047431
 30
0.0
 10
14.328941
 20
58.920471
 30
0.0
 10
14.201929
 20
58.613531
 30
0.0
 10
14.328863
 20
58.307058
 30
0.0
 10
14.635621
 20
58.180254
 30
0.0
 10
14.942120
 20
58.307136
 30
0.0
 10
15.069106
 20
58.613531
 30
0.0
 10
14.942120
 20
58.920548
 30
0.0
 10
14.635621
 20
59.047431
 30
0.0
 10
14.328941
 20
58.920471
 30
0.0
 10
14.201929
 20
58.613531
 30
0.0
 10
14.328863
 20
58.307058
 30
0.0
 10
14.635621
 20
58.180254
 30
0.0
  0
LWPOLYLINE
  5
16f
100
AcDbEntity
  8
bolinhas
 62
7
100
AcDbPolyline
 90
17
 70
0
 10
12.080964
 20
58.180254
 30
0.0
 10
12.387826
 20
58.307136
 30
0.0
 10
12.514864
 20
58.613531
 30
0.0
 10
12.387826
 20
58.920548
 30
0.0
 10
12.080964
 20
59.047431
 30
0.0
 10
11.774388
 20
58.920471
 30
0.0
 10
11.647479
 20
58.613531
 30
0.0
 10
11.774466
 20
58.307058
 30
0.0
 10
12.080964
 20
58.180254
 30
0.0
 10
12.387826
 20
58.307136
 30
0.0
 10
12.514864
 20
58.613531
 30
0.0
 10
12.387826
 20
58.920548
 30
0.0
 10
12.080964
 20
59.047431
 30
0.0
 10
11.774388
 20
58.920471
 30
0.0
 10
11.647479
 20
58.613531
 30
0.0
 10
11.774466
 20
58.307058
 30
0.0
 10
12.080964
 20
58.180254
 30
0.0
  0
LWPOLYLINE
  5
170
100
AcDbEntity
  8
bolinhas
 62
7
100
AcDbPolyline
 90
17
 70
0
 10
9.526929
 20
58.180254
 30
0.0
 10
9.833506
 20
58.307136
 30
0.0
 10
9.960414
 20
58.613531
 30
0.0
 10
9.833506
 20
58.920548
 30
0.0
 10
9.526929
 20
59.047431
 30
0.0
 10
9.220327
 20
58.920471
 30
0.0
 10
9.093237
 20
58.613531
 30
0.0
 10
9.220327
 20
58.307058
 30
0.0
 10
9.526929
 20
58.180254
 30
0.0
 10
9.833506
 20
58.307136
 30
0.0
 10
9.960414
 20
58.613531
 30
0.0
 10
9.833506
 20
58.920548
 30
0.0
 10
9.526929
 20
59.047431
 30
0.0
 10
9.220327
 20
58.920471
 30
0.0
 10
9.093237
 20
58.613531
 30
0.0
 10
9.220327
 20
58.307058
 30
0.0
 10
9.526929
 20
58.180254
 30
0.0
  0
LWPOLYLINE
  5
171
100
AcDbEntity
  8
bolinhas
 62
7
100
AcDbPolyline
 90
17
 70
0
 10
6.972480
 20
58.180254
 30
0.0
 10
7.278953
 20
58.307136
 30
0.0
 10
7.405757
 20
58.613531
 30
0.0
 10
7.278953
 20
58.920548
 30
0.0
 10
6.972480
 20
59.047431
 30
0.0
 10
6.665877
 20
58.920471
 30
0.0
 10
6.538788
 20
58.613531
 30
0.0
 10
6.665799
 20
58.307058
 30
0.0
 10
6.972480
 20
58.180254
 30
0.0
 10
7.278953
 20
58.307136
 30
0.0
 10
7.405757
 20
58.613531
 30
0.0
 10
7.278953
 20
58.920548
 30
0.0
 10
6.972480
 20
59.047431
 30
0.0
 10
6.665877
 20
58.920471
 30
0.0
 10
6.538788
 20
58.613531
 30
0.0
 10
6.665799
 20
58.307058
 30
0.0
 10
6.972480
 20
58.180254
 30
0.0
  0
LWPOLYLINE
  5
172
100
AcDbEntity
  8
bolinhas
 62
7
100
AcDbPolyline
 90
17
 70
0
 10
4.418445
 20
58.180254
 30
0.0
 10
4.724944
 20
58.307136
 30
0.0
 10
4.851930
 20
58.613531
 30
0.0
 10
4.724866
 20
58.920548
 30
0.0
 10
4.418445
 20
59.047431
 30
0.0
 10
4.111739
 20
58.920471
 30
0.0
 10
3.984545
 20
58.613531
 30
0.0
 10
4.111739
 20
58.307058
 30
0.0
 10
4.418445
 20
58.180254
 30
0.0
 10
4.724944
 20
58.307136
 30
0.0
 10
4.851930
 20
58.613531
 30
0.0
 10
4.724866
 20
58.920548
 30
0.0
 10
4.418445
 20
59.047431
 30
0.0
 10
4.111739
 20
58.920471
 30
0.0
 10
3.984545
 20
58.613531
 30
0.0
 10
4.111739
 20
58.307058
 30
0.0
 10
4.418445
 20
58.180254
 30
0.0
  0
LWPOLYLINE
  5
173
100
AcDbEntity
  8
bolinhas
 62
7
100
AcDbPolyline
 90
17
 70
0
 10
40.179083
 20
58.180254
 30
0.0
 10
40.485838
 20
58.307136
 30
0.0
 10
40.612774
 20
58.613531
 30
0.0
 10
40.485838
 20
58.920548
 30
0.0
 10
40.179083
 20
59.047431
 30
0.0
 10
39.872739
 20
58.920471
 30
0.0
 10
39.745598
 20
58.613531
 30
0.0
 10
39.872739
 20
58.307058
 30
0.0
 10
40.179083
 20
58.180254
 30
0.0
 10
40.485838
 20
58.307136
 30
0.0
 10
40.612774
 20
58.613531
 30
0.0
 10
40.485838
 20
58.920548
 30
0.0
 10
40.179083
 20
59.047431
 30
0.0
 10
39.872739
 20
58.920471
 30
0.0
 10
39.745598
 20
58.613531
 30
0.0
 10
39.872739
 20
58.307058
 30
0.0
 10
40.179083
 20
58.180254
 30
0.0
  0
LWPOLYLINE
  5
174
100
AcDbEntity
  8
bolinhas
 62
7
100
AcDbPolyline
 90
17
 70
0
 10
37.624839
 20
58.180254
 30
0.0
 10
37.932063
 20
58.307136
 30
0.0
 10
38.059153
 20
58.613531
 30
0.0
 10
37.932063
 20
58.920548
 30
0.0
 10
37.624839
 20
59.047431
 30
0.0
 10
37.318315
 20
58.920471
 30
0.0
 10
37.191148
 20
58.613531
 30
0.0
 10
37.318238
 20
58.307058
 30
0.0
 10
37.624839
 20
58.180254
 30
0.0
 10
37.932063
 20
58.307136
 30
0.0
 10
38.059153
 20
58.613531
 30
0.0
 10
37.932063
 20
58.920548
 30
0.0
 10
37.624839
 20
59.047431
 30
0.0
 10
37.318315
 20
58.920471
 30
0.0
 10
37.191148
 20
58.613531
 30
0.0
 10
37.318238
 20
58.307058
 30
0.0
 10
37.624839
 20
58.180254
 30
0.0
  0
LWPOLYLINE
  5
175
100
AcDbEntity
  8
bolinhas
 62
7
100
AcDbPolyline
 90
17
 70
0
 10
35.070389
 20
58.180254
 30
0.0
 10
35.376993
 20
58.307136
 30
0.0
 10
35.504083
 20
58.613531
 30
0.0
 10
35.376993
 20
58.920548
 30
0.0
 10
35.070389
 20
59.047431
 30
0.0
 10
34.763890
 20
58.920471
 30
0.0
 10
34.636904
 20
58.613531
 30
0.0
 10
34.763890
 20
58.307058
 30
0.0
 10
35.070389
 20
58.180254
 30
0.0
 10
35.376993
 20
58.307136
 30
0.0
 10
35.504083
 20
58.613531
 30
0.0
 10
35.376993
 20
58.920548
 30
0.0
 10
35.070389
 20
59.047431
 30
0.0
 10
34.763890
 20
58.920471
 30
0.0
 10
34.636904
 20
58.613531
 30
0.0
 10
34.763890
 20
58.307058
 30
0.0
 10
35.070389
 20
58.180254
 30
0.0
  0
LWPOLYLINE
  5
176
100
AcDbEntity
  8
bolinhas
 62
7
100
AcDbPolyline
 90
17
 70
0
 10
32.516148
 20
58.180254
 30
0.0
 10
32.822983
 20
58.307136
 30
0.0
 10
32.950463
 20
58.613531
 30
0.0
 10
32.823062
 20
58.920548
 30
0.0
 10
32.516148
 20
59.047431
 30
0.0
 10
32.209545
 20
58.920471
 30
0.0
 10
32.082454
 20
58.613531
 30
0.0
 10
32.209466
 20
58.307058
 30
0.0
 10
32.516148
 20
58.180254
 30
0.0
 10
32.822983
 20
58.307136
 30
0.0
 10
32.950463
 20
58.613531
 30
0.0
 10
32.823062
 20
58.920548
 30
0.0
 10
32.516148
 20
59.047431
 30
0.0
 10
32.209545
 20
58.920471
 30
0.0
 10
32.082454
 20
58.613531
 30
0.0
 10
32.209466
 20
58.307058
 30
0.0
 10
32.516148
 20
58.180254
 30
0.0
  0
LWPOLYLINE
  5
177
100
AcDbEntity
  8
bolinhas
 62
7
100
AcDbPolyline
 90
17
 70
0
 10
29.961698
 20
58.180254
 30
0.0
 10
30.268508
 20
58.307136
 30
0.0
 10
30.395804
 20
58.613531
 30
0.0
 10
30.268584
 20
58.920548
 30
0.0
 10
29.961698
 20
59.047431
 30
0.0
 10
29.654912
 20
58.920471
 30
0.0
 10
29.527799
 20
58.613531
 30
0.0
 10
29.655070
 20
58.307058
 30
0.0
 10
29.961698
 20
58.180254
 30
0.0
 10
30.268508
 20
58.307136
 30
0.0
 10
30.395804
 20
58.613531
 30
0.0
 10
30.268584
 20
58.920548
 30
0.0
 10
29.961698
 20
59.047431
 30
0.0
 10
29.654912
 20
58.920471
 30
0.0
 10
29.527799
 20
58.613531
 30
0.0
 10
29.655070
 20
58.307058
 30
0.0
 10
29.961698
 20
58.180254
 30
0.0
  0
LWPOLYLINE
  5
178
100
AcDbEntity
  8
bolinhas
 62
7
100
AcDbPolyline
 90
17
 70
0
 10
27.407248
 20
58.180254
 30
0.0
 10
27.713850
 20
58.307136
 30
0.0
 10
27.840940
 20
58.613531
 30
0.0
 10
27.713850
 20
58.920548
 30
0.0
 10
27.407248
 20
59.047431
 30
0.0
 10
27.100542
 20
58.920471
 30
0.0
 10
26.973348
 20
58.613531
 30
0.0
 10
27.100542
 20
58.307058
 30
0.0
 10
27.407248
 20
58.180254
 30
0.0
 10
27.713850
 20
58.307136
 30
0.0
 10
27.840940
 20
58.613531
 30
0.0
 10
27.713850
 20
58.920548
 30
0.0
 10
27.407248
 20
59.047431
 30
0.0
 10
27.100542
 20
58.920471
 30
0.0
 10
26.973348
 20
58.613531
 30
0.0
 10
27.100542
 20
58.307058
 30
0.0
 10
27.407248
 20
58.180254
 30
0.0
  0
LWPOLYLINE
  5
179
100
AcDbEntity
  8
bolinhas
 62
7
100
AcDbPolyline
 90
17
 70
0
 10
24.853628
 20
58.180254
 30
0.0
 10
25.160127
 20
58.307136
 30
0.0
 10
25.287113
 20
58.613531
 30
0.0
 10
25.160127
 20
58.920548
 30
0.0
 10
24.853628
 20
59.047431
 30
0.0
 10
24.546611
 20
58.920471
 30
0.0
 10
24.419728
 20
58.613531
 30
0.0
 10
24.546611
 20
58.307058
 30
0.0
 10
24.853628
 20
58.180254
 30
0.0
 10
25.160127
 20
58.307136
 30
0.0
 10
25.287113
 20
58.613531
 30
0.0
 10
25.160127
 20
58.920548
 30
0.0
 10
24.853628
 20
59.047431
 30
0.0
 10
24.546611
 20
58.920471
 30
0.0
 10
24.419728
 20
58.613531
 30
0.0
 10
24.546611
 20
58.307058
 30
0.0
 10
24.853628
 20
58.180254
 30
0.0
  0
LWPOLYLINE
  5
17a
100
AcDbEntity
  8
bolinhas
 62
7
100
AcDbPolyline
 90
17
 70
0
 10
22.299178
 20
58.180254
 30
0.0
 10
22.605677
 20
58.307136
 30
0.0
 10
22.732663
 20
58.613531
 30
0.0
 10
22.605677
 20
58.920548
 30
0.0
 10
22.299178
 20
59.047431
 30
0.0
 10
21.992369
 20
58.920471
 30
0.0
 10
21.865071
 20
58.613531
 30
0.0
 10
21.992213
 20
58.307058
 30
0.0
 10
22.299178
 20
58.180254
 30
0.0
 10
22.605677
 20
58.307136
 30
0.0
 10
22.732663
 20
58.613531
 30
0.0
 10
22.605677
 20
58.920548
 30
0.0
 10
22.299178
 20
59.047431
 30
0.0
 10
21.992369
 20
58.920471
 30
0.0
 10
21.865071
 20
58.613531
 30
0.0
 10
21.992213
 20
58.307058
 30
0.0
 10
22.299178
 20
58.180254
 30
0.0
  0
LWPOLYLINE
  5
17b
100
AcDbEntity
  8
bolinhas
 62
7
100
AcDbPolyline
 90
17
 70
0
 10
1.863995
 20
58.180254
 30
0.0
 10
2.170209
 20
58.307136
 30
0.0
 10
2.297065
 20
58.613531
 30
0.0
 10
2.170131
 20
58.920548
 30
0.0
 10
1.863995
 20
59.047431
 30
0.0
 10
1.557289
 20
58.920471
 30
0.0
 10
1.430095
 20
58.613531
 30
0.0
 10
1.557211
 20
58.307058
 30
0.0
 10
1.863995
 20
58.180254
 30
0.0
 10
2.170209
 20
58.307136
 30
0.0
 10
2.297065
 20
58.613531
 30
0.0
 10
2.170131
 20
58.920548
 30
0.0
 10
1.863995
 20
59.047431
 30
0.0
 10
1.557289
 20
58.920471
 30
0.0
 10
1.430095
 20
58.613531
 30
0.0
 10
1.557211
 20
58.307058
 30
0.0
 10
1.863995
 20
58.180254
 30
0.0
  0
LWPOLYLINE
  5
17c
100
AcDbEntity
  8
guardachuva
 62
7
100
AcDbPolyline
 90
209
 70
0
 10
36.224828
 20
36.150304
 30
0.0
 10
35.516343
 20
36.821445
 30
0.0
 10
34.767057
 20
37.459973
 30
0.0
 10
33.979930
 20
38.064693
 30
0.0
 10
33.157936
 20
38.634413
 30
0.0
 10
32.304036
 20
39.167951
 30
0.0
 10
31.421202
 20
39.664112
 30
0.0
 10
30.512393
 20
40.121707
 30
0.0
 10
29.580583
 20
40.539545
 30
0.0
 10
28.628735
 20
40.916439
 30
0.0
 10
27.659816
 20
41.251197
 30
0.0
 10
26.676790
 20
41.542628
 30
0.0
 10
25.682629
 20
41.789547
 30
0.0
 10
24.680293
 20
41.990760
 30
0.0
 10
23.672754
 20
42.145079
 30
0.0
 10
22.662977
 20
42.251316
 30
0.0
 10
21.653928
 20
42.308277
 30
0.0
 10
21.653928
 20
43.065578
 30
0.0
 10
21.653928
 20
43.822882
 30
0.0
 10
21.653928
 20
44.580183
 30
0.0
 10
21.653928
 20
45.337487
 30
0.0
 10
21.603760
 20
45.586252
 30
0.0
 10
21.466949
 20
45.789144
 30
0.0
 10
21.264024
 20
45.925813
 30
0.0
 10
21.015523
 20
45.975890
 30
0.0
 10
20.766782
 20
45.925813
 30
0.0
 10
20.563734
 20
45.789144
 30
0.0
 10
20.426876
 20
45.586252
 30
0.0
 10
20.376703
 20
45.337487
 30
0.0
 10
20.376703
 20
44.580183
 30
0.0
 10
20.376703
 20
43.822882
 30
0.0
 10
20.376703
 20
43.065578
 30
0.0
 10
20.376703
 20
42.308277
 30
0.0
 10
19.361341
 20
42.251508
 30
0.0
 10
18.346007
 20
42.145917
 30
0.0
 10
17.333670
 20
41.992679
 30
0.0
 10
16.327297
 20
41.792970
 30
0.0
 10
15.329858
 20
41.547965
 30
0.0
 10
14.344322
 20
41.258837
 30
0.0
 10
13.373655
 20
40.926765
 30
0.0
 10
12.420829
 20
40.552923
 30
0.0
 10
11.488811
 20
40.138485
 30
0.0
 10
10.580570
 20
39.684626
 30
0.0
 10
9.699073
 20
39.192521
 30
0.0
 10
8.847291
 20
38.663346
 30
0.0
 10
8.028192
 20
38.098281
 30
0.0
 10
7.244744
 20
37.498494
 30
0.0
 10
6.499916
 20
36.865162
 30
0.0
 10
5.796677
 20
36.199459
 30
0.0
 10
5.296236
 20
35.677424
 30
0.0
 10
4.826409
 20
35.143157
 30
0.0
 10
4.387428
 20
34.597187
 30
0.0
 10
3.979524
 20
34.040032
 30
0.0
 10
3.602931
 20
33.472218
 30
0.0
 10
3.257877
 20
32.894267
 30
0.0
 10
2.944598
 20
32.306697
 30
0.0
 10
2.663323
 20
31.710040
 30
0.0
 10
2.414285
 20
31.104808
 30
0.0
 10
2.197715
 20
30.491528
 30
0.0
 10
2.013846
 20
29.870727
 30
0.0
 10
1.862909
 20
29.242921
 30
0.0
 10
1.745136
 20
28.608635
 30
0.0
 10
1.660758
 20
27.968391
 30
0.0
 10
1.610009
 20
27.322715
 30
0.0
 10
1.593118
 20
26.672125
 30
0.0
 10
1.643194
 20
26.423656
 30
0.0
 10
1.779838
 20
26.220803
 30
0.0
 10
1.982671
 20
26.084061
 30
0.0
 10
2.231316
 20
26.033927
 30
0.0
 10
2.480057
 20
26.084061
 30
0.0
 10
2.683104
 20
26.220803
 30
0.0
 10
2.819962
 20
26.423656
 30
0.0
 10
2.870136
 20
26.672125
 30
0.0
 10
3.115471
 20
27.884057
 30
0.0
 10
3.784058
 20
28.874886
 30
0.0
 10
4.774763
 20
29.543518
 30
0.0
 10
5.986456
 20
29.788860
 30
0.0
 10
7.198542
 20
29.543518
 30
0.0
 10
8.189503
 20
28.874886
 30
0.0
 10
8.858229
 20
27.884057
 30
0.0
 10
9.103607
 20
26.672125
 30
0.0
 10
9.153690
 20
26.423656
 30
0.0
 10
9.290379
 20
26.220803
 30
0.0
 10
9.493335
 20
26.084061
 30
0.0
 10
9.742219
 20
26.033927
 30
0.0
 10
9.990546
 20
26.084061
 30
0.0
 10
10.193489
 20
26.220803
 30
0.0
 10
10.330399
 20
26.423656
 30
0.0
 10
10.380624
 20
26.672125
 30
0.0
 10
10.625905
 20
27.884057
 30
0.0
 10
11.294417
 20
28.874886
 30
0.0
 10
12.285164
 20
29.543518
 30
0.0
 10
13.497153
 20
29.788860
 30
0.0
 10
14.709261
 20
29.543524
 30
0.0
 10
15.700070
 20
28.874937
 30
0.0
 10
16.368604
 20
27.884232
 30
0.0
 10
16.613888
 20
26.672539
 30
0.0
 10
16.664032
 20
26.423828
 30
0.0
 10
16.800841
 20
26.220854
 30
0.0
 10
17.003879
 20
26.084069
 30
0.0
 10
17.252708
 20
26.033927
 30
0.0
 10
17.501178
 20
26.084069
 30
0.0
 10
17.704030
 20
26.220854
 30
0.0
 10
17.840771
 20
26.423828
 30
0.0
 10
17.890906
 20
26.672539
 30
0.0
 10
18.080075
 20
27.742004
 30
0.0
 10
18.602526
 20
28.652232
 30
0.0
 10
19.390667
 20
29.335625
 30
0.0
 10
20.376910
 20
29.724564
 30
0.0
 10
20.376910
 20
23.541027
 30
0.0
 10
20.376910
 20
17.357487
 30
0.0
 10
20.376910
 20
11.173951
 30
0.0
 10
20.376910
 20
4.990414
 30
0.0
 10
20.687865
 20
3.453996
 30
0.0
 10
21.535315
 20
2.197833
 30
0.0
 10
22.791142
 20
1.350122
 30
0.0
 10
24.327223
 20
1.039063
 30
0.0
 10
25.863415
 20
1.350122
 30
0.0
 10
27.119077
 20
2.197833
 30
0.0
 10
27.966289
 20
3.453996
 30
0.0
 10
28.277120
 20
4.990414
 30
0.0
 10
28.229861
 20
5.604495
 30
0.0
 10
28.089752
 20
6.197247
 30
0.0
 10
27.859306
 20
6.760638
 30
0.0
 10
27.541026
 20
7.286639
 30
0.0
 10
27.356030
 20
7.459666
 30
0.0
 10
27.126934
 20
7.545098
 30
0.0
 10
26.882438
 20
7.538324
 30
0.0
 10
26.651241
 20
7.434735
 30
0.0
 10
26.478130
 20
7.249368
 30
0.0
 10
26.392575
 20
7.020020
 30
0.0
 10
26.399380
 20
6.775269
 30
0.0
 10
26.503354
 20
6.543705
 30
0.0
 10
26.718203
 20
6.188187
 30
0.0
 10
26.873787
 20
5.807038
 30
0.0
 10
26.968390
 20
5.405904
 30
0.0
 10
27.000306
 20
4.990419
 30
0.0
 10
26.789925
 20
3.950837
 30
0.0
 10
26.216532
 20
3.100767
 30
0.0
 10
25.366757
 20
2.527040
 30
0.0
 10
24.327218
 20
2.316502
 30
0.0
 10
23.287944
 20
2.527012
 30
0.0
 10
22.438137
 20
3.100690
 30
0.0
 10
21.864599
 20
3.950752
 30
0.0
 10
21.654131
 20
4.990419
 30
0.0
 10
21.654131
 20
11.172762
 30
0.0
 10
21.654131
 20
17.355108
 30
0.0
 10
21.654131
 20
23.537451
 30
0.0
 10
21.654131
 20
29.719797
 30
0.0
 10
22.634530
 20
29.328310
 30
0.0
 10
23.417703
 20
28.645600
 30
0.0
 10
23.936702
 20
27.738227
 30
0.0
 10
24.124580
 20
26.672751
 30
0.0
 10
24.174727
 20
26.424043
 30
0.0
 10
24.311559
 20
26.221066
 30
0.0
 10
24.514658
 20
26.084281
 30
0.0
 10
24.763607
 20
26.034139
 30
0.0
 10
25.011639
 20
26.084281
 30
0.0
 10
25.214539
 20
26.221066
 30
0.0
 10
25.351524
 20
26.424043
 30
0.0
 10
25.401805
 20
26.672751
 30
0.0
 10
25.647085
 20
27.884805
 30
0.0
 10
26.315597
 20
28.875693
 30
0.0
 10
27.306344
 20
29.544348
 30
0.0
 10
28.518332
 20
29.789695
 30
0.0
 10
29.730242
 20
29.544320
 30
0.0
 10
30.721223
 20
28.875617
 30
0.0
 10
31.390048
 20
27.884718
 30
0.0
 10
31.635482
 20
26.672751
 30
0.0
 10
31.685526
 20
26.424043
 30
0.0
 10
31.822099
 20
26.221066
 30
0.0
 10
32.024859
 20
26.084281
 30
0.0
 10
32.273471
 20
26.034139
 30
0.0
 10
32.521886
 20
26.084281
 30
0.0
 10
32.724818
 20
26.221066
 30
0.0
 10
32.861678
 20
26.424043
 30
0.0
 10
32.911877
 20
26.672751
 30
0.0
 10
33.157241
 20
27.884805
 30
0.0
 10
33.825877
 20
28.875693
 30
0.0
 10
34.816589
 20
29.544348
 30
0.0
 10
36.028198
 20
29.789695
 30
0.0
 10
37.251284
 20
29.544320
 30
0.0
 10
38.251285
 20
28.875617
 30
0.0
 10
38.926135
 20
27.884718
 30
0.0
 10
39.173762
 20
26.672751
 30
0.0
 10
39.223876
 20
26.424043
 30
0.0
 10
39.360613
 20
26.221066
 30
0.0
 10
39.563579
 20
26.084281
 30
0.0
 10
39.812374
 20
26.034139
 30
0.0
 10
40.060527
 20
26.084281
 30
0.0
 10
40.263490
 20
26.221066
 30
0.0
 10
40.400497
 20
26.424043
 30
0.0
 10
40.450781
 20
26.672751
 30
0.0
 10
40.433678
 20
27.315083
 30
0.0
 10
40.382556
 20
27.953174
 30
0.0
 10
40.297664
 20
28.586511
 30
0.0
 10
40.179227
 20
29.214566
 30
0.0
 10
40.027470
 20
29.836823
 30
0.0
 10
39.842629
 20
30.452762
 30
0.0
 10
39.624931
 20
31.061865
 30
0.0
 10
39.374603
 20
31.663611
 30
0.0
 10
39.091875
 20
32.257477
 30
0.0
 10
38.776974
 20
32.842947
 30
0.0
 10
38.430135
 20
33.419496
 30
0.0
 10
38.051584
 20
33.986611
 30
0.0
 10
37.641549
 20
34.543771
 30
0.0
 10
37.200261
 20
35.090452
 30
0.0
 10
36.727945
 20
35.626138
 30
0.0
 10
36.224836
 20
36.150307
 30
0.0
  0
LWPOLYLINE
  5
17d
100
AcDbEntity
  8
texto
 62
7
100
AcDbPolyline
 90
45
 70
0
 10
27.425084
 20
36.724203
 30
0.0
 10
27.754812
 20
36.724203
 30
0.0
 10
28.084541
 20
36.724203
 30
0.0
 10
28.414268
 20
36.724203
 30
0.0
 10
28.743997
 20
36.724203
 30
0.0
 10
28.743997
 20
36.482677
 30
0.0
 10
28.743997
 20
36.241148
 30
0.0
 10
28.743997
 20
35.999620
 30
0.0
 10
28.743997
 20
35.758091
 30
0.0
 10
28.776261
 20
35.601630
 30
0.0
 10
28.864269
 20
35.473786
 30
0.0
 10
28.994864
 20
35.387556
 30
0.0
 10
29.154876
 20
35.355927
 30
0.0
 10
29.312167
 20
35.387584
 30
0.0
 10
29.440812
 20
35.473862
 30
0.0
 10
29.527658
 20
35.601718
 30
0.0
 10
29.559529
 20
35.758091
 30
0.0
 10
29.559529
 20
36.431654
 30
0.0
 10
29.559529
 20
37.105214
 30
0.0
 10
29.559529
 20
37.778774
 30
0.0
 10
29.559529
 20
38.452337
 30
0.0
 10
29.443406
 20
39.026270
 30
0.0
 10
29.126927
 20
39.495396
 30
0.0
 10
28.657922
 20
39.811923
 30
0.0
 10
28.084230
 20
39.928052
 30
0.0
 10
27.510841
 20
39.811951
 30
0.0
 10
27.042103
 20
39.495473
 30
0.0
 10
26.725810
 20
39.026357
 30
0.0
 10
26.609759
 20
38.452337
 30
0.0
 10
26.609759
 20
37.778774
 30
0.0
 10
26.609759
 20
37.105214
 30
0.0
 10
26.609759
 20
36.431654
 30
0.0
 10
26.609759
 20
35.758091
 30
0.0
 10
26.642098
 20
35.601630
 30
0.0
 10
26.730185
 20
35.473786
 30
0.0
 10
26.860624
 20
35.387556
 30
0.0
 10
27.020014
 20
35.355927
 30
0.0
 10
27.177981
 20
35.387584
 30
0.0
 10
27.306705
 20
35.473862
 30
0.0
 10
27.393350
 20
35.601718
 30
0.0
 10
27.425084
 20
35.758091
 30
0.0
 10
27.425084
 20
35.999620
 30
0.0
 10
27.425084
 20
36.241148
 30
0.0
 10
27.425084
 20
36.482677
 30
0.0
 10
27.425084
 20
36.724203
 30
0.0
  0
LWPOLYLINE
  5
17e
100
AcDbEntity
  8
texto
 62
7
100
AcDbPolyline
 90
25
 70
0
 10
28.743997
 20
37.538905
 30
0.0
 10
28.414268
 20
37.538905
 30
0.0
 10
28.084541
 20
37.538905
 30
0.0
 10
27.754812
 20
37.538905
 30
0.0
 10
27.425084
 20
37.538905
 30
0.0
 10
27.425084
 20
37.767262
 30
0.0
 10
27.425084
 20
37.995622
 30
0.0
 10
27.425084
 20
38.223980
 30
0.0
 10
27.425084
 20
38.452337
 30
0.0
 10
27.477096
 20
38.709292
 30
0.0
 10
27.618725
 20
38.919293
 30
0.0
 10
27.828374
 20
39.060960
 30
0.0
 10
28.084437
 20
39.112935
 30
0.0
 10
28.343716
 20
39.061866
 30
0.0
 10
28.553156
 20
38.921704
 30
0.0
 10
28.693177
 20
38.712007
 30
0.0
 10
28.744206
 20
38.452337
 30
0.0
 10
28.744206
 20
38.223980
 30
0.0
 10
28.744206
 20
37.995622
 30
0.0
 10
28.744206
 20
37.767262
 30
0.0
 10
28.744206
 20
37.538905
 30
0.0
 10
28.744152
 20
37.538905
 30
0.0
 10
28.744101
 20
37.538905
 30
0.0
 10
28.744051
 20
37.538905
 30
0.0
 10
28.743997
 20
37.538905
 30
0.0
  0
LWPOLYLINE
  5
17f
100
AcDbEntity
  8
texto
 62
7
100
AcDbPolyline
 90
25
 70
0
 10
24.494602
 20
39.928052
 30
0.0
 10
23.920734
 20
39.811951
 30
0.0
 10
23.451749
 20
39.495473
 30
0.0
 10
23.135365
 20
39.026357
 30
0.0
 10
23.019301
 20
38.452337
 30
0.0
 10
23.019301
 20
38.018539
 30
0.0
 10
23.019301
 20
37.584744
 30
0.0
 10
23.019301
 20
37.150948
 30
0.0
 10
23.019301
 20
36.717153
 30
0.0
 10
23.135365
 20
36.143731
 30
0.0
 10
23.451749
 20
35.674920
 30
0.0
 10
23.920734
 20
35.358558
 30
0.0
 10
24.494602
 20
35.242474
 30
0.0
 10
25.068054
 20
35.358558
 30
0.0
 10
25.536936
 20
35.674920
 30
0.0
 10
25.853371
 20
36.143731
 30
0.0
 10
25.969487
 20
36.717153
 30
0.0
 10
25.969487
 20
37.150948
 30
0.0
 10
25.969487
 20
37.584744
 30
0.0
 10
25.969487
 20
38.018539
 30
0.0
 10
25.969487
 20
38.452337
 30
0.0
 10
25.853400
 20
39.026357
 30
0.0
 10
25.537014
 20
39.495473
 30
0.0
 10
25.068143
 20
39.811951
 30
0.0
 10
24.494602
 20
39.928052
 30
0.0
  0
LWPOLYLINE
  5
180
100
AcDbEntity
  8
texto
 62
7
100
AcDbPolyline
 90
25
 70
0
 10
24.494602
 20
36.057176
 30
0.0
 10
24.238093
 20
36.109167
 30
0.0
 10
24.028267
 20
36.250820
 30
0.0
 10
23.886617
 20
36.460644
 30
0.0
 10
23.834626
 20
36.717153
 30
0.0
 10
23.834626
 20
37.150948
 30
0.0
 10
23.834626
 20
37.584744
 30
0.0
 10
23.834626
 20
38.018539
 30
0.0
 10
23.834626
 20
38.452337
 30
0.0
 10
23.886617
 20
38.709292
 30
0.0
 10
24.028267
 20
38.919293
 30
0.0
 10
24.238093
 20
39.060960
 30
0.0
 10
24.494602
 20
39.112935
 30
0.0
 10
24.751079
 20
39.060989
 30
0.0
 10
24.960830
 20
38.919370
 30
0.0
 10
25.102409
 20
38.709379
 30
0.0
 10
25.154370
 20
38.452337
 30
0.0
 10
25.154370
 20
38.018539
 30
0.0
 10
25.154370
 20
37.584744
 30
0.0
 10
25.154370
 20
37.150948
 30
0.0
 10
25.154370
 20
36.717153
 30
0.0
 10
25.102439
 20
36.460644
 30
0.0
 10
24.960909
 20
36.250820
 30
0.0
 10
24.751166
 20
36.109167
 30
0.0
 10
24.494602
 20
36.057176
 30
0.0
  0
LWPOLYLINE
  5
181
100
AcDbEntity
  8
texto
 62
7
100
AcDbPolyline
 90
89
 70
0
 10
20.443488
 20
39.010474
 30
0.0
 10
20.570267
 20
39.010474
 30
0.0
 10
20.697046
 20
39.010474
 30
0.0
 10
20.823825
 20
39.010474
 30
0.0
 10
20.950603
 20
39.010474
 30
0.0
 10
21.195329
 20
38.961536
 30
0.0
 10
21.395002
 20
38.828212
 30
0.0
 10
21.529538
 20
38.630721
 30
0.0
 10
21.578845
 20
38.389283
 30
0.0
 10
21.546409
 20
38.188293
 30
0.0
 10
21.454995
 20
38.012914
 30
0.0
 10
21.313455
 20
37.874984
 30
0.0
 10
21.130634
 20
37.786346
 30
0.0
 10
21.007139
 20
37.726171
 30
0.0
 10
20.912983
 20
37.632397
 30
0.0
 10
20.854803
 20
37.513810
 30
0.0
 10
20.839227
 20
37.379201
 30
0.0
 10
20.865014
 20
37.246898
 30
0.0
 10
20.931652
 20
37.132463
 30
0.0
 10
21.031466
 20
37.045211
 30
0.0
 10
21.156770
 20
36.994459
 30
0.0
 10
21.380347
 20
36.907644
 30
0.0
 10
21.549267
 20
36.767707
 30
0.0
 10
21.656078
 20
36.583670
 30
0.0
 10
21.693337
 20
36.364556
 30
0.0
 10
21.693337
 20
36.213770
 30
0.0
 10
21.693337
 20
36.062984
 30
0.0
 10
21.693337
 20
35.912196
 30
0.0
 10
21.693337
 20
35.761410
 30
0.0
 10
21.725680
 20
35.603696
 30
0.0
 10
21.813790
 20
35.474720
 30
0.0
 10
21.944290
 20
35.387666
 30
0.0
 10
22.103800
 20
35.355719
 30
0.0
 10
22.263223
 20
35.387666
 30
0.0
 10
22.393731
 20
35.474720
 30
0.0
 10
22.481890
 20
35.603696
 30
0.0
 10
22.514262
 20
35.761410
 30
0.0
 10
22.514262
 20
35.912196
 30
0.0
 10
22.514262
 20
36.062984
 30
0.0
 10
22.514262
 20
36.213770
 30
0.0
 10
22.514262
 20
36.364556
 30
0.0
 10
22.490829
 20
36.628964
 30
0.0
 10
22.421368
 20
36.879916
 30
0.0
 10
22.307148
 20
37.113678
 30
0.0
 10
22.149430
 20
37.326519
 30
0.0
 10
22.125475
 20
37.353527
 30
0.0
 10
22.101520
 20
37.380536
 30
0.0
 10
22.077565
 20
37.407545
 30
0.0
 10
22.053610
 20
37.434553
 30
0.0
 10
22.074246
 20
37.464421
 30
0.0
 10
22.094882
 20
37.494288
 30
0.0
 10
22.115518
 20
37.524156
 30
0.0
 10
22.136154
 20
37.554021
 30
0.0
 10
22.247574
 20
37.745833
 30
0.0
 10
22.328291
 20
37.950927
 30
0.0
 10
22.377394
 20
38.166322
 30
0.0
 10
22.393966
 20
38.389051
 30
0.0
 10
22.280474
 20
38.947679
 30
0.0
 10
21.971059
 20
39.404577
 30
0.0
 10
21.512309
 20
39.712995
 30
0.0
 10
20.950814
 20
39.826189
 30
0.0
 10
20.721315
 20
39.826189
 30
0.0
 10
20.491817
 20
39.826189
 30
0.0
 10
20.262319
 20
39.826189
 30
0.0
 10
20.032821
 20
39.826189
 30
0.0
 10
19.875180
 20
39.793869
 30
0.0
 10
19.746571
 20
39.705762
 30
0.0
 10
19.659922
 20
39.575150
 30
0.0
 10
19.628166
 20
39.415310
 30
0.0
 10
19.628166
 20
38.501777
 30
0.0
 10
19.628166
 20
37.588243
 30
0.0
 10
19.628166
 20
36.674712
 30
0.0
 10
19.628166
 20
35.761179
 30
0.0
 10
19.659922
 20
35.603462
 30
0.0
 10
19.746571
 20
35.474486
 30
0.0
 10
19.875180
 20
35.387432
 30
0.0
 10
20.032821
 20
35.355487
 30
0.0
 10
20.192571
 20
35.387432
 30
0.0
 10
20.323193
 20
35.474486
 30
0.0
 10
20.411349
 20
35.603462
 30
0.0
 10
20.443698
 20
35.761179
 30
0.0
 10
20.443698
 20
36.573496
 30
0.0
 10
20.443698
 20
37.385814
 30
0.0
 10
20.443698
 20
38.198131
 30
0.0
 10
20.443698
 20
39.010448
 30
0.0
 10
20.443646
 20
39.010448
 30
0.0
 10
20.443595
 20
39.010448
 30
0.0
 10
20.443543
 20
39.010448
 30
0.0
 10
20.443488
 20
39.010474
 30
0.0
  0
LWPOLYLINE
  5
182
100
AcDbEntity
  8
texto
 62
7
100
AcDbPolyline
 90
45
 70
0
 10
16.820259
 20
36.724203
 30
0.0
 10
17.150299
 20
36.724203
 30
0.0
 10
17.480338
 20
36.724203
 30
0.0
 10
17.810378
 20
36.724203
 30
0.0
 10
18.140418
 20
36.724203
 30
0.0
 10
18.140418
 20
36.482677
 30
0.0
 10
18.140418
 20
36.241148
 30
0.0
 10
18.140418
 20
35.999620
 30
0.0
 10
18.140418
 20
35.758091
 30
0.0
 10
18.172816
 20
35.601630
 30
0.0
 10
18.261156
 20
35.473786
 30
0.0
 10
18.392157
 20
35.387556
 30
0.0
 10
18.552540
 20
35.355927
 30
0.0
 10
18.709111
 20
35.387584
 30
0.0
 10
18.837390
 20
35.473862
 30
0.0
 10
18.924097
 20
35.601718
 30
0.0
 10
18.955950
 20
35.758091
 30
0.0
 10
18.955950
 20
36.431654
 30
0.0
 10
18.955950
 20
37.105214
 30
0.0
 10
18.955950
 20
37.778774
 30
0.0
 10
18.955950
 20
38.452337
 30
0.0
 10
18.839960
 20
39.026270
 30
0.0
 10
18.523787
 20
39.495396
 30
0.0
 10
18.055131
 20
39.811923
 30
0.0
 10
17.481687
 20
39.928052
 30
0.0
 10
16.907993
 20
39.811951
 30
0.0
 10
16.438990
 20
39.495473
 30
0.0
 10
16.122510
 20
39.026357
 30
0.0
 10
16.006386
 20
38.452337
 30
0.0
 10
16.006386
 20
37.778774
 30
0.0
 10
16.006386
 20
37.105214
 30
0.0
 10
16.006386
 20
36.431654
 30
0.0
 10
16.006386
 20
35.758091
 30
0.0
 10
16.038561
 20
35.601630
 30
0.0
 10
16.126424
 20
35.473786
 30
0.0
 10
16.256988
 20
35.387556
 30
0.0
 10
16.417264
 20
35.355927
 30
0.0
 10
16.573770
 20
35.387584
 30
0.0
 10
16.701907
 20
35.473862
 30
0.0
 10
16.788470
 20
35.601718
 30
0.0
 10
16.820259
 20
35.758091
 30
0.0
 10
16.820259
 20
35.999620
 30
0.0
 10
16.820259
 20
36.241148
 30
0.0
 10
16.820259
 20
36.482677
 30
0.0
 10
16.820259
 20
36.724203
 30
0.0
  0
LWPOLYLINE
  5
183
100
AcDbEntity
  8
texto
 62
7
100
AcDbPolyline
 90
21
 70
0
 10
18.140625
 20
37.538905
 30
0.0
 10
17.810586
 20
37.538905
 30
0.0
 10
17.480546
 20
37.538905
 30
0.0
 10
17.150506
 20
37.538905
 30
0.0
 10
16.820467
 20
37.538905
 30
0.0
 10
16.820467
 20
37.767262
 30
0.0
 10
16.820467
 20
37.995622
 30
0.0
 10
16.820467
 20
38.223980
 30
0.0
 10
16.820467
 20
38.452337
 30
0.0
 10
16.872452
 20
38.709292
 30
0.0
 10
17.014213
 20
38.919293
 30
0.0
 10
17.224457
 20
39.060960
 30
0.0
 10
17.481894
 20
39.112935
 30
0.0
 10
17.740659
 20
39.061866
 30
0.0
 10
17.949783
 20
38.921704
 30
0.0
 10
18.089645
 20
38.712007
 30
0.0
 10
18.140625
 20
38.452337
 30
0.0
 10
18.140625
 20
38.223980
 30
0.0
 10
18.140625
 20
37.995622
 30
0.0
 10
18.140625
 20
37.767262
 30
0.0
 10
18.140625
 20
37.538905
 30
0.0
  0
LWPOLYLINE
  5
184
100
AcDbEntity
  8
texto
 62
7
100
AcDbPolyline
 90
81
 70
0
 10
13.859495
 20
39.928052
 30
0.0
 10
13.285549
 20
39.811951
 30
0.0
 10
12.816798
 20
39.495473
 30
0.0
 10
12.500726
 20
39.026357
 30
0.0
 10
12.384817
 20
38.452337
 30
0.0
 10
12.384817
 20
38.018539
 30
0.0
 10
12.384817
 20
37.584744
 30
0.0
 10
12.384817
 20
37.150948
 30
0.0
 10
12.384817
 20
36.717153
 30
0.0
 10
12.500726
 20
36.143731
 30
0.0
 10
12.816798
 20
35.674920
 30
0.0
 10
13.285549
 20
35.358558
 30
0.0
 10
13.859495
 20
35.242474
 30
0.0
 10
14.432819
 20
35.358558
 30
0.0
 10
14.901415
 20
35.674920
 30
0.0
 10
15.217564
 20
36.143731
 30
0.0
 10
15.333551
 20
36.717153
 30
0.0
 10
15.333551
 20
36.933894
 30
0.0
 10
15.333551
 20
37.150638
 30
0.0
 10
15.333551
 20
37.367379
 30
0.0
 10
15.333551
 20
37.584123
 30
0.0
 10
15.301756
 20
37.744591
 30
0.0
 10
15.215147
 20
37.875582
 30
0.0
 10
15.086887
 20
37.963875
 30
0.0
 10
14.930141
 20
37.996243
 30
0.0
 10
14.697531
 20
37.996243
 30
0.0
 10
14.464922
 20
37.996243
 30
0.0
 10
14.232313
 20
37.996243
 30
0.0
 10
13.999704
 20
37.996243
 30
0.0
 10
13.841717
 20
37.963847
 30
0.0
 10
13.712546
 20
37.875506
 30
0.0
 10
13.625376
 20
37.744504
 30
0.0
 10
13.593389
 20
37.584123
 30
0.0
 10
13.625376
 20
37.425178
 30
0.0
 10
13.712546
 20
37.294915
 30
0.0
 10
13.841717
 20
37.206848
 30
0.0
 10
13.999704
 20
37.174488
 30
0.0
 10
14.129697
 20
37.174488
 30
0.0
 10
14.259691
 20
37.174488
 30
0.0
 10
14.389685
 20
37.174488
 30
0.0
 10
14.519678
 20
37.174488
 30
0.0
 10
14.519678
 20
37.060154
 30
0.0
 10
14.519678
 20
36.945821
 30
0.0
 10
14.519678
 20
36.831487
 30
0.0
 10
14.519678
 20
36.717153
 30
0.0
 10
14.467742
 20
36.460644
 30
0.0
 10
14.326166
 20
36.250820
 30
0.0
 10
14.116300
 20
36.109167
 30
0.0
 10
13.859495
 20
36.057176
 30
0.0
 10
13.602713
 20
36.109167
 30
0.0
 10
13.392695
 20
36.250820
 30
0.0
 10
13.250928
 20
36.460644
 30
0.0
 10
13.198898
 20
36.717153
 30
0.0
 10
13.198898
 20
37.150948
 30
0.0
 10
13.198898
 20
37.584744
 30
0.0
 10
13.198898
 20
38.018539
 30
0.0
 10
13.198898
 20
38.452337
 30
0.0
 10
13.250928
 20
38.709292
 30
0.0
 10
13.392695
 20
38.919293
 30
0.0
 10
13.602713
 20
39.060960
 30
0.0
 10
13.859495
 20
39.112935
 30
0.0
 10
14.065663
 20
39.080713
 30
0.0
 10
14.246495
 20
38.989733
 30
0.0
 10
14.389954
 20
38.848506
 30
0.0
 10
14.484004
 20
38.665553
 30
0.0
 10
14.517938
 20
38.591577
 30
0.0
 10
14.564764
 20
38.526745
 30
0.0
 10
14.623218
 20
38.472409
 30
0.0
 10
14.692035
 20
38.429934
 30
0.0
 10
14.767351
 20
38.402305
 30
0.0
 10
14.845311
 20
38.389971
 30
0.0
 10
14.924204
 20
38.393245
 30
0.0
 10
15.002319
 20
38.412521
 30
0.0
 10
15.142246
 20
38.494746
 30
0.0
 10
15.236458
 20
38.619983
 30
0.0
 10
15.276809
 20
38.771273
 30
0.0
 10
15.255151
 20
38.931666
 30
0.0
 10
15.040697
 20
39.338741
 30
0.0
 10
14.718636
 20
39.653320
 30
0.0
 10
14.315919
 20
39.856170
 30
0.0
 10
13.859495
 20
39.928052
 30
0.0
  0
LWPOLYLINE
  5
185
100
AcDbEntity
  8
texto
 62
7
100
AcDbPolyline
 90
81
 70
0
 10
35.129501
 20
34.468008
 30
0.0
 10
34.762626
 20
34.393623
 30
0.0
 10
34.462680
 20
34.190886
 30
0.0
 10
34.260267
 20
33.890415
 30
0.0
 10
34.185995
 20
33.522846
 30
0.0
 10
34.185995
 20
33.127058
 30
0.0
 10
34.185995
 20
32.731269
 30
0.0
 10
34.185995
 20
32.335481
 30
0.0
 10
34.185995
 20
31.939692
 30
0.0
 10
34.260267
 20
31.573122
 30
0.0
 10
34.462680
 20
31.273442
 30
0.0
 10
34.762626
 20
31.071218
 30
0.0
 10
35.129501
 20
30.997019
 30
0.0
 10
35.310309
 20
30.997019
 30
0.0
 10
35.491118
 20
30.997019
 30
0.0
 10
35.671926
 20
30.997019
 30
0.0
 10
35.852735
 20
30.997019
 30
0.0
 10
35.970607
 20
31.021290
 30
0.0
 10
36.066936
 20
31.087424
 30
0.0
 10
36.131920
 20
31.185411
 30
0.0
 10
36.155768
 20
31.305231
 30
0.0
 10
36.131920
 20
31.423073
 30
0.0
 10
36.066936
 20
31.519328
 30
0.0
 10
35.970607
 20
31.584242
 30
0.0
 10
35.852735
 20
31.608061
 30
0.0
 10
35.671926
 20
31.608061
 30
0.0
 10
35.491118
 20
31.608061
 30
0.0
 10
35.310309
 20
31.608061
 30
0.0
 10
35.129501
 20
31.608061
 30
0.0
 10
35.000471
 20
31.634167
 30
0.0
 10
34.894971
 20
31.705273
 30
0.0
 10
34.823772
 20
31.810641
 30
0.0
 10
34.797638
 20
31.939514
 30
0.0
 10
34.797638
 20
32.099221
 30
0.0
 10
34.797638
 20
32.258925
 30
0.0
 10
34.797638
 20
32.418632
 30
0.0
 10
34.797638
 20
32.578336
 30
0.0
 10
35.000692
 20
32.578336
 30
0.0
 10
35.203745
 20
32.578336
 30
0.0
 10
35.406798
 20
32.578336
 30
0.0
 10
35.609851
 20
32.578336
 30
0.0
 10
35.729401
 20
32.602607
 30
0.0
 10
35.827191
 20
32.668720
 30
0.0
 10
35.893208
 20
32.766643
 30
0.0
 10
35.917451
 20
32.886345
 30
0.0
 10
35.893208
 20
33.004215
 30
0.0
 10
35.827191
 20
33.100546
 30
0.0
 10
35.729401
 20
33.165527
 30
0.0
 10
35.609851
 20
33.189375
 30
0.0
 10
35.406798
 20
33.189375
 30
0.0
 10
35.203745
 20
33.189375
 30
0.0
 10
35.000692
 20
33.189375
 30
0.0
 10
34.797638
 20
33.189375
 30
0.0
 10
34.797638
 20
33.272701
 30
0.0
 10
34.797638
 20
33.356027
 30
0.0
 10
34.797638
 20
33.439353
 30
0.0
 10
34.797638
 20
33.522680
 30
0.0
 10
34.823772
 20
33.652372
 30
0.0
 10
34.894971
 20
33.758324
 30
0.0
 10
35.000471
 20
33.829777
 30
0.0
 10
35.129501
 20
33.855995
 30
0.0
 10
35.290500
 20
33.855995
 30
0.0
 10
35.451502
 20
33.855995
 30
0.0
 10
35.612504
 20
33.855995
 30
0.0
 10
35.773506
 20
33.855995
 30
0.0
 10
35.891376
 20
33.880295
 30
0.0
 10
35.987707
 20
33.946501
 30
0.0
 10
36.052689
 20
34.044556
 30
0.0
 10
36.076537
 20
34.164411
 30
0.0
 10
36.052689
 20
34.282402
 30
0.0
 10
35.987707
 20
34.378792
 30
0.0
 10
35.891376
 20
34.443799
 30
0.0
 10
35.773506
 20
34.467647
 30
0.0
 10
35.612504
 20
34.467647
 30
0.0
 10
35.451502
 20
34.467647
 30
0.0
 10
35.290500
 20
34.467647
 30
0.0
 10
35.129501
 20
34.467647
 30
0.0
 10
35.129501
 20
34.467751
 30
0.0
 10
35.129501
 20
34.467853
 30
0.0
 10
35.129501
 20
34.467957
 30
0.0
 10
35.129501
 20
34.468008
 30
0.0
  0
LWPOLYLINE
  5
186
100
AcDbEntity
  8
texto
 62
7
100
AcDbPolyline
 90
49
 70
0
 10
31.884171
 20
34.468008
 30
0.0
 10
31.764469
 20
34.444076
 30
0.0
 10
31.666546
 20
34.378854
 30
0.0
 10
31.600436
 20
34.282250
 30
0.0
 10
31.576165
 20
34.164159
 30
0.0
 10
31.576165
 20
33.449429
 30
0.0
 10
31.576165
 20
32.734695
 30
0.0
 10
31.576165
 20
32.019965
 30
0.0
 10
31.576165
 20
31.305234
 30
0.0
 10
31.600436
 20
31.185326
 30
0.0
 10
31.666546
 20
31.087350
 30
0.0
 10
31.764469
 20
31.021265
 30
0.0
 10
31.884171
 20
30.997022
 30
0.0
 10
32.055231
 20
30.997022
 30
0.0
 10
32.226292
 20
30.997022
 30
0.0
 10
32.397352
 20
30.997022
 30
0.0
 10
32.568413
 20
30.997022
 30
0.0
 10
33.006331
 20
31.085705
 30
0.0
 10
33.364294
 20
31.327397
 30
0.0
 10
33.605822
 20
31.685562
 30
0.0
 10
33.694437
 20
32.123667
 30
0.0
 10
33.672424
 20
32.345093
 30
0.0
 10
33.607770
 20
32.555908
 30
0.0
 10
33.502552
 20
32.751163
 30
0.0
 10
33.358852
 20
32.925923
 30
0.0
 10
33.341609
 20
32.943252
 30
0.0
 10
33.324337
 20
32.960580
 30
0.0
 10
33.307093
 20
32.977909
 30
0.0
 10
33.289849
 20
32.995237
 30
0.0
 10
33.297638
 20
33.018633
 30
0.0
 10
33.305428
 20
33.042030
 30
0.0
 10
33.313217
 20
33.065426
 30
0.0
 10
33.321006
 20
33.088822
 30
0.0
 10
33.347564
 20
33.176695
 30
0.0
 10
33.366557
 20
33.264630
 30
0.0
 10
33.377959
 20
33.352288
 30
0.0
 10
33.381769
 20
33.439345
 30
0.0
 10
33.299416
 20
33.839522
 30
0.0
 10
33.074985
 20
34.166623
 30
0.0
 10
32.742400
 20
34.387327
 30
0.0
 10
32.335597
 20
34.468299
 30
0.0
 10
32.222767
 20
34.468299
 30
0.0
 10
32.109937
 20
34.468299
 30
0.0
 10
31.997105
 20
34.468299
 30
0.0
 10
31.884275
 20
34.468299
 30
0.0
 10
31.884275
 20
34.468248
 30
0.0
 10
31.884275
 20
34.468197
 30
0.0
 10
31.884275
 20
34.468144
 30
0.0
 10
31.884171
 20
34.468008
 30
0.0
  0
LWPOLYLINE
  5
187
100
AcDbEntity
  8
texto
 62
7
100
AcDbPolyline
 90
37
 70
0
 10
32.568413
 20
31.608253
 30
0.0
 10
32.474455
 20
31.608253
 30
0.0
 10
32.380501
 20
31.608253
 30
0.0
 10
32.286543
 20
31.608253
 30
0.0
 10
32.192589
 20
31.608253
 30
0.0
 10
32.192589
 20
32.171419
 30
0.0
 10
32.192589
 20
32.734588
 30
0.0
 10
32.192589
 20
33.297754
 30
0.0
 10
32.192589
 20
33.860923
 30
0.0
 10
32.233345
 20
33.859512
 30
0.0
 10
32.274100
 20
33.858101
 30
0.0
 10
32.314856
 20
33.856690
 30
0.0
 10
32.355612
 20
33.855278
 30
0.0
 10
32.515431
 20
33.817421
 30
0.0
 10
32.647616
 20
33.725727
 30
0.0
 10
32.737611
 20
33.594790
 30
0.0
 10
32.770845
 20
33.439215
 30
0.0
 10
32.761278
 20
33.350338
 30
0.0
 10
32.733451
 20
33.266885
 30
0.0
 10
32.688586
 20
33.191560
 30
0.0
 10
32.627931
 20
33.127066
 30
0.0
 10
32.575940
 20
33.067037
 30
0.0
 10
32.541314
 20
32.995776
 30
0.0
 10
32.525453
 20
32.917355
 30
0.0
 10
32.529799
 20
32.835864
 30
0.0
 10
32.556243
 20
32.759023
 30
0.0
 10
32.600377
 20
32.693556
 30
0.0
 10
32.660299
 20
32.641582
 30
0.0
 10
32.734103
 20
32.605223
 30
0.0
 10
32.876639
 20
32.529537
 30
0.0
 10
32.986779
 20
32.417856
 30
0.0
 10
33.057798
 20
32.279460
 30
0.0
 10
33.082972
 20
32.123619
 30
0.0
 10
33.042383
 20
31.923123
 30
0.0
 10
32.932003
 20
31.759282
 30
0.0
 10
32.768463
 20
31.648752
 30
0.0
 10
32.568413
 20
31.608253
 30
0.0
  0
LWPOLYLINE
  5
188
100
AcDbEntity
  8
texto
 62
7
100
AcDbPolyline
 90
49
 70
0
 10
29.055940
 20
34.458051
 30
0.0
 10
28.937949
 20
34.434175
 30
0.0
 10
28.841558
 20
34.369120
 30
0.0
 10
28.776551
 20
34.272722
 30
0.0
 10
28.752704
 20
34.154815
 30
0.0
 10
28.752704
 20
33.628202
 30
0.0
 10
28.752704
 20
33.101593
 30
0.0
 10
28.752704
 20
32.574980
 30
0.0
 10
28.752704
 20
32.048368
 30
0.0
 10
28.842518
 20
31.604618
 30
0.0
 10
29.087306
 20
31.241909
 30
0.0
 10
29.450083
 20
30.997194
 30
0.0
 10
29.893869
 20
30.907411
 30
0.0
 10
30.337412
 20
30.997222
 30
0.0
 10
30.700068
 20
31.241988
 30
0.0
 10
30.944808
 20
31.604703
 30
0.0
 10
31.034617
 20
32.048368
 30
0.0
 10
31.034617
 20
32.574980
 30
0.0
 10
31.034617
 20
33.101593
 30
0.0
 10
31.034617
 20
33.628202
 30
0.0
 10
31.034617
 20
34.154815
 30
0.0
 10
31.010741
 20
34.272806
 30
0.0
 10
30.945621
 20
34.369197
 30
0.0
 10
30.849033
 20
34.434207
 30
0.0
 10
30.730768
 20
34.458054
 30
0.0
 10
30.609906
 20
34.434573
 30
0.0
 10
30.512263
 20
34.370151
 30
0.0
 10
30.446977
 20
34.273876
 30
0.0
 10
30.423185
 20
34.154835
 30
0.0
 10
30.423185
 20
33.628222
 30
0.0
 10
30.423185
 20
33.101612
 30
0.0
 10
30.423185
 20
32.575000
 30
0.0
 10
30.423185
 20
32.048387
 30
0.0
 10
30.381518
 20
31.842484
 30
0.0
 10
30.267966
 20
31.674223
 30
0.0
 10
30.099694
 20
31.560719
 30
0.0
 10
29.893878
 20
31.519080
 30
0.0
 10
29.687906
 20
31.560719
 30
0.0
 10
29.519504
 20
31.674223
 30
0.0
 10
29.405856
 20
31.842484
 30
0.0
 10
29.364155
 20
32.048387
 30
0.0
 10
29.364155
 20
32.575000
 30
0.0
 10
29.364155
 20
33.101612
 30
0.0
 10
29.364155
 20
33.628222
 30
0.0
 10
29.364155
 20
34.154835
 30
0.0
 10
29.340307
 20
34.273876
 30
0.0
 10
29.274902
 20
34.370151
 30
0.0
 10
29.177064
 20
34.434573
 30
0.0
 10
29.055940
 20
34.458051
 30
0.0
  0
LWPOLYLINE
  5
189
100
AcDbEntity
  8
texto
 62
7
100
AcDbPolyline
 90
37
 70
0
 10
26.777553
 20
34.468014
 30
0.0
 10
26.659832
 20
34.444081
 30
0.0
 10
26.563637
 20
34.378860
 30
0.0
 10
26.498747
 20
34.282255
 30
0.0
 10
26.474942
 20
34.164165
 30
0.0
 10
26.474942
 20
33.449434
 30
0.0
 10
26.474942
 20
32.734701
 30
0.0
 10
26.474942
 20
32.019970
 30
0.0
 10
26.474942
 20
31.305240
 30
0.0
 10
26.498776
 20
31.185332
 30
0.0
 10
26.563713
 20
31.087356
 30
0.0
 10
26.659918
 20
31.021271
 30
0.0
 10
26.777552
 20
30.997028
 30
0.0
 10
27.120710
 20
30.997028
 30
0.0
 10
27.463868
 20
30.997028
 30
0.0
 10
27.807027
 20
30.997028
 30
0.0
 10
28.150185
 20
30.997028
 30
0.0
 10
28.270160
 20
31.021299
 30
0.0
 10
28.368277
 20
31.087432
 30
0.0
 10
28.434504
 20
31.185420
 30
0.0
 10
28.458803
 20
31.305240
 30
0.0
 10
28.434899
 20
31.424216
 30
0.0
 10
28.369350
 20
31.520350
 30
0.0
 10
28.271368
 20
31.584629
 30
0.0
 10
28.150171
 20
31.608053
 30
0.0
 10
27.884117
 20
31.608053
 30
0.0
 10
27.618063
 20
31.608053
 30
0.0
 10
27.352009
 20
31.608053
 30
0.0
 10
27.085955
 20
31.608053
 30
0.0
 10
27.085955
 20
32.247029
 30
0.0
 10
27.085955
 20
32.886003
 30
0.0
 10
27.085955
 20
33.524980
 30
0.0
 10
27.085955
 20
34.163956
 30
0.0
 10
27.061653
 20
34.282252
 30
0.0
 10
26.995448
 20
34.378911
 30
0.0
 10
26.897391
 20
34.444101
 30
0.0
 10
26.777553
 20
34.468014
 30
0.0
  0
LWPOLYLINE
  5
18a
100
AcDbEntity
  8
texto
 62
7
100
AcDbPolyline
 90
85
 70
0
 10
24.791611
 20
34.547036
 30
0.0
 10
24.347860
 20
34.457227
 30
0.0
 10
23.985153
 20
34.212487
 30
0.0
 10
23.740437
 20
33.849832
 30
0.0
 10
23.650654
 20
33.406288
 30
0.0
 10
23.650654
 20
33.066809
 30
0.0
 10
23.650654
 20
32.727332
 30
0.0
 10
23.650654
 20
32.387856
 30
0.0
 10
23.650654
 20
32.048379
 30
0.0
 10
23.740467
 20
31.604630
 30
0.0
 10
23.985232
 20
31.241920
 30
0.0
 10
24.347947
 20
30.997206
 30
0.0
 10
24.791611
 20
30.907422
 30
0.0
 10
25.235276
 20
30.997234
 30
0.0
 10
25.597993
 20
31.241999
 30
0.0
 10
25.842756
 20
31.604714
 30
0.0
 10
25.932568
 20
32.048379
 30
0.0
 10
25.930113
 20
32.113801
 30
0.0
 10
25.922708
 20
32.184105
 30
0.0
 10
25.910326
 20
32.259811
 30
0.0
 10
25.892944
 20
32.341450
 30
0.0
 10
25.872328
 20
32.397053
 30
0.0
 10
25.841250
 20
32.447331
 30
0.0
 10
25.800604
 20
32.491075
 30
0.0
 10
25.751286
 20
32.527081
 30
0.0
 10
25.695186
 20
32.552594
 30
0.0
 10
25.635994
 20
32.566705
 30
0.0
 10
25.575438
 20
32.569245
 30
0.0
 10
25.515255
 20
32.559876
 30
0.0
 10
25.458667
 20
32.539499
 30
0.0
 10
25.407896
 20
32.508720
 30
0.0
 10
25.364083
 20
32.468371
 30
0.0
 10
25.328379
 20
32.419273
 30
0.0
 10
25.303191
 20
32.365199
 30
0.0
 10
25.288797
 20
32.308517
 30
0.0
 10
25.285479
 20
32.251215
 30
0.0
 10
25.293547
 20
32.195273
 30
0.0
 10
25.302550
 20
32.167389
 30
0.0
 10
25.311426
 20
32.132806
 30
0.0
 10
25.318208
 20
32.092741
 30
0.0
 10
25.320917
 20
32.048418
 30
0.0
 10
25.279218
 20
31.842512
 30
0.0
 10
25.165595
 20
31.674251
 30
0.0
 10
24.997251
 20
31.560747
 30
0.0
 10
24.791402
 20
31.519111
 30
0.0
 10
24.585497
 20
31.560747
 30
0.0
 10
24.417236
 20
31.674251
 30
0.0
 10
24.303732
 20
31.842512
 30
0.0
 10
24.262094
 20
32.048418
 30
0.0
 10
24.262094
 20
32.387895
 30
0.0
 10
24.262094
 20
32.727372
 30
0.0
 10
24.262094
 20
33.066848
 30
0.0
 10
24.262094
 20
33.406325
 30
0.0
 10
24.303032
 20
33.614427
 30
0.0
 10
24.415369
 20
33.782668
 30
0.0
 10
24.583398
 20
33.895221
 30
0.0
 10
24.791402
 20
33.936254
 30
0.0
 10
24.997251
 20
33.894550
 30
0.0
 10
25.165595
 20
33.780879
 30
0.0
 10
25.279218
 20
33.612415
 30
0.0
 10
25.320917
 20
33.406325
 30
0.0
 10
25.319675
 20
33.373841
 30
0.0
 10
25.316627
 20
33.343065
 30
0.0
 10
25.312355
 20
33.314160
 30
0.0
 10
25.307562
 20
33.287264
 30
0.0
 10
25.302460
 20
33.163303
 30
0.0
 10
25.342735
 20
33.052839
 30
0.0
 10
25.421623
 20
32.966719
 30
0.0
 10
25.532383
 20
32.915795
 30
0.0
 10
25.592918
 20
32.907413
 30
0.0
 10
25.653433
 20
32.910969
 30
0.0
 10
25.711964
 20
32.926124
 30
0.0
 10
25.766548
 20
32.952512
 30
0.0
 10
25.814049
 20
32.988845
 30
0.0
 10
25.853013
 20
33.033326
 30
0.0
 10
25.882604
 20
33.084843
 30
0.0
 10
25.901995
 20
33.142292
 30
0.0
 10
25.915206
 20
33.203466
 30
0.0
 10
25.924663
 20
33.268008
 30
0.0
 10
25.930367
 20
33.335696
 30
0.0
 10
25.932230
 20
33.406322
 30
0.0
 10
25.842656
 20
33.849868
 30
0.0
 10
25.597990
 20
34.212521
 30
0.0
 10
25.235259
 20
34.457264
 30
0.0
 10
24.791611
 20
34.547036
 30
0.0
  0
LWPOLYLINE
  5
18b
100
AcDbEntity
  8
texto
 62
7
100
AcDbPolyline
 90
89
 70
0
 10
19.706978
 20
33.856365
 30
0.0
 10
19.809646
 20
33.856365
 30
0.0
 10
19.912313
 20
33.856365
 30
0.0
 10
20.014981
 20
33.856365
 30
0.0
 10
20.117648
 20
33.856365
 30
0.0
 10
20.313954
 20
33.816992
 30
0.0
 10
20.474444
 20
33.709703
 30
0.0
 10
20.582743
 20
33.550724
 30
0.0
 10
20.622482
 20
33.356301
 30
0.0
 10
20.596453
 20
33.195378
 30
0.0
 10
20.522978
 20
33.054831
 30
0.0
 10
20.408981
 20
32.944000
 30
0.0
 10
20.261383
 20
32.872208
 30
0.0
 10
20.169206
 20
32.827242
 30
0.0
 10
20.098749
 20
32.756864
 30
0.0
 10
20.054852
 20
32.667778
 30
0.0
 10
20.042361
 20
32.566694
 30
0.0
 10
20.062433
 20
32.467524
 30
0.0
 10
20.112856
 20
32.381867
 30
0.0
 10
20.187818
 20
32.316704
 30
0.0
 10
20.281505
 20
32.279019
 30
0.0
 10
20.460720
 20
32.209536
 30
0.0
 10
20.596145
 20
32.097277
 30
0.0
 10
20.681792
 20
31.949316
 30
0.0
 10
20.711671
 20
31.772732
 30
0.0
 10
20.711671
 20
31.654718
 30
0.0
 10
20.711671
 20
31.536702
 30
0.0
 10
20.711671
 20
31.418687
 30
0.0
 10
20.711671
 20
31.300671
 30
0.0
 10
20.735945
 20
31.182524
 30
0.0
 10
20.802103
 20
31.086001
 30
0.0
 10
20.900149
 20
31.020904
 30
0.0
 10
21.020090
 20
30.997028
 30
0.0
 10
21.139759
 20
31.020932
 30
0.0
 10
21.237610
 20
31.086080
 30
0.0
 10
21.303651
 20
31.182614
 30
0.0
 10
21.327886
 20
31.300671
 30
0.0
 10
21.327886
 20
31.418687
 30
0.0
 10
21.327886
 20
31.536702
 30
0.0
 10
21.327886
 20
31.654718
 30
0.0
 10
21.327886
 20
31.772732
 30
0.0
 10
21.309736
 20
31.977358
 30
0.0
 10
21.255944
 20
32.171349
 30
0.0
 10
21.167499
 20
32.352075
 30
0.0
 10
21.045397
 20
32.516916
 30
0.0
 10
21.024925
 20
32.540058
 30
0.0
 10
21.004452
 20
32.563172
 30
0.0
 10
20.983960
 20
32.586286
 30
0.0
 10
20.963488
 20
32.609400
 30
0.0
 10
20.981118
 20
32.634913
 30
0.0
 10
20.998749
 20
32.660426
 30
0.0
 10
21.016379
 20
32.685939
 30
0.0
 10
21.034010
 20
32.711452
 30
0.0
 10
21.120344
 20
32.859370
 30
0.0
 10
21.182877
 20
33.017612
 30
0.0
 10
21.220912
 20
33.183987
 30
0.0
 10
21.233750
 20
33.356287
 30
0.0
 10
21.145871
 20
33.788643
 30
0.0
 10
20.906380
 20
34.142056
 30
0.0
 10
20.551507
 20
34.380514
 30
0.0
 10
20.117474
 20
34.468000
 30
0.0
 10
19.937754
 20
34.468000
 30
0.0
 10
19.758034
 20
34.468000
 30
0.0
 10
19.578314
 20
34.468000
 30
0.0
 10
19.398594
 20
34.468000
 30
0.0
 10
19.280754
 20
34.443729
 30
0.0
 10
19.184496
 20
34.377573
 30
0.0
 10
19.119584
 20
34.279526
 30
0.0
 10
19.095776
 20
34.159585
 30
0.0
 10
19.095776
 20
33.444854
 30
0.0
 10
19.095776
 20
32.730123
 30
0.0
 10
19.095776
 20
32.015390
 30
0.0
 10
19.095776
 20
31.300659
 30
0.0
 10
19.119612
 20
31.182513
 30
0.0
 10
19.184573
 20
31.085990
 30
0.0
 10
19.280840
 20
31.020892
 30
0.0
 10
19.398594
 20
30.997016
 30
0.0
 10
19.518414
 20
31.020921
 30
0.0
 10
19.616399
 20
31.086069
 30
0.0
 10
19.682533
 20
31.182603
 30
0.0
 10
19.706804
 20
31.300659
 30
0.0
 10
19.706804
 20
31.939582
 30
0.0
 10
19.706804
 20
32.578505
 30
0.0
 10
19.706804
 20
33.217431
 30
0.0
 10
19.706804
 20
33.856354
 30
0.0
 10
19.706856
 20
33.856354
 30
0.0
 10
19.706908
 20
33.856354
 30
0.0
 10
19.706960
 20
33.856354
 30
0.0
 10
19.706978
 20
33.856365
 30
0.0
  0
LWPOLYLINE
  5
18c
100
AcDbEntity
  8
texto
 62
7
100
AcDbPolyline
 90
81
 70
0
 10
17.626043
 20
34.468014
 30
0.0
 10
17.259659
 20
34.393629
 30
0.0
 10
16.960183
 20
34.190891
 30
0.0
 10
16.758124
 20
33.890421
 30
0.0
 10
16.683991
 20
33.522852
 30
0.0
 10
16.683991
 20
33.127063
 30
0.0
 10
16.683991
 20
32.731275
 30
0.0
 10
16.683991
 20
32.335486
 30
0.0
 10
16.683991
 20
31.939698
 30
0.0
 10
16.758124
 20
31.573128
 30
0.0
 10
16.960183
 20
31.273447
 30
0.0
 10
17.259659
 20
31.071224
 30
0.0
 10
17.626043
 20
30.997025
 30
0.0
 10
17.807060
 20
30.997025
 30
0.0
 10
17.988076
 20
30.997025
 30
0.0
 10
18.169092
 20
30.997025
 30
0.0
 10
18.350108
 20
30.997025
 30
0.0
 10
18.468102
 20
31.021296
 30
0.0
 10
18.564491
 20
31.087429
 30
0.0
 10
18.629498
 20
31.185417
 30
0.0
 10
18.653340
 20
31.305237
 30
0.0
 10
18.629470
 20
31.423079
 30
0.0
 10
18.564415
 20
31.519334
 30
0.0
 10
18.468015
 20
31.584248
 30
0.0
 10
18.350109
 20
31.608067
 30
0.0
 10
18.169093
 20
31.608067
 30
0.0
 10
17.988077
 20
31.608067
 30
0.0
 10
17.807060
 20
31.608067
 30
0.0
 10
17.626044
 20
31.608067
 30
0.0
 10
17.497321
 20
31.634173
 30
0.0
 10
17.392087
 20
31.705279
 30
0.0
 10
17.321075
 20
31.810646
 30
0.0
 10
17.295020
 20
31.939520
 30
0.0
 10
17.295020
 20
32.099227
 30
0.0
 10
17.295020
 20
32.258931
 30
0.0
 10
17.295020
 20
32.418638
 30
0.0
 10
17.295020
 20
32.578341
 30
0.0
 10
17.498074
 20
32.578341
 30
0.0
 10
17.701127
 20
32.578341
 30
0.0
 10
17.904181
 20
32.578341
 30
0.0
 10
18.107234
 20
32.578341
 30
0.0
 10
18.227055
 20
32.602613
 30
0.0
 10
18.325039
 20
32.668726
 30
0.0
 10
18.391174
 20
32.766649
 30
0.0
 10
18.415445
 20
32.886350
 30
0.0
 10
18.391174
 20
33.004220
 30
0.0
 10
18.325039
 20
33.100551
 30
0.0
 10
18.227055
 20
33.165533
 30
0.0
 10
18.107234
 20
33.189381
 30
0.0
 10
17.904181
 20
33.189381
 30
0.0
 10
17.701127
 20
33.189381
 30
0.0
 10
17.498074
 20
33.189381
 30
0.0
 10
17.295020
 20
33.189381
 30
0.0
 10
17.295020
 20
33.272707
 30
0.0
 10
17.295020
 20
33.356033
 30
0.0
 10
17.295020
 20
33.439359
 30
0.0
 10
17.295020
 20
33.522685
 30
0.0
 10
17.321075
 20
33.652378
 30
0.0
 10
17.392087
 20
33.758329
 30
0.0
 10
17.497321
 20
33.829782
 30
0.0
 10
17.626044
 20
33.856001
 30
0.0
 10
17.787097
 20
33.856001
 30
0.0
 10
17.948151
 20
33.856001
 30
0.0
 10
18.109204
 20
33.856001
 30
0.0
 10
18.270257
 20
33.856001
 30
0.0
 10
18.388282
 20
33.880300
 30
0.0
 10
18.484744
 20
33.946507
 30
0.0
 10
18.549822
 20
34.044562
 30
0.0
 10
18.573698
 20
34.164416
 30
0.0
 10
18.549793
 20
34.282408
 30
0.0
 10
18.484667
 20
34.378798
 30
0.0
 10
18.388196
 20
34.443805
 30
0.0
 10
18.270258
 20
34.467653
 30
0.0
 10
18.109205
 20
34.467653
 30
0.0
 10
17.948152
 20
34.467653
 30
0.0
 10
17.787099
 20
34.467653
 30
0.0
 10
17.626045
 20
34.467653
 30
0.0
 10
17.626045
 20
34.467757
 30
0.0
 10
17.626045
 20
34.467859
 30
0.0
 10
17.626045
 20
34.467963
 30
0.0
 10
17.626043
 20
34.468014
 30
0.0
  0
LWPOLYLINE
  5
18d
100
AcDbEntity
  8
texto
 62
7
100
AcDbPolyline
 90
89
 70
0
 10
14.527352
 20
34.462623
 30
0.0
 10
14.407412
 20
34.438804
 30
0.0
 10
14.309366
 20
34.373887
 30
0.0
 10
14.243208
 20
34.277743
 30
0.0
 10
14.218934
 20
34.160231
 30
0.0
 10
14.218934
 20
33.446482
 30
0.0
 10
14.218934
 20
32.732737
 30
0.0
 10
14.218934
 20
32.018991
 30
0.0
 10
14.218934
 20
31.305245
 30
0.0
 10
14.243208
 20
31.185338
 30
0.0
 10
14.309366
 20
31.087361
 30
0.0
 10
14.407412
 20
31.021276
 30
0.0
 10
14.527352
 20
30.997033
 30
0.0
 10
14.645345
 20
31.021304
 30
0.0
 10
14.741736
 20
31.087438
 30
0.0
 10
14.806742
 20
31.185425
 30
0.0
 10
14.830584
 20
31.305245
 30
0.0
 10
14.830584
 20
31.677595
 30
0.0
 10
14.830584
 20
32.049948
 30
0.0
 10
14.830584
 20
32.422298
 30
0.0
 10
14.830584
 20
32.794648
 30
0.0
 10
14.903851
 20
32.671760
 30
0.0
 10
14.977119
 20
32.548869
 30
0.0
 10
15.050386
 20
32.425978
 30
0.0
 10
15.123653
 20
32.303090
 30
0.0
 10
15.322999
 20
31.968860
 30
0.0
 10
15.541323
 20
31.602801
 30
0.0
 10
15.722391
 20
31.299310
 30
0.0
 10
15.809970
 20
31.152800
 30
0.0
 10
15.810393
 20
31.152236
 30
0.0
 10
15.810816
 20
31.151671
 30
0.0
 10
15.811240
 20
31.151107
 30
0.0
 10
15.811663
 20
31.150543
 30
0.0
 10
15.862138
 20
31.087079
 30
0.0
 10
15.925038
 20
31.039683
 30
0.0
 10
15.997310
 20
31.010016
 30
0.0
 10
16.075902
 20
30.999743
 30
0.0
 10
16.117416
 20
31.002593
 30
0.0
 10
16.158192
 20
31.011060
 30
0.0
 10
16.197645
 20
31.024945
 30
0.0
 10
16.235192
 20
31.044136
 30
0.0
 10
16.282427
 20
31.079030
 30
0.0
 10
16.321552
 20
31.121996
 30
0.0
 10
16.351772
 20
31.171918
 30
0.0
 10
16.372290
 20
31.227694
 30
0.0
 10
16.381694
 20
31.288431
 30
0.0
 10
16.379238
 20
31.348665
 30
0.0
 10
16.365116
 20
31.406953
 30
0.0
 10
16.339521
 20
31.461859
 30
0.0
 10
16.125890
 20
31.818241
 30
0.0
 10
15.912258
 20
32.174620
 30
0.0
 10
15.698627
 20
32.531001
 30
0.0
 10
15.484996
 20
32.887380
 30
0.0
 10
15.499412
 20
32.908237
 30
0.0
 10
15.513828
 20
32.929093
 30
0.0
 10
15.528244
 20
32.949949
 30
0.0
 10
15.542659
 20
32.970805
 30
0.0
 10
15.943782
 20
33.558844
 30
0.0
 10
16.150264
 20
33.861470
 30
0.0
 10
16.226856
 20
33.973623
 30
0.0
 10
16.238309
 20
33.990217
 30
0.0
 10
16.267424
 20
34.040964
 30
0.0
 10
16.285495
 20
34.096124
 30
0.0
 10
16.292211
 20
34.154282
 30
0.0
 10
16.287258
 20
34.214011
 30
0.0
 10
16.270590
 20
34.272493
 30
0.0
 10
16.242899
 20
34.325805
 30
0.0
 10
16.204979
 20
34.372739
 30
0.0
 10
16.157628
 20
34.412086
 30
0.0
 10
16.106035
 20
34.440746
 30
0.0
 10
16.049931
 20
34.458413
 30
0.0
 10
15.990793
 20
34.464847
 30
0.0
 10
15.930100
 20
34.459796
 30
0.0
 10
15.871420
 20
34.443032
 30
0.0
 10
15.818125
 20
34.415995
 30
0.0
 10
15.771403
 20
34.379430
 30
0.0
 10
15.732439
 20
34.334094
 30
0.0
 10
15.506986
 20
34.004625
 30
0.0
 10
15.281532
 20
33.675156
 30
0.0
 10
15.056078
 20
33.345687
 30
0.0
 10
14.830625
 20
33.016218
 30
0.0
 10
14.830625
 20
33.302391
 30
0.0
 10
14.830625
 20
33.588562
 30
0.0
 10
14.830625
 20
33.874735
 30
0.0
 10
14.830625
 20
34.160908
 30
0.0
 10
14.806755
 20
34.278389
 30
0.0
 10
14.741699
 20
34.374463
 30
0.0
 10
14.645299
 20
34.439306
 30
0.0
 10
14.527352
 20
34.462623
 30
0.0
  0
LWPOLYLINE
  5
18e
100
AcDbEntity
  8
texto
 62
7
100
AcDbPolyline
 90
85
 70
0
 10
12.536226
 20
34.547039
 30
0.0
 10
12.092594
 20
34.457230
 30
0.0
 10
11.729949
 20
34.212490
 30
0.0
 10
11.485255
 20
33.849834
 30
0.0
 10
11.395476
 20
33.406291
 30
0.0
 10
11.395476
 20
33.066812
 30
0.0
 10
11.395476
 20
32.727335
 30
0.0
 10
11.395476
 20
32.387858
 30
0.0
 10
11.395476
 20
32.048382
 30
0.0
 10
11.485255
 20
31.604632
 30
0.0
 10
11.729949
 20
31.241923
 30
0.0
 10
12.092594
 20
30.997208
 30
0.0
 10
12.536226
 20
30.907425
 30
0.0
 10
12.979738
 20
30.997237
 30
0.0
 10
13.342321
 20
31.242002
 30
0.0
 10
13.586992
 20
31.604717
 30
0.0
 10
13.676768
 20
32.048382
 30
0.0
 10
13.674313
 20
32.114741
 30
0.0
 10
13.666916
 20
32.185375
 30
0.0
 10
13.654543
 20
32.260833
 30
0.0
 10
13.637153
 20
32.341659
 30
0.0
 10
13.616689
 20
32.397031
 30
0.0
 10
13.585743
 20
32.447229
 30
0.0
 10
13.545191
 20
32.491053
 30
0.0
 10
13.495909
 20
32.527290
 30
0.0
 10
13.439863
 20
32.552662
 30
0.0
 10
13.380589
 20
32.566688
 30
0.0
 10
13.319916
 20
32.569228
 30
0.0
 10
13.259670
 20
32.559943
 30
0.0
 10
13.203002
 20
32.539567
 30
0.0
 10
13.152283
 20
32.508810
 30
0.0
 10
13.108643
 20
32.468523
 30
0.0
 10
13.073209
 20
32.419543
 30
0.0
 10
13.048026
 20
32.365458
 30
0.0
 10
13.033673
 20
32.308712
 30
0.0
 10
13.030481
 20
32.251223
 30
0.0
 10
13.038781
 20
32.194920
 30
0.0
 10
13.047600
 20
32.166554
 30
0.0
 10
13.056281
 20
32.131792
 30
0.0
 10
13.062902
 20
32.091931
 30
0.0
 10
13.065527
 20
32.048283
 30
0.0
 10
13.023860
 20
31.842376
 30
0.0
 10
12.910307
 20
31.674116
 30
0.0
 10
12.742037
 20
31.560611
 30
0.0
 10
12.536219
 20
31.518975
 30
0.0
 10
12.330401
 20
31.560611
 30
0.0
 10
12.162131
 20
31.674116
 30
0.0
 10
12.048578
 20
31.842376
 30
0.0
 10
12.006911
 20
32.048283
 30
0.0
 10
12.006911
 20
32.387760
 30
0.0
 10
12.006911
 20
32.727236
 30
0.0
 10
12.006911
 20
33.066713
 30
0.0
 10
12.006911
 20
33.406190
 30
0.0
 10
12.047878
 20
33.614292
 30
0.0
 10
12.160264
 20
33.782533
 30
0.0
 10
12.328301
 20
33.895086
 30
0.0
 10
12.536219
 20
33.936121
 30
0.0
 10
12.742037
 20
33.894414
 30
0.0
 10
12.910307
 20
33.780744
 30
0.0
 10
13.023860
 20
33.612279
 30
0.0
 10
13.065527
 20
33.406190
 30
0.0
 10
13.064257
 20
33.372210
 30
0.0
 10
13.060986
 20
33.340624
 30
0.0
 10
13.056510
 20
33.311950
 30
0.0
 10
13.051625
 20
33.286719
 30
0.0
 10
13.046999
 20
33.163086
 30
0.0
 10
13.087428
 20
33.052737
 30
0.0
 10
13.166162
 20
32.966611
 30
0.0
 10
13.276455
 20
32.915665
 30
0.0
 10
13.337466
 20
32.907283
 30
0.0
 10
13.398204
 20
32.910839
 30
0.0
 10
13.456765
 20
32.925994
 30
0.0
 10
13.511242
 20
32.952382
 30
0.0
 10
13.558658
 20
32.988743
 30
0.0
 10
13.597654
 20
33.033272
 30
0.0
 10
13.627355
 20
33.084800
 30
0.0
 10
13.646888
 20
33.142162
 30
0.0
 10
13.659834
 20
33.202871
 30
0.0
 10
13.669105
 20
33.267257
 30
0.0
 10
13.674681
 20
33.335101
 30
0.0
 10
13.676544
 20
33.406192
 30
0.0
 10
13.586888
 20
33.849857
 30
0.0
 10
13.342278
 20
34.212575
 30
0.0
 10
12.979718
 20
34.457337
 30
0.0
 10
12.536226
 20
34.547039
 30
0.0
  0
LWPOLYLINE
  5
18f
100
AcDbEntity
  8
texto
 62
7
100
AcDbPolyline
 90
49
 70
0
 10
9.183459
 20
32.067466
 30
0.0
 10
9.448113
 20
32.067466
 30
0.0
 10
9.712766
 20
32.067466
 30
0.0
 10
9.977420
 20
32.067466
 30
0.0
 10
10.242074
 20
32.067466
 30
0.0
 10
10.242074
 20
31.875145
 30
0.0
 10
10.242074
 20
31.682825
 30
0.0
 10
10.242074
 20
31.490505
 30
0.0
 10
10.242074
 20
31.298184
 30
0.0
 10
10.266345
 20
31.181161
 30
0.0
 10
10.332480
 20
31.085487
 30
0.0
 10
10.430464
 20
31.020923
 30
0.0
 10
10.550285
 20
30.997245
 30
0.0
 10
10.668006
 20
31.020923
 30
0.0
 10
10.764201
 20
31.085487
 30
0.0
 10
10.829091
 20
31.181161
 30
0.0
 10
10.852894
 20
31.298184
 30
0.0
 10
10.852894
 20
31.825262
 30
0.0
 10
10.852894
 20
32.352341
 30
0.0
 10
10.852894
 20
32.879419
 30
0.0
 10
10.852894
 20
33.406497
 30
0.0
 10
10.763151
 20
33.850128
 30
0.0
 10
10.518550
 20
34.212772
 30
0.0
 10
10.156039
 20
34.457467
 30
0.0
 10
9.712559
 20
34.547248
 30
0.0
 10
9.268775
 20
34.457439
 30
0.0
 10
8.905997
 20
34.212696
 30
0.0
 10
8.661209
 20
33.850040
 30
0.0
 10
8.571395
 20
33.406497
 30
0.0
 10
8.571395
 20
32.879419
 30
0.0
 10
8.571395
 20
32.352341
 30
0.0
 10
8.571395
 20
31.825262
 30
0.0
 10
8.571395
 20
31.298184
 30
0.0
 10
8.595666
 20
31.181161
 30
0.0
 10
8.661800
 20
31.085487
 30
0.0
 10
8.759785
 20
31.020923
 30
0.0
 10
8.879606
 20
30.997245
 30
0.0
 10
8.996319
 20
31.021347
 30
0.0
 10
9.092926
 20
31.086588
 30
0.0
 10
9.158733
 20
31.182400
 30
0.0
 10
9.183046
 20
31.298198
 30
0.0
 10
9.183046
 20
31.490519
 30
0.0
 10
9.183046
 20
31.682839
 30
0.0
 10
9.183046
 20
31.875159
 30
0.0
 10
9.183046
 20
32.067480
 30
0.0
 10
9.183150
 20
32.067480
 30
0.0
 10
9.183254
 20
32.067480
 30
0.0
 10
9.183357
 20
32.067480
 30
0.0
 10
9.183459
 20
32.067466
 30
0.0
  0
LWPOLYLINE
  5
190
100
AcDbEntity
  8
texto
 62
7
100
AcDbPolyline
 90
25
 70
0
 10
10.242074
 20
32.678700
 30
0.0
 10
9.977420
 20
32.678700
 30
0.0
 10
9.712766
 20
32.678700
 30
0.0
 10
9.448113
 20
32.678700
 30
0.0
 10
9.183459
 20
32.678700
 30
0.0
 10
9.183459
 20
32.860544
 30
0.0
 10
9.183459
 20
33.042391
 30
0.0
 10
9.183459
 20
33.224235
 30
0.0
 10
9.183459
 20
33.406082
 30
0.0
 10
9.225158
 20
33.612085
 30
0.0
 10
9.338782
 20
33.780560
 30
0.0
 10
9.507124
 20
33.894279
 30
0.0
 10
9.712974
 20
33.936014
 30
0.0
 10
9.920979
 20
33.894979
 30
0.0
 10
10.089007
 20
33.782426
 30
0.0
 10
10.201344
 20
33.614184
 30
0.0
 10
10.242282
 20
33.406082
 30
0.0
 10
10.242282
 20
33.224235
 30
0.0
 10
10.242282
 20
33.042391
 30
0.0
 10
10.242282
 20
32.860544
 30
0.0
 10
10.242282
 20
32.678700
 30
0.0
 10
10.242230
 20
32.678700
 30
0.0
 10
10.242178
 20
32.678700
 30
0.0
 10
10.242126
 20
32.678700
 30
0.0
 10
10.242074
 20
32.678700
 30
0.0
  0
LWPOLYLINE
  5
191
100
AcDbEntity
  8
texto
 62
7
100
AcDbPolyline
 90
65
 70
0
 10
6.498341
 20
32.578313
 30
0.0
 10
6.728410
 20
32.578313
 30
0.0
 10
6.958478
 20
32.578313
 30
0.0
 10
7.188547
 20
32.578313
 30
0.0
 10
7.418615
 20
32.578313
 30
0.0
 10
7.418615
 20
32.260043
 30
0.0
 10
7.418615
 20
31.941775
 30
0.0
 10
7.418615
 20
31.623505
 30
0.0
 10
7.418615
 20
31.305237
 30
0.0
 10
7.442483
 20
31.185329
 30
0.0
 10
7.507515
 20
31.087353
 30
0.0
 10
7.603853
 20
31.021268
 30
0.0
 10
7.721639
 20
30.997025
 30
0.0
 10
7.841547
 20
31.021296
 30
0.0
 10
7.939522
 20
31.087429
 30
0.0
 10
8.005608
 20
31.185417
 30
0.0
 10
8.029848
 20
31.305237
 30
0.0
 10
8.029848
 20
32.019708
 30
0.0
 10
8.029848
 20
32.734182
 30
0.0
 10
8.029848
 20
33.448653
 30
0.0
 10
8.029848
 20
34.163126
 30
0.0
 10
8.005577
 20
34.281728
 30
0.0
 10
7.939442
 20
34.378648
 30
0.0
 10
7.841458
 20
34.444031
 30
0.0
 10
7.721637
 20
34.468020
 30
0.0
 10
7.603764
 20
34.444002
 30
0.0
 10
7.507435
 20
34.378572
 30
0.0
 10
7.442452
 20
34.281640
 30
0.0
 10
7.418612
 20
34.163126
 30
0.0
 10
7.418612
 20
33.919628
 30
0.0
 10
7.418612
 20
33.676129
 30
0.0
 10
7.418612
 20
33.432631
 30
0.0
 10
7.418612
 20
33.189132
 30
0.0
 10
7.188544
 20
33.189132
 30
0.0
 10
6.958475
 20
33.189132
 30
0.0
 10
6.728407
 20
33.189132
 30
0.0
 10
6.498338
 20
33.189132
 30
0.0
 10
6.498338
 20
33.432631
 30
0.0
 10
6.498338
 20
33.676129
 30
0.0
 10
6.498338
 20
33.919628
 30
0.0
 10
6.498338
 20
34.163126
 30
0.0
 10
6.474104
 20
34.281728
 30
0.0
 10
6.408064
 20
34.378648
 30
0.0
 10
6.310212
 20
34.444031
 30
0.0
 10
6.190543
 20
34.468020
 30
0.0
 10
6.072670
 20
34.444002
 30
0.0
 10
5.976342
 20
34.378572
 30
0.0
 10
5.911358
 20
34.281640
 30
0.0
 10
5.887519
 20
34.163126
 30
0.0
 10
5.887519
 20
33.448653
 30
0.0
 10
5.887519
 20
32.734182
 30
0.0
 10
5.887519
 20
32.019708
 30
0.0
 10
5.887519
 20
31.305237
 30
0.0
 10
5.910980
 20
31.184189
 30
0.0
 10
5.975332
 20
31.086343
 30
0.0
 10
6.071534
 20
31.020890
 30
0.0
 10
6.190545
 20
30.997042
 30
0.0
 10
6.310213
 20
31.021313
 30
0.0
 10
6.408065
 20
31.087446
 30
0.0
 10
6.474105
 20
31.185434
 30
0.0
 10
6.498339
 20
31.305254
 30
0.0
 10
6.498339
 20
31.623522
 30
0.0
 10
6.498339
 20
31.941792
 30
0.0
 10
6.498339
 20
32.260060
 30
0.0
 10
6.498341
 20
32.578313
 30
0.0
  0
LWPOLYLINE
  5
192
100
AcDbEntity
  8
base
 62
7
100
AcDbPolyline
 90
33
 70
0
 10
2.290870
 20
59.897250
 30
0.0
 10
11.660560
 20
59.897250
 30
0.0
 10
21.030250
 20
59.897250
 30
0.0
 10
30.399939
 20
59.897250
 30
0.0
 10
39.769629
 20
59.897250
 30
0.0
 10
40.622677
 20
59.725874
 30
0.0
 10
41.317815
 20
59.257960
 30
0.0
 10
41.785729
 20
58.562821
 30
0.0
 10
41.957105
 20
57.709773
 30
0.0
 10
41.957105
 20
43.855758
 30
0.0
 10
41.957105
 20
30.001743
 30
0.0
 10
41.957105
 20
16.147725
 30
0.0
 10
41.957105
 20
2.293710
 30
0.0
 10
41.785729
 20
1.440662
 30
0.0
 10
41.317815
 20
0.745523
 30
0.0
 10
40.622677
 20
0.277610
 30
0.0
 10
39.769629
 20
0.106234
 30
0.0
 10
30.399939
 20
0.106234
 30
0.0
 10
21.030250
 20
0.106234
 30
0.0
 10
11.660560
 20
0.106234
 30
0.0
 10
2.290870
 20
0.106234
 30
0.0
 10
1.437823
 20
0.277610
 30
0.0
 10
0.742684
 20
0.745523
 30
0.0
 10
0.274769
 20
1.440662
 30
0.0
 10
0.103394
 20
2.293710
 30
0.0
 10
0.103394
 20
16.147725
 30
0.0
 10
0.103394
 20
30.001743
 30
0.0
 10
0.103394
 20
43.855758
 30
0.0
 10
0.103394
 20
57.709773
 30
0.0
 10
0.274769
 20
58.562821
 30
0.0
 10
0.742684
 20
59.257960
 30
0.0
 10
1.437823
 20
59.725874
 30
0.0
 10
2.290870
 20
59.897250
 30
0.0
  0
ENDSEC
  0
SECTION
  2
OBJECTS
  0
DICTIONARY
  5
C
330
0
100
AcDbDictionary
  3
ACAD_GROUP
350
D
  3
ACAD_MLINESTYLE
350
17
  0
DICTIONARY
  5
D
330
C
100
AcDbDictionary
  0
DICTIONARY
  5
1A
330
C
100
AcDbDictionary
  0
DICTIONARY
  5
17
330
C
100
AcDbDictionary
  3
STANDARD
350
18
  0
DICTIONARY
  5
19
330
C
100
AcDbDictionary
  0
ENDSEC
  0
EOF
